<svg xmlns="http://www.w3.org/2000/svg" xml:space="preserve" viewBox="0 0 300 300"><path fill="none" stroke="#213266" stroke-miterlimit="10" stroke-width="1.908" d="M119.399 109.139a5.407 5.407 0 0 0 5.404 5.407h17.803c37.359 0 57.229-50.788 81.191-50.788h11.327a5.41 5.41 0 0 0 5.406-5.411V30.693a5.407 5.407 0 0 0-5.406-5.41h-11.327c-27.062 0-53.531 50.792-81.191 50.792h-17.803a5.403 5.403 0 0 0-5.404 5.407v27.657z"/><path fill="#213266" d="M189.342 99.623s-21.1 20.881-38.057 20.881H55.26a5.411 5.411 0 0 0-5.411 5.407v23.29a5.406 5.406 0 0 0 5.405 5.404h104.757c20.505 0 29.33-20.889 29.33-20.889V99.623zm60.808-9.7c0 10.656-8.641 19.3-19.296 19.3-10.656 0-19.292-8.644-19.292-19.3 0-10.652 8.636-19.295 19.292-19.295 10.654-.001 19.296 8.643 19.296 19.295z"/><path fill="none" stroke="#213266" stroke-miterlimit="10" stroke-width="1.731" d="M98.492 180.891c0 9.672-7.838 17.511-17.501 17.511-9.675 0-17.51-7.842-17.51-17.511 0-9.664 7.835-17.505 17.51-17.505 9.664 0 17.501 7.841 17.501 17.505zm39.165 0c0 9.672-7.842 17.511-17.511 17.511-9.664 0-17.505-7.842-17.505-17.511 0-9.664 7.842-17.505 17.505-17.505 9.67 0 17.511 7.841 17.511 17.505zm39.159 0c0 9.672-7.836 17.511-17.502 17.511-9.67 0-17.51-7.842-17.51-17.511 0-9.664 7.84-17.505 17.51-17.505 9.666 0 17.502 7.841 17.502 17.505z"/><g fill="#213266"><path d="M32.052 241.489c-2.544 0-4.266-.428-5.162-1.289-1.066.861-2.103 1.289-3.108 1.289H6.769c-1.37 0-2.496-.551-3.38-1.653-.836-1.041-1.254-2.248-1.254-3.617v-4.944h3.217v4.472c0 .896.185 1.536.555 1.918.37.382 1.014.573 1.936.573h14.994c.449 0 .82-.046 1.118-.137.297-.091.537-.236.718-.437.181-.2.309-.458.382-.772a5.15 5.15 0 0 0 .109-1.146v-4.47h3.325v4.47c0 1.66 1.187 2.491 3.563 2.491v3.252zm-17.63-15.539a1.8 1.8 0 0 1-.154.745c-.103.231-.245.43-.427.601a2.137 2.137 0 0 1-1.437.545c-1.516 0-2.272-.629-2.272-1.89 0-1.187.685-1.782 2.054-1.782 1.489-.002 2.236.594 2.236 1.781zm6.287 0c0 .533-.207.981-.619 1.346-.412.363-.908.544-1.49.544-1.515 0-2.272-.63-2.272-1.89 0-1.188.702-1.781 2.107-1.781 1.518-.002 2.274.594 2.274 1.781z"/><path d="M42.975 241.489h-.982c-2.132 0-3.698-.428-4.698-1.289-.748.666-1.436 1.06-2.063 1.181-.412.072-1.836.108-4.271.108v-3.254h2.272c1.029 0 1.708-.283 2.035-.854.242-.35.364-1.114.364-2.29v-14.358h3.253v15.014c0 .581.091 1.051.273 1.408.183.357.437.608.764.754.364.134 1.382.241 3.054.327v3.254h-.001z"/><path d="M56.661 235.419c0 1.843-.467 3.351-1.399 4.526-1.029 1.345-2.442 2.017-4.235 2.017a5.825 5.825 0 0 1-1.962-.326 6.148 6.148 0 0 1-1.709-.927c-1.066.448-2.884.708-5.453.782v-3.254c1.818 0 2.884-.175 3.199-.527v.019c.024-.06.052-.31.083-.746.03-.435.058-1.023.083-1.762.097-2.133.636-3.781 1.617-4.944.982-1.163 2.405-1.743 4.271-1.743 1.781 0 3.187.714 4.217 2.144.857 1.258 1.288 2.838 1.288 4.741zm-2.89-.199c0-2.352-.915-3.526-2.745-3.526-1.867 0-2.798 1.211-2.798 3.635 0 2.253.933 3.38 2.798 3.38 1.83-.001 2.745-1.163 2.745-3.489zm43.657 6.269c-2.544 0-4.266-.428-5.161-1.289-1.067.861-2.103 1.289-3.108 1.289H72.146c-1.369 0-2.496-.551-3.38-1.653-.836-1.041-1.254-2.248-1.254-3.617v-4.944h3.218v4.472c0 .896.185 1.536.555 1.918.37.382 1.014.573 1.936.573h14.994c.449 0 .82-.046 1.118-.137.296-.091.536-.236.718-.437.181-.2.309-.458.382-.772a5.15 5.15 0 0 0 .109-1.146v-4.47h3.326v4.47c0 1.66 1.187 2.491 3.562 2.491l-.002 3.252zm-17.63-15.539a1.816 1.816 0 0 1-.582 1.346c-.182.169-.397.302-.646.399s-.512.146-.791.146c-1.516 0-2.272-.629-2.272-1.89 0-1.187.685-1.782 2.054-1.782 1.492-.002 2.237.594 2.237 1.781zm6.289 0c0 .533-.207.981-.619 1.346-.412.363-.908.544-1.489.544-1.515 0-2.272-.63-2.272-1.89 0-1.188.702-1.781 2.107-1.781 1.515-.002 2.273.594 2.273 1.781z"/><path d="M107.644 239.437a14.683 14.683 0 0 1-5.507 1.817c-.497.086-1.229.147-2.199.183-.97.036-2.169.055-3.6.055v-3.254c2.108 0 3.893-.104 5.353-.31 1.46-.205 2.614-.509 3.463-.907h-.019c-.024 0 .084-.065.326-.192s.563-.293.964-.499c.157-.085.33-.176.518-.273.188-.097.385-.199.591-.31h-.019c.279-.169.618-.359 1.017-.572.401-.212.849-.457 1.346-.735.242-.134.496-.274.763-.419.267-.146.539-.296.817-.453a3.093 3.093 0 0 0-.846-1.046 3.31 3.31 0 0 0-1.245-.609c-.424-.097-1.357-.146-2.798-.146l-5.744-.071-.435-3.162h7.997c4.398 0 6.598 2.229 6.598 6.688l-7.341 4.215zm1.143-16.687c0 .644-.217 1.181-.653 1.617-.437.438-.97.654-1.601.654-1.684 0-2.526-.756-2.526-2.271 0-1.283.8-1.927 2.399-1.927 1.587 0 2.381.644 2.381 1.927zm13.632 18.739h-3.162v-20.755h3.162v20.755zm18.411-4.235c0 1.321-.473 2.363-1.417 3.128-.921.737-2.036 1.107-3.344 1.107h-10.034l-.491-3.254h10.27c1.175 0 1.763-.424 1.763-1.271 0-.205-.042-.405-.128-.6a2.218 2.218 0 0 0-.345-.546c-1.2-1.271-2.417-2.558-3.653-3.861a1676.926 1676.926 0 0 1-3.653-3.862l2.253-2.236 7.27 7.688a5.527 5.527 0 0 1 1.127 1.709c.256.619.382 1.284.382 1.998zm16.413 4.235c-1.576 0-2.715-.503-3.416-1.508-.015 2.689-.698 4.938-2.055 6.742-1.442 1.953-3.502 2.928-6.179 2.928h-4.182l-.544-3.271h4.544c.654 0 1.278-.112 1.871-.336a5.711 5.711 0 0 0 1.636-.955c.496-.46.885-.979 1.162-1.555a4.133 4.133 0 0 0 .419-1.825v-10.433h3.287v4.67c0 1.431 1.152 2.193 3.455 2.291v3.252h.002z"/><path d="M160.278 246.543c0 1.188-.686 1.779-2.055 1.779-1.563 0-2.344-.592-2.344-1.779 0-.292.055-.559.163-.801a1.954 1.954 0 0 1 1.11-1.033c.254-.099.526-.146.817-.146 1.54-.001 2.309.659 2.309 1.98zm7.47-10.324c0 .704-.112 1.36-.337 1.973a5.36 5.36 0 0 1-.954 1.645 4.417 4.417 0 0 1-1.489 1.228 4.059 4.059 0 0 1-1.837.426h-6.978v-3.252h5.942c.873 0 1.479-.191 1.818-.573.34-.382.508-1.021.508-1.918v-4.472h3.326v4.943h.001zm-4.471 14.904c0 1.163-.697 1.744-2.091 1.744-1.526 0-2.29-.581-2.29-1.744 0-1.334.665-1.998 1.999-1.998.653 0 1.206.149 1.653.452.487.412.729.927.729 1.546zm3.199-4.58c0 1.188-.703 1.779-2.108 1.779-1.515 0-2.271-.592-2.271-1.779 0-.57.2-1.05.6-1.436a2.14 2.14 0 0 1 1.437-.546c1.56.001 2.342.661 2.342 1.982zm23.482-8.308v3.236h-.637c-1.357 0-2.387-.188-3.09-.563-.134-.097-.466-.385-1-.864s-1.291-1.173-2.272-2.081c-1.247 2.606-3.234 3.908-5.96 3.908-1.794 0-3.272-.581-4.437-1.743-1.163-1.164-1.743-2.654-1.743-4.473 0-.448.09-.933.272-1.453a9.25 9.25 0 0 1 .763-1.617c.328-.557.725-1.128 1.19-1.708.467-.582.978-1.163 1.536-1.745a52.608 52.608 0 0 0-.454-.519c-.158-.175-.31-.348-.454-.518l2.163-2.236 9.777 10.306c.801.885 1.315 1.406 1.547 1.563h-.02c.473.244 1.199.413 2.181.509h.637v-.002zm-9.852-2.36c0-.776-.2-1.353-.6-1.729l-2.599-2.599-1.173 1.173c-.333.333-.566.58-.699.736-.619.825-.927 1.63-.927 2.418 0 .813.284 1.49.854 2.036.569.534 1.262.799 2.072.799.388 0 .766-.072 1.137-.217a3.406 3.406 0 0 0 1.009-.619c.618-.58.926-1.248.926-1.998z"/><path d="M199.228 236.219c0 1.369-.431 2.576-1.291 3.617-.873 1.103-2.005 1.653-3.398 1.653h-5.271v-3.252c3.393 0 5.271-.073 5.634-.219.702-.241 1.055-1.218 1.055-2.927v-.473c0-.181-.007-.394-.02-.635a7.02 7.02 0 0 0-.009-.346 7.637 7.637 0 0 1-.011-.382 33.912 33.912 0 0 1-.018-1.118v-.864h3.326v4.944h.003zm-2.963 10.268c0 .618-.219 1.146-.655 1.582a2.248 2.248 0 0 1-.728.481 2.343 2.343 0 0 1-.889.173c-1.649 0-2.473-.745-2.473-2.236 0-1.296.775-1.945 2.328-1.945 1.611 0 2.417.649 2.417 1.945zm43.73-4.998c-2.545 0-4.266-.428-5.162-1.289-1.066.861-2.103 1.289-3.109 1.289h-17.01c-1.37 0-2.498-.551-3.382-1.653-.835-1.041-1.254-2.248-1.254-3.617v-4.944h3.218v4.472c0 .896.184 1.536.553 1.918s1.016.573 1.937.573h14.994c.449 0 .822-.046 1.117-.137.298-.091.537-.236.719-.437.181-.2.31-.458.382-.772s.108-.697.108-1.146v-4.47h3.325v4.47c0 1.66 1.188 2.491 3.563 2.491v3.252h.001zm-17.63-15.539a1.828 1.828 0 0 1-.581 1.346 2.02 2.02 0 0 1-.646.399 2.142 2.142 0 0 1-.792.146c-1.514 0-2.271-.629-2.271-1.89 0-1.187.684-1.782 2.053-1.782 1.492-.002 2.237.594 2.237 1.781zm6.288 0c0 .533-.206.981-.617 1.346-.412.363-.91.544-1.492.544-1.515 0-2.271-.63-2.271-1.89 0-1.188.703-1.781 2.108-1.781 1.515-.002 2.272.594 2.272 1.781z"/><path d="M253.936 237.056c0 2.956-1.66 4.434-4.98 4.434h-10.05v-3.252h10.05c.861 0 1.29-.515 1.29-1.546 0-.425-.139-.774-.417-1.053l-8.397-8.87-.49-3.617 11.868-4.289.437 3.235-8.306 3.146a3668.12 3668.12 0 0 0 3.309 3.688c1.15 1.284 2.253 2.515 3.308 3.689a23.112 23.112 0 0 1 1.762 2.51c.409.702.616 1.344.616 1.925zm16.394 4.433c-1.575 0-2.715-.503-3.417-1.508-.012 2.689-.698 4.938-2.053 6.742-1.442 1.953-3.502 2.928-6.18 2.928h-4.182l-.544-3.271h4.542c.656 0 1.278-.112 1.872-.336a5.743 5.743 0 0 0 1.637-.955c.496-.46.884-.979 1.163-1.555s.417-1.185.417-1.825v-10.433h3.289v4.67c0 1.431 1.152 2.193 3.454 2.291l.002 3.252z"/><path d="M297.865 235.855c0 .884-.15 1.673-.454 2.363a4.912 4.912 0 0 1-1.264 1.744c-.538.473-1.19.836-1.952 1.091-.763.255-1.606.382-2.527.382-1.503 0-3.059-.691-4.67-2.072-1.601 1.355-3.157 2.035-4.671 2.035-1.346 0-2.823-.665-4.437-1.998l-.182-.109c-.242.303-.496.592-.764.864a4.447 4.447 0 0 1-.881.7 4.366 4.366 0 0 1-1.107.463 5.592 5.592 0 0 1-1.463.173h-4.127v-3.254h4.107c1.043 0 1.778-.27 2.209-.808.43-.539.646-1.348.646-2.427v-4.562h3.09v4.526c0 .473.066.911.199 1.316.134.407.328.764.581 1.073.255.309.563.551.927.727.364.176.781.264 1.254.264 1.043 0 1.823-.287 2.345-.864.521-.575.781-1.396.781-2.463v-4.579h3.126v4.689c0 .97.276 1.747.828 2.335.551.589 1.293.882 2.226.882 1.006 0 1.764-.272 2.272-.817s.763-1.321.763-2.327v-4.762h3.145v5.415zm-11.595-11.232a2 2 0 0 1-.6 1.473 2.05 2.05 0 0 1-1.454.581 2.61 2.61 0 0 1-.873-.146 2.161 2.161 0 0 1-.718-.407 1.963 1.963 0 0 1-.664-1.5c0-1.138.686-1.709 2.055-1.709 1.503-.001 2.254.568 2.254 1.708zm3.089-4.544c0 .291-.059.563-.172.818a2.26 2.26 0 0 1-.464.672c-.206.17-.428.304-.664.4a1.93 1.93 0 0 1-.754.146c-.315 0-.609-.057-.881-.164a2.625 2.625 0 0 1-.718-.418c-.484-.375-.727-.86-.727-1.453 0-1.164.69-1.745 2.072-1.745 1.539-.001 2.308.581 2.308 1.744zm3.073 4.544c0 .618-.188 1.115-.563 1.491-.377.374-.855.563-1.438.563a2.582 2.582 0 0 1-1.617-.545c-.449-.376-.672-.879-.672-1.509 0-1.138.678-1.709 2.036-1.709 1.502 0 2.254.569 2.254 1.709z"/></g></svg>