<svg xmlns="http://www.w3.org/2000/svg" viewBox="0 0 392 390"><defs><filter id="a" width="392" height="390" x="0" y="0" filterUnits="userSpaceOnUse"><feOffset/><feGaussianBlur result="blur" stdDeviation="10"/><feFlood flood-color="#262626" flood-opacity=".078"/><feComposite in2="blur" operator="in"/><feComposite in="SourceGraphic"/></filter><filter id="b" width="122" height="46" x="147" y="310" filterUnits="userSpaceOnUse"><feOffset dy="3"/><feGaussianBlur result="blur-2" stdDeviation="3"/><feFlood flood-opacity=".161"/><feComposite in2="blur-2" operator="in"/><feComposite in="SourceGraphic"/></filter><filter id="c" width="122" height="46" x="37" y="310" filterUnits="userSpaceOnUse"><feOffset dy="3"/><feGaussianBlur result="blur-3" stdDeviation="3"/><feFlood flood-opacity=".161"/><feComposite in2="blur-3" operator="in"/><feComposite in="SourceGraphic"/></filter></defs><g data-name="Group 125"><path fill="#234580" d="M382 11a1 1 0 1 1-1-1 1 1 0 0 1 1 1Z" data-name="Path 395"/><path fill="#234580" d="M382 21a1 1 0 1 1-1-1 1 1 0 0 1 1 1Z" data-name="Path 396"/><path fill="#234580" d="M382 31a1 1 0 1 1-1-1 1 1 0 0 1 1 1Z" data-name="Path 397"/><path fill="#234580" d="M382 41a1 1 0 1 1-1-1 1 1 0 0 1 1 1Z" data-name="Path 398"/><path fill="#234580" d="M382 51a1 1 0 1 1-1-1 1 1 0 0 1 1 1Z" data-name="Path 399"/><path fill="#234580" d="M382 61a1 1 0 1 1-1-1 1 1 0 0 1 1 1Z" data-name="Path 400"/><path fill="#234580" d="M382 71a1 1 0 1 1-1-1 1 1 0 0 1 1 1Z" data-name="Path 401"/><path fill="#234580" d="M382 81a1 1 0 1 1-1-1 1 1 0 0 1 1 1Z" data-name="Path 402"/><path fill="#234580" d="M382 91a1 1 0 1 1-1-1 1 1 0 0 1 1 1Z" data-name="Path 403"/><path fill="#234580" d="M382 101a1 1 0 1 1-1-1 1 1 0 0 1 1 1Z" data-name="Path 404"/><path fill="#234580" d="M382 111a1 1 0 1 1-1-1 1 1 0 0 1 1 1Z" data-name="Path 405"/><path fill="#234580" d="M382 121a1 1 0 1 1-1-1 1 1 0 0 1 1 1Z" data-name="Path 406"/><path fill="#234580" d="M382 131a1 1 0 1 1-1-1 1 1 0 0 1 1 1Z" data-name="Path 407"/><path fill="#234580" d="M382 141a1 1 0 1 1-1-1 1 1 0 0 1 1 1Z" data-name="Path 408"/><path fill="#234580" d="M382 151a1 1 0 1 1-1-1 1 1 0 0 1 1 1Z" data-name="Path 409"/><path fill="#234580" d="M382 161a1 1 0 1 1-1-1 1 1 0 0 1 1 1Z" data-name="Path 410"/><path fill="#234580" d="M382 171a1 1 0 1 1-1-1 1 1 0 0 1 1 1Z" data-name="Path 411"/><path fill="#234580" d="M372 11a1 1 0 1 1-1-1 1 1 0 0 1 1 1Z" data-name="Path 412"/><path fill="#234580" d="M372 21a1 1 0 1 1-1-1 1 1 0 0 1 1 1Z" data-name="Path 413"/><path fill="#234580" d="M372 31a1 1 0 1 1-1-1 1 1 0 0 1 1 1Z" data-name="Path 414"/><path fill="#234580" d="M372 41a1 1 0 1 1-1-1 1 1 0 0 1 1 1Z" data-name="Path 415"/><path fill="#234580" d="M372 51a1 1 0 1 1-1-1 1 1 0 0 1 1 1Z" data-name="Path 416"/><path fill="#234580" d="M372 61a1 1 0 1 1-1-1 1 1 0 0 1 1 1Z" data-name="Path 417"/><path fill="#234580" d="M372 71a1 1 0 1 1-1-1 1 1 0 0 1 1 1Z" data-name="Path 418"/><path fill="#234580" d="M372 81a1 1 0 1 1-1-1 1 1 0 0 1 1 1Z" data-name="Path 419"/><path fill="#234580" d="M372 91a1 1 0 1 1-1-1 1 1 0 0 1 1 1Z" data-name="Path 420"/><path fill="#234580" d="M372 101a1 1 0 1 1-1-1 1 1 0 0 1 1 1Z" data-name="Path 421"/><path fill="#234580" d="M372 111a1 1 0 1 1-1-1 1 1 0 0 1 1 1Z" data-name="Path 422"/><path fill="#234580" d="M372 121a1 1 0 1 1-1-1 1 1 0 0 1 1 1Z" data-name="Path 423"/><path fill="#234580" d="M372 131a1 1 0 1 1-1-1 1 1 0 0 1 1 1Z" data-name="Path 424"/><path fill="#234580" d="M372 141a1 1 0 1 1-1-1 1 1 0 0 1 1 1Z" data-name="Path 425"/><path fill="#234580" d="M372 151a1 1 0 1 1-1-1 1 1 0 0 1 1 1Z" data-name="Path 426"/><path fill="#234580" d="M372 161a1 1 0 1 1-1-1 1 1 0 0 1 1 1Z" data-name="Path 427"/><path fill="#234580" d="M372 171a1 1 0 1 1-1-1 1 1 0 0 1 1 1Z" data-name="Path 428"/><path fill="#234580" d="M362 11a1 1 0 1 1-1-1 1 1 0 0 1 1 1Z" data-name="Path 429"/><path fill="#234580" d="M362 21a1 1 0 1 1-1-1 1 1 0 0 1 1 1Z" data-name="Path 430"/><path fill="#234580" d="M352 11a1 1 0 1 1-1-1 1 1 0 0 1 1 1Z" data-name="Path 446"/><path fill="#234580" d="M352 21a1 1 0 1 1-1-1 1 1 0 0 1 1 1Z" data-name="Path 447"/><path fill="#234580" d="M342 11a1 1 0 1 1-1-1 1 1 0 0 1 1 1Z" data-name="Path 463"/><path fill="#234580" d="M342 21a1 1 0 1 1-1-1 1 1 0 0 1 1 1Z" data-name="Path 464"/><path fill="#234580" d="M332 11a1 1 0 1 1-1-1 1 1 0 0 1 1 1Z" data-name="Path 480"/><path fill="#234580" d="M332 21a1 1 0 1 1-1-1 1 1 0 0 1 1 1Z" data-name="Path 481"/><path fill="#234580" d="M322 11a1 1 0 1 1-1-1 1 1 0 0 1 1 1Z" data-name="Path 497"/><path fill="#234580" d="M322 21a1 1 0 1 1-1-1 1 1 0 0 1 1 1Z" data-name="Path 498"/><path fill="#234580" d="M312 11a1 1 0 1 1-1-1 1 1 0 0 1 1 1Z" data-name="Path 514"/><path fill="#234580" d="M312 21a1 1 0 1 1-1-1 1 1 0 0 1 1 1Z" data-name="Path 515"/><path fill="#234580" d="M302 11a1 1 0 1 1-1-1 1 1 0 0 1 1 1Z" data-name="Path 531"/><path fill="#234580" d="M302 21a1 1 0 1 1-1-1 1 1 0 0 1 1 1Z" data-name="Path 532"/><path fill="#234580" d="M292 11a1 1 0 1 1-1-1 1 1 0 0 1 1 1Z" data-name="Path 548"/><path fill="#234580" d="M292 21a1 1 0 1 1-1-1 1 1 0 0 1 1 1Z" data-name="Path 549"/><path fill="#234580" d="M282 11a1 1 0 1 1-1-1 1 1 0 0 1 1 1Z" data-name="Path 565"/><path fill="#234580" d="M282 21a1 1 0 1 1-1-1 1 1 0 0 1 1 1Z" data-name="Path 566"/><path fill="#234580" d="M272 11a1 1 0 1 1-1-1 1 1 0 0 1 1 1Z" data-name="Path 582"/><path fill="#234580" d="M272 21a1 1 0 1 1-1-1 1 1 0 0 1 1 1Z" data-name="Path 583"/><path fill="#234580" d="M262 11a1 1 0 1 1-1-1 1 1 0 0 1 1 1Z" data-name="Path 599"/><path fill="#234580" d="M262 21a1 1 0 1 1-1-1 1 1 0 0 1 1 1Z" data-name="Path 600"/><path fill="#234580" d="M252 11a1 1 0 1 1-1-1 1 1 0 0 1 1 1Z" data-name="Path 616"/><path fill="#234580" d="M252 21a1 1 0 1 1-1-1 1 1 0 0 1 1 1Z" data-name="Path 617"/><path fill="#234580" d="M242 11a1 1 0 1 1-1-1 1 1 0 0 1 1 1Z" data-name="Path 633"/><path fill="#234580" d="M242 21a1 1 0 1 1-1-1 1 1 0 0 1 1 1Z" data-name="Path 634"/><path fill="#234580" d="M232 11a1 1 0 1 1-1-1 1 1 0 0 1 1 1Z" data-name="Path 650"/><path fill="#234580" d="M232 21a1 1 0 1 1-1-1 1 1 0 0 1 1 1Z" data-name="Path 651"/><path fill="#234580" d="M222 11a1 1 0 1 1-1-1 1 1 0 0 1 1 1Z" data-name="Path 667"/><path fill="#234580" d="M222 21a1 1 0 1 1-1-1 1 1 0 0 1 1 1Z" data-name="Path 668"/><path fill="#f5f5f5" d="M15.061 215h155.878c2.795 0 5.061 1.784 5.061 3.986v157.028c0 2.2-2.266 3.986-5.061 3.986H15.061c-2.795 0-5.061-1.784-5.061-3.986V218.986c0-2.202 2.266-3.986 5.061-3.986Z"/><g filter="url(#a)"><path fill="#f5f5f5" d="M40 30h312a10 10 0 0 1 10 10v310a10 10 0 0 1-10 10H40a10 10 0 0 1-10-10V40a10 10 0 0 1 10-10Z" data-name="body"/></g><path fill="#fff" d="M40 30h312a10 10 0 0 1 10 10v38H30V40a10 10 0 0 1 10-10Z"/><path fill="#a3a3a3" d="M297.919 104h-1.04a5.351 5.351 0 0 1-2.766-.571 1.958 1.958 0 0 1-.925-1.8 2.873 2.873 0 0 1 .076-.659 4.111 4.111 0 0 1 .2-.62l.757.283a3.367 3.367 0 0 0-.129.459 2.259 2.259 0 0 0-.051.464 1.24 1.24 0 0 0 .718 1.2 5.012 5.012 0 0 0 2.124.349h1.045q.308 0 .684-.022a3.531 3.531 0 0 0 .725-.117 1.286 1.286 0 0 0 .574-.315.815.815 0 0 0 .225-.61 5.045 5.045 0 0 0-.059-.649 6.777 6.777 0 0 0-.166-.82l.835-.225a3.572 3.572 0 0 1 .132.583q.049.33.071.615t.022.413a1.94 1.94 0 0 1-.251 1.045 1.667 1.667 0 0 1-.684.615 3.25 3.25 0 0 1-.979.3 7.766 7.766 0 0 1-1.138.082Zm0-4.79.684.679-.684.688-.679-.688Zm-1.621 0 .684.679-.684.688-.679-.688Zm4.556 7.417-.288-.776a3.243 3.243 0 0 0 1.257-.518 2.01 2.01 0 0 0 .677-.828 2.655 2.655 0 0 0 .2-1.052 4.336 4.336 0 0 0-.1-.894 8.6 8.6 0 0 0-.259-.947l.811-.273a5.965 5.965 0 0 1 .368 1.987 3.843 3.843 0 0 1-.281 1.474 2.917 2.917 0 0 1-.869 1.165 3.366 3.366 0 0 1-1.512.662Zm3.887-9.4h.835v4.717a1.284 1.284 0 0 0 .251.928 1.073 1.073 0 0 0 .764.239h.117V104h-.108a1.807 1.807 0 0 1-1.4-.5 2.25 2.25 0 0 1-.459-1.565Zm2.949 2.036q.425.3.884.627a8.461 8.461 0 0 1 .857.7 3.551 3.551 0 0 1 .645.8 1.758 1.758 0 0 1 .247.9 1.448 1.448 0 0 1-.623 1.31 3.779 3.779 0 0 1-1.985.4h-1.182v-.889h1.177a3.9 3.9 0 0 0 1.357-.168.655.655 0 0 0 .41-.671 1.051 1.051 0 0 0-.227-.63 3.567 3.567 0 0 0-.586-.608q-.359-.3-.769-.591t-.771-.574a.745.745 0 0 1-.332-.581.809.809 0 0 1 .122-.413.68.68 0 0 1 .342-.3l3.511-1.426v.864ZM318.959 104h-1.04a5.351 5.351 0 0 1-2.766-.571 1.958 1.958 0 0 1-.925-1.8 2.874 2.874 0 0 1 .076-.659 4.11 4.11 0 0 1 .2-.62l.757.283a3.367 3.367 0 0 0-.129.459 2.259 2.259 0 0 0-.051.464 1.24 1.24 0 0 0 .718 1.2 5.012 5.012 0 0 0 2.124.349h1.045q.308 0 .684-.022a3.531 3.531 0 0 0 .725-.117 1.286 1.286 0 0 0 .574-.315.815.815 0 0 0 .225-.61 5.045 5.045 0 0 0-.059-.649 6.776 6.776 0 0 0-.166-.82l.835-.225a3.573 3.573 0 0 1 .132.583q.049.33.071.615t.022.413a1.94 1.94 0 0 1-.251 1.045 1.667 1.667 0 0 1-.684.615 3.25 3.25 0 0 1-.979.3 7.766 7.766 0 0 1-1.138.082Zm0-4.79.684.679-.684.688-.679-.688Zm-1.621 0 .684.679-.684.688-.679-.688Zm5.889-1.982h.835v4.717a1.284 1.284 0 0 0 .251.928 1.073 1.073 0 0 0 .764.239h.117V104h-.117a1.807 1.807 0 0 1-1.387-.5 2.25 2.25 0 0 1-.459-1.565Zm3.276 5.884a2.507 2.507 0 0 1-.374-.671 2.2 2.2 0 0 1-.154-.8 1.713 1.713 0 0 1 .273-.947 2.008 2.008 0 0 1 .718-.674 1.926 1.926 0 0 1 .957-.249 3 3 0 0 1 1.665.605l-.327.728a2.676 2.676 0 0 0-1.284-.449 1.236 1.236 0 0 0-.8.278.9.9 0 0 0-.347.742 1.239 1.239 0 0 0 .164.64 1.622 1.622 0 0 0 .349.432.588.588 0 0 0 .257.153.6.6 0 0 0 .171-.024l2.065-.493v.889a18.59 18.59 0 0 1-2.249.549 12.026 12.026 0 0 1-2.046.179h-.522v-.889Zm6.655-.122a1.972 1.972 0 0 0 .652-.315 1.412 1.412 0 0 0 .452-.62 2.985 2.985 0 0 0 .166-1.1v-3.727h.835v3.984a3.518 3.518 0 0 0 .222 1.416.789.789 0 0 0 .779.483h.171V104h-.186a1.458 1.458 0 0 1-1.006-.315 1.815 1.815 0 0 1-.513-.876 2.408 2.408 0 0 1-1.2.9 5.326 5.326 0 0 1-1.846.291q-.2 0-.41-.01t-.425-.029v-.84l.513.032q.21.012.42.012h.349a1.409 1.409 0 0 0 .247-.022l-.078-.443q-.073-.442-.244-1.2t-.466-1.7a18.4 18.4 0 0 0-.74-1.953l.757-.352a20.959 20.959 0 0 1 .74 2.021q.3.981.479 1.765t.256 1.245Zm3.916.122q.093-.156.19-.305t.19-.3v-5.279h.835v4.106a2.9 2.9 0 0 1 2.169-1.265 2.083 2.083 0 0 1 1.008.231 1.708 1.708 0 0 1 .674.647 1.844 1.844 0 0 1 .242.95 1.715 1.715 0 0 1-.9 1.584 5.565 5.565 0 0 1-2.704.519h-2.52v-.889Zm3.428-2.158q-1.172 0-2.539 2.158h.791a5.824 5.824 0 0 0 2.075-.278.932.932 0 0 0 .684-.884.976.976 0 0 0-.278-.713.981.981 0 0 0-.728-.284Zm3.931-3.726V104h-.833v-6.772Z" data-name="Path 695"/><path fill="#a3a3a3" d="M47.1 102.666a1.406 1.406 0 0 1 .193-.728 1.448 1.448 0 0 1 .52-.52 1.406 1.406 0 0 1 .728-.193 1.406 1.406 0 0 1 .728.193 1.448 1.448 0 0 1 .52.52 1.406 1.406 0 0 1 .193.728 1.406 1.406 0 0 1-.193.728 1.448 1.448 0 0 1-.52.52 1.406 1.406 0 0 1-.728.193 1.406 1.406 0 0 1-.728-.193 1.448 1.448 0 0 1-.52-.52 1.406 1.406 0 0 1-.193-.728Zm.747 0a.668.668 0 0 0 .2.491.668.668 0 0 0 .491.2.668.668 0 0 0 .491-.2.668.668 0 0 0 .2-.491.668.668 0 0 0-.2-.491.668.668 0 0 0-.491-.2.668.668 0 0 0-.491.2.668.668 0 0 0-.199.491Zm5.1-.669a2.4 2.4 0 0 1-1.375-.325 1.322 1.322 0 0 1-.472-1.164 2.349 2.349 0 0 1 .107-.688 2.342 2.342 0 0 1 .317-.654 1.672 1.672 0 0 1 .52-.488 1.366 1.366 0 0 1 .715-.186 1.513 1.513 0 0 1 1.064.359 2.077 2.077 0 0 1 .577 1.039 7.294 7.294 0 0 1 .2 1.653q.01.337.017.776t.02.918q.012.479.027.938t.029.825h-.84l-.02-.835q-.01-.459-.017-.913l-.012-.82q-.005-.366-.01-.547a2.722 2.722 0 0 1-.4.078 3.305 3.305 0 0 1-.449.037Zm-.024-.845a3.143 3.143 0 0 0 .481-.037 1.912 1.912 0 0 0 .354-.081 4.164 4.164 0 0 0-.117-.845 1.427 1.427 0 0 0-.31-.62.736.736 0 0 0-.574-.234.627.627 0 0 0-.5.208 1.25 1.25 0 0 0-.257.484 1.751 1.751 0 0 0-.081.481.544.544 0 0 0 .229.5 1.538 1.538 0 0 0 .773.144Zm3.257.322a.634.634 0 0 1 .19-.461.622.622 0 0 1 .459-.193.622.622 0 0 1 .459.193.634.634 0 0 1 .19.461.626.626 0 0 1-.19.459.626.626 0 0 1-.459.19.634.634 0 0 1-.459-.186.621.621 0 0 1-.192-.462Zm0 2.871a.634.634 0 0 1 .19-.461.622.622 0 0 1 .459-.193.622.622 0 0 1 .459.193.634.634 0 0 1 .19.461.626.626 0 0 1-.19.459.626.626 0 0 1-.459.19.634.634 0 0 1-.459-.186.621.621 0 0 1-.192-.462Zm4.138.655h-.84v-1.108A22.073 22.073 0 0 0 59.31 101a7.348 7.348 0 0 0-.647-2.246l.771-.278a8.965 8.965 0 0 1 .7 2.478 21.8 21.8 0 0 1 .183 2.957Zm2.882 0h-.84v-1.108A22.073 22.073 0 0 0 62.2 101a7.348 7.348 0 0 0-.647-2.246l.771-.278a8.965 8.965 0 0 1 .7 2.478 21.8 21.8 0 0 1 .176 2.952Zm5.1-3.613-.19-.171.518-.669q.645.532 1.135.994a4.72 4.72 0 0 1 .769.9 1.7 1.7 0 0 1 .278.916 1.483 1.483 0 0 1-.508 1.182 1.972 1.972 0 0 1-1.338.439 2.032 2.032 0 0 1-1.348-.417 1.325 1.325 0 0 1-.5-1.062 1.977 1.977 0 0 1 .3-1.057 5.817 5.817 0 0 1 .891-1.055Zm1.68 1.934a.814.814 0 0 0-.164-.461 3.13 3.13 0 0 0-.41-.474q-.247-.237-.5-.457a6.477 6.477 0 0 0-.7.769 1.169 1.169 0 0 0-.254.71.638.638 0 0 0 .239.493 1.157 1.157 0 0 0 .771.21 1.24 1.24 0 0 0 .779-.2.72.72 0 0 0 .245-.591Zm4.609-.1a1.3 1.3 0 0 0-.056-.33 2.718 2.718 0 0 0-.134-.378l-.864-1.958.765-.355 1.108 2.607a7.119 7.119 0 0 0 .393.811 1.157 1.157 0 0 0 .332.388.676.676 0 0 0 .374.1h.205V105h-.205a1.778 1.778 0 0 1-.627-.093 1.121 1.121 0 0 1-.417-.278 3.132 3.132 0 0 1-.356-.469 2.007 2.007 0 0 1-.872.632 3.725 3.725 0 0 1-1.321.2 5.377 5.377 0 0 1-.614-.029 4.384 4.384 0 0 1-.518-.09v-.884a4.644 4.644 0 0 0 1.06.132q1.758 0 1.758-.898ZM77.066 105h-.537v-.889h.527a1.07 1.07 0 0 0 .876-.286 1.229 1.229 0 0 0 .222-.774 5.324 5.324 0 0 0-.054-.679 5.8 5.8 0 0 0-.166-.806l.835-.225a4.57 4.57 0 0 1 .166.83 7.4 7.4 0 0 1 .049.8 3.167 3.167 0 0 1-.159 1.042 1.362 1.362 0 0 1-.574.72 2.218 2.218 0 0 1-1.185.267Zm.845-5.835.708.708-.708.708-.708-.708Zm2.3-.937h.835v4.717a1.284 1.284 0 0 0 .251.928 1.073 1.073 0 0 0 .764.239h.117V105h-.117a1.807 1.807 0 0 1-1.391-.5 2.25 2.25 0 0 1-.459-1.565Zm5.189 6.884a1.939 1.939 0 0 1-.9-.212 3.7 3.7 0 0 1-.857-.642 3.2 3.2 0 0 1-.61.549 1.5 1.5 0 0 1-.833.193H82v-.889h.181a.831.831 0 0 0 .552-.188 1.853 1.853 0 0 0 .4-.486q.176-.3.349-.632a5.054 5.054 0 0 1 .388-.632 1.8 1.8 0 0 1 .52-.486 1.413 1.413 0 0 1 .754-.188 1.7 1.7 0 0 1 .945.261 1.771 1.771 0 0 1 .625.7 2.144 2.144 0 0 1 .222.981 1.752 1.752 0 0 1-.4 1.233 1.467 1.467 0 0 1-1.136.438Zm-.234-2.749a.685.685 0 0 0-.444.164 1.7 1.7 0 0 0-.361.422 4.725 4.725 0 0 0-.288.537 3.141 3.141 0 0 0 .605.5 1.359 1.359 0 0 0 .713.259.641.641 0 0 0 .723-.728 1.32 1.32 0 0 0-.251-.833.831.831 0 0 0-.701-.321Zm5.62 5.151a3.216 3.216 0 0 1-1.686-.385 2.236 2.236 0 0 1-.918-1.029 3.478 3.478 0 0 1-.282-1.408 6.154 6.154 0 0 1 .076-.852 6.262 6.262 0 0 1 .261-1.077l.776.313a7.045 7.045 0 0 0-.208.938 5.175 5.175 0 0 0-.066.708 2.425 2.425 0 0 0 .186.962 1.452 1.452 0 0 0 .632.693 2.445 2.445 0 0 0 1.223.259 3.879 3.879 0 0 0 1.257-.181 2.378 2.378 0 0 0 .806-.43.669.669 0 0 0 .281-.454.5.5 0 0 0-.2-.4 1.037 1.037 0 0 0-.657-.171h-.723a.148.148 0 0 1-.144-.081 1.24 1.24 0 0 1-.081-.219l-.132-.469a.109.109 0 0 1 .02-.076.1.1 0 0 1 .088-.037H94V105h-.2a.991.991 0 0 1 .1.278 1.661 1.661 0 0 1 .022.273 1.389 1.389 0 0 1-.188.667 2.034 2.034 0 0 1-.576.637 3.135 3.135 0 0 1-.979.474 4.8 4.8 0 0 1-1.397.186Zm6.069-9.81.684.679-.684.688-.679-.688Zm-1.621 0 .684.679-.684.688-.679-.688Zm.435 6.406a5.031 5.031 0 0 0 .891-.063.758.758 0 0 0 .5-.281 1.154 1.154 0 0 0 .159-.676 3.562 3.562 0 0 1-.486.112 3.39 3.39 0 0 1-.53.039q-1.66 0-1.66-1.362a2.764 2.764 0 0 1 .178-.972 1.93 1.93 0 0 1 .542-.8 1.335 1.335 0 0 1 .911-.317 1.4 1.4 0 0 1 .842.251 1.862 1.862 0 0 1 .566.674 3.486 3.486 0 0 1 .317.95 5.774 5.774 0 0 1 .1 1.079 4.344 4.344 0 0 1-.129 1.174 1.323 1.323 0 0 1-.413.679 1.6 1.6 0 0 1-.737.315 6.285 6.285 0 0 1-1.114.088h-1.787v-.889Zm.6-1.709a2.428 2.428 0 0 0 .447-.042q.222-.042.447-.1a4.421 4.421 0 0 0-.144-.715 1.733 1.733 0 0 0-.31-.623.667.667 0 0 0-.547-.254.623.623 0 0 0-.486.2 1.208 1.208 0 0 0-.264.479 1.8 1.8 0 0 0-.081.5.44.44 0 0 0 .242.447 1.737 1.737 0 0 0 .693.107Zm2.954-4.175h.835v4.717a1.284 1.284 0 0 0 .251.928 1.073 1.073 0 0 0 .764.239h.117v.89h-.117a1.807 1.807 0 0 1-1.392-.5 2.25 2.25 0 0 1-.459-1.565Zm2.419 6.774h-.649v-.889h.64a1.07 1.07 0 0 0 .876-.286 1.229 1.229 0 0 0 .222-.774 5.324 5.324 0 0 0-.054-.679 5.8 5.8 0 0 0-.166-.806l.835-.225a4.57 4.57 0 0 1 .166.83 7.4 7.4 0 0 1 .049.8 3.167 3.167 0 0 1-.161 1.045 1.362 1.362 0 0 1-.574.72 2.218 2.218 0 0 1-1.184.264Zm.358.747.708.708-.708.708-.708-.708Zm8.037-4.893.708.708-.708.708-.708-.708Zm.059 5.425a2.481 2.481 0 0 0 1.262-.266 1.45 1.45 0 0 0 .625-.7 2.4 2.4 0 0 0 .178-.925 4.3 4.3 0 0 0-.161-1.146q-.156-.566-.293-.928l.835-.337a8.469 8.469 0 0 1 .352 1.223 5.723 5.723 0 0 1 .12 1.13 3.363 3.363 0 0 1-.306 1.47 2.229 2.229 0 0 1-.95 1 3.384 3.384 0 0 1-1.665.361 3.216 3.216 0 0 1-1.687-.386 2.236 2.236 0 0 1-.912-1.03 3.478 3.478 0 0 1-.281-1.409 5.48 5.48 0 0 1 .107-1.062 7.37 7.37 0 0 1 .293-1.062l.776.313a9.344 9.344 0 0 0-.239.923 4.542 4.542 0 0 0-.1.918 2.4 2.4 0 0 0 .188.962 1.468 1.468 0 0 0 .632.693 2.43 2.43 0 0 0 1.224.258Zm4.146-8.052h.835v4.717a1.284 1.284 0 0 0 .251.928 1.073 1.073 0 0 0 .764.239h.117V105h-.119a1.807 1.807 0 0 1-1.39-.5 2.25 2.25 0 0 1-.459-1.565Zm5.183 6.885a1.939 1.939 0 0 1-.9-.212 3.7 3.7 0 0 1-.857-.642 3.2 3.2 0 0 1-.61.549 1.5 1.5 0 0 1-.827.193h-.205v-.889h.181a.831.831 0 0 0 .552-.188 1.853 1.853 0 0 0 .4-.486q.176-.3.349-.632a5.055 5.055 0 0 1 .392-.632 1.8 1.8 0 0 1 .52-.486 1.413 1.413 0 0 1 .751-.187 1.7 1.7 0 0 1 .945.261 1.771 1.771 0 0 1 .625.7 2.144 2.144 0 0 1 .222.981 1.752 1.752 0 0 1-.4 1.233 1.467 1.467 0 0 1-1.138.437Zm-.235-2.749a.685.685 0 0 0-.444.164 1.7 1.7 0 0 0-.361.422 4.725 4.725 0 0 0-.288.537 3.141 3.141 0 0 0 .605.5 1.359 1.359 0 0 0 .713.259.641.641 0 0 0 .723-.728 1.32 1.32 0 0 0-.251-.833.831.831 0 0 0-.697-.321Zm3.4-2.388.708.708-.708.708-.708-.708Zm-1.735 7.652-.288-.776a3.243 3.243 0 0 0 1.257-.518 2.01 2.01 0 0 0 .676-.828 2.655 2.655 0 0 0 .2-1.052 4.336 4.336 0 0 0-.1-.894 8.6 8.6 0 0 0-.259-.947l.811-.273a5.965 5.965 0 0 1 .365 1.987 3.843 3.843 0 0 1-.281 1.474 2.917 2.917 0 0 1-.869 1.165 3.366 3.366 0 0 1-1.512.662Z" data-name="Path 696"/><path fill="#525252" d="M295.517 300.466a3.216 3.216 0 0 1-1.687-.386 2.236 2.236 0 0 1-.913-1.028 3.478 3.478 0 0 1-.281-1.409 5.48 5.48 0 0 1 .107-1.062 7.37 7.37 0 0 1 .293-1.062l.776.313a9.344 9.344 0 0 0-.239.923 4.542 4.542 0 0 0-.1.918 2.4 2.4 0 0 0 .188.962 1.468 1.468 0 0 0 .632.693 2.43 2.43 0 0 0 1.221.259 3.981 3.981 0 0 0 1.228-.173 2.293 2.293 0 0 0 .84-.449.791.791 0 0 0 .308-.584.512.512 0 0 0-.09-.293.378.378 0 0 0-.337-.137h-.791a1.257 1.257 0 0 1-1.016-.351 1.472 1.472 0 0 1-.291-.969 2.66 2.66 0 0 1 .264-1.184 2.135 2.135 0 0 1 .752-.862 2.053 2.053 0 0 1 1.157-.322 2.261 2.261 0 0 1 .535.068 1.762 1.762 0 0 1 .564.259l-.278.742a1.791 1.791 0 0 0-.82-.2 1.174 1.174 0 0 0-.969.435 1.638 1.638 0 0 0-.349 1.06.5.5 0 0 0 .093.334.5.5 0 0 0 .376.1h.82a1.035 1.035 0 0 1 .92.364 1.615 1.615 0 0 1 .247.925 1.681 1.681 0 0 1-.359 1.023 2.52 2.52 0 0 1-1.062.781 4.432 4.432 0 0 1-1.739.312Zm3.872.161-.288-.776a3.243 3.243 0 0 0 1.257-.518 2.01 2.01 0 0 0 .671-.828 2.655 2.655 0 0 0 .205-1.052 4.336 4.336 0 0 0-.1-.894 8.6 8.6 0 0 0-.259-.947l.811-.273a5.965 5.965 0 0 1 .364 1.987 3.843 3.843 0 0 1-.281 1.474 2.917 2.917 0 0 1-.869 1.165 3.366 3.366 0 0 1-1.511.662Zm3.887-9.4h.835v4.717a1.284 1.284 0 0 0 .251.928 1.073 1.073 0 0 0 .764.239h.117V298h-.117a1.807 1.807 0 0 1-1.392-.5 2.25 2.25 0 0 1-.459-1.565Zm1.768 5.884h.737a1.08 1.08 0 0 0 .886-.327 1.393 1.393 0 0 0 .266-.9q0-.234-.012-.444t-.032-.42l.815-.1.078 1.143a1.26 1.26 0 0 0 .276.759.886.886 0 0 0 .715.291h.1V298h-.107a1.671 1.671 0 0 1-.866-.2 1.465 1.465 0 0 1-.525-.552 1.552 1.552 0 0 1-.693.566 2.3 2.3 0 0 1-.9.181h-.737Zm1.762 1.665.684.679-.684.688-.679-.688Zm-1.621 0 .684.679-.684.688-.679-.688Zm5.645-6.157.684.679-.684.688-.68-.686Zm-1.621 0 .684.679-.684.688-.679-.688Zm-.527 4.492h.684a1.08 1.08 0 0 0 .886-.327 1.393 1.393 0 0 0 .266-.9q0-.234-.012-.444t-.032-.42l.815-.1.078 1.143a1.26 1.26 0 0 0 .276.759.886.886 0 0 0 .715.291h.1V298h-.107a1.671 1.671 0 0 1-.867-.2 1.465 1.465 0 0 1-.525-.552 1.552 1.552 0 0 1-.693.566 2.3 2.3 0 0 1-.9.181h-.684Zm6.626-5.459.708.708-.708.708-.708-.708Zm-3.034 5.459h.82a4.953 4.953 0 0 0 1.438-.2 8.636 8.636 0 0 0 1.333-.53q.662-.327 1.389-.708-.186-.068-.315-.122t-.276-.12q-.146-.066-.386-.159-.518-.215-.857-.337a1.692 1.692 0 0 0-.525-.122 1.063 1.063 0 0 0-.574.173 1.8 1.8 0 0 0-.466.417l-.132.166-.747-.366.073-.117a2.661 2.661 0 0 1 .8-.837 1.867 1.867 0 0 1 1.051-.316 2.179 2.179 0 0 1 .706.134 7.827 7.827 0 0 1 .842.354 11.905 11.905 0 0 0 1.311.566 3.609 3.609 0 0 0 .969.205v.845a2.752 2.752 0 0 0-.75.22q-.437.186-1.213.6-.625.332-1.208.591a7.152 7.152 0 0 1-1.187.408 5.374 5.374 0 0 1-1.29.144h-.806Zm8.462-5.884V298h-.836v-6.772Zm6.5 9.194a2.974 2.974 0 0 1-1.48-.321 1.974 1.974 0 0 1-.84-.906 3.182 3.182 0 0 1-.269-1.348 5.48 5.48 0 0 1 .107-1.062 7.37 7.37 0 0 1 .293-1.062l.776.313a9.344 9.344 0 0 0-.239.923 4.542 4.542 0 0 0-.1.918 1.754 1.754 0 0 0 .4 1.23 1.756 1.756 0 0 0 1.345.439 1.7 1.7 0 0 0 1.316-.479 2.232 2.232 0 0 0 .442-1.543v-6.295h.835V296a1.435 1.435 0 0 0 .2.828.912.912 0 0 0 .789.281h.142V298h-.132a2.215 2.215 0 0 1-.452-.037.8.8 0 0 1-.288-.12 2.4 2.4 0 0 1-.261-.215 2.936 2.936 0 0 1-.664 2.095 2.53 2.53 0 0 1-1.921.699Zm3.53-3.311h1.074a1.08 1.08 0 0 0 .886-.327 1.393 1.393 0 0 0 .266-.9q0-.234-.012-.444t-.032-.42l.815-.1.078 1.143a1.26 1.26 0 0 0 .276.759.886.886 0 0 0 .715.291h.1V298h-.107a1.671 1.671 0 0 1-.867-.2 1.465 1.465 0 0 1-.525-.552 1.552 1.552 0 0 1-.693.566 2.3 2.3 0 0 1-.9.181h-1.074Zm2.094 1.666.684.679-.684.688-.679-.688Zm-1.621 0 .684.679-.684.688-.679-.688Zm3.711-.776h-.205v-.889h.181a.831.831 0 0 0 .552-.188 1.853 1.853 0 0 0 .4-.486q.176-.3.349-.632a5.054 5.054 0 0 1 .388-.632 1.8 1.8 0 0 1 .52-.486 1.413 1.413 0 0 1 .755-.187 1.53 1.53 0 0 1 1.191.466 2.429 2.429 0 0 1 .571 1.16 1.49 1.49 0 0 0 .334.732.73.73 0 0 0 .549.254h.127V298h-.132a1.518 1.518 0 0 1-.61-.129 1.087 1.087 0 0 1-.483-.413 1.592 1.592 0 0 1-.508.476 1.536 1.536 0 0 1-.786.178 1.939 1.939 0 0 1-.9-.212 3.7 3.7 0 0 1-.857-.642 3.2 3.2 0 0 1-.61.549 1.5 1.5 0 0 1-.826.193Zm2.959-2.637a.685.685 0 0 0-.444.164 1.7 1.7 0 0 0-.361.422 4.725 4.725 0 0 0-.288.537 3.836 3.836 0 0 0 .322.3 2.845 2.845 0 0 0 .313.225 1.361 1.361 0 0 0 .684.239.641.641 0 0 0 .723-.728 1.32 1.32 0 0 0-.258-.834.831.831 0 0 0-.691-.325Zm3.369 2.637h-.82v-.889h.811a1.07 1.07 0 0 0 .876-.286 1.229 1.229 0 0 0 .222-.774 5.324 5.324 0 0 0-.054-.679 5.8 5.8 0 0 0-.166-.806l.835-.225a4.57 4.57 0 0 1 .166.83 7.4 7.4 0 0 1 .049.8 3.167 3.167 0 0 1-.158 1.045 1.362 1.362 0 0 1-.574.72 2.218 2.218 0 0 1-1.187.264Zm.942.776.684.679-.684.688-.679-.688Zm-1.62 0 .684.679-.684.688-.679-.688Zm4.658-7.548V298h-.835v-6.772Z" data-name="Path 677"/><path fill="#525252" d="M312.2 269.515a3.216 3.216 0 0 1-1.687-.386 2.236 2.236 0 0 1-.913-1.029 3.478 3.478 0 0 1-.28-1.408 6.154 6.154 0 0 1 .08-.852 6.262 6.262 0 0 1 .261-1.077l.776.313a7.045 7.045 0 0 0-.208.938 5.175 5.175 0 0 0-.066.708 2.425 2.425 0 0 0 .186.962 1.452 1.452 0 0 0 .632.693 2.445 2.445 0 0 0 1.223.259 3.879 3.879 0 0 0 1.257-.181 2.378 2.378 0 0 0 .806-.43.669.669 0 0 0 .281-.454.5.5 0 0 0-.2-.4 1.037 1.037 0 0 0-.662-.171h-.723a.148.148 0 0 1-.142-.085 1.24 1.24 0 0 1-.083-.215l-.132-.469a.109.109 0 0 1 .02-.076.1.1 0 0 1 .088-.037h2.705V267h-.2a.991.991 0 0 1 .1.278 1.661 1.661 0 0 1 .022.273 1.389 1.389 0 0 1-.188.667 2.034 2.034 0 0 1-.576.637 3.135 3.135 0 0 1-.979.474 4.8 4.8 0 0 1-1.398.186Zm5.176-7.9.684.679-.684.688-.676-.682Zm-1.621 0 .684.679-.684.688-.679-.688Zm-.527 4.492h.684a1.08 1.08 0 0 0 .886-.327 1.393 1.393 0 0 0 .266-.9q0-.234-.012-.444t-.032-.42l.815-.1.078 1.143a1.26 1.26 0 0 0 .276.759.886.886 0 0 0 .715.291h.1V267h-.104a1.671 1.671 0 0 1-.867-.2 1.465 1.465 0 0 1-.533-.547 1.552 1.552 0 0 1-.693.566 2.3 2.3 0 0 1-.9.181h-.684Zm3.574 0h.737a1.08 1.08 0 0 0 .886-.327 1.393 1.393 0 0 0 .266-.9q0-.234-.012-.444t-.032-.42l.815-.1.078 1.143a1.26 1.26 0 0 0 .276.759.886.886 0 0 0 .715.291h.1V267h-.107a1.671 1.671 0 0 1-.867-.2 1.465 1.465 0 0 1-.525-.552 1.552 1.552 0 0 1-.693.566 2.3 2.3 0 0 1-.9.181h-.739Zm1.763 1.669.684.679-.684.688-.679-.688Zm-1.621 0 .684.679-.684.688-.679-.688Zm5.073-3.76.815-.1.078 1.143a1.26 1.26 0 0 0 .276.759.886.886 0 0 0 .715.291h.1V267h-.107a1.671 1.671 0 0 1-.867-.2 1.465 1.465 0 0 1-.527-.547 1.552 1.552 0 0 1-.693.566 2.3 2.3 0 0 1-.9.181h-.459v-.889h.459a1.08 1.08 0 0 0 .886-.327 1.393 1.393 0 0 0 .266-.9q0-.234-.012-.444t-.029-.423Zm.093-2.416.708.708-.708.708-.708-.708Zm5.108 5.512a1.939 1.939 0 0 1-.9-.212 3.7 3.7 0 0 1-.857-.642 3.2 3.2 0 0 1-.61.549 1.5 1.5 0 0 1-.827.193h-.205v-.889H326a.831.831 0 0 0 .552-.188 1.853 1.853 0 0 0 .4-.486q.176-.3.349-.632a5.055 5.055 0 0 1 .388-.632 1.8 1.8 0 0 1 .52-.486 1.413 1.413 0 0 1 .754-.188 1.7 1.7 0 0 1 .945.261 1.771 1.771 0 0 1 .625.7 2.144 2.144 0 0 1 .222.981 1.752 1.752 0 0 1-.4 1.233 1.467 1.467 0 0 1-1.137.438Zm-.234-2.749a.685.685 0 0 0-.444.164 1.7 1.7 0 0 0-.361.422 4.725 4.725 0 0 0-.288.537 3.141 3.141 0 0 0 .605.5 1.359 1.359 0 0 0 .713.259.641.641 0 0 0 .723-.728 1.32 1.32 0 0 0-.251-.833.831.831 0 0 0-.698-.321Zm3.833-4.136V267h-.835v-6.772Zm6.724 5a1.3 1.3 0 0 0-.056-.33 2.718 2.718 0 0 0-.134-.378l-.864-1.958.762-.356 1.108 2.607a7.119 7.119 0 0 0 .393.811 1.157 1.157 0 0 0 .332.388.676.676 0 0 0 .374.1h.205V267h-.205a1.778 1.778 0 0 1-.627-.093 1.121 1.121 0 0 1-.417-.278 3.132 3.132 0 0 1-.359-.469 2.007 2.007 0 0 1-.872.632 3.725 3.725 0 0 1-1.321.208 5.377 5.377 0 0 1-.615-.032 4.384 4.384 0 0 1-.518-.09v-.884a4.644 4.644 0 0 0 1.06.132q1.753-.005 1.753-.903Zm3.1-2.959q.425.3.884.627a8.46 8.46 0 0 1 .857.7 3.551 3.551 0 0 1 .645.8 1.758 1.758 0 0 1 .247.9 1.448 1.448 0 0 1-.634 1.305 3.779 3.779 0 0 1-1.985.4h-1.181v-.889h1.176a3.9 3.9 0 0 0 1.357-.168.655.655 0 0 0 .41-.671 1.051 1.051 0 0 0-.227-.63 3.568 3.568 0 0 0-.59-.608q-.359-.3-.769-.591t-.771-.574a.745.745 0 0 1-.332-.581.809.809 0 0 1 .122-.413.68.68 0 0 1 .342-.3l3.515-1.421v.864Z" data-name="Path 678"/><path fill="#525252" d="M302.763 229.228h.835v4.717a1.284 1.284 0 0 0 .251.928 1.073 1.073 0 0 0 .764.239h.117V236h-.117a1.807 1.807 0 0 1-1.392-.5 2.25 2.25 0 0 1-.459-1.565Zm7.651.459.708.708-.708.708-.708-.708ZM308.92 236h-.259a4.89 4.89 0 0 1-1.577-.2 1.452 1.452 0 0 1-.767-.547 1.81 1.81 0 0 1-.637.564 2.1 2.1 0 0 1-.94.183h-.19v-.889h.186a1.055 1.055 0 0 0 .92-.339 1.526 1.526 0 0 0 .237-.891q0-.234-.017-.435t-.027-.43l.815-.1.073 1.143a2.09 2.09 0 0 0 .137.613q.112.286.347.286a8.515 8.515 0 0 1 1.711-2.19 2.61 2.61 0 0 1 1.677-.706 1.991 1.991 0 0 1 .989.242 1.772 1.772 0 0 1 .676.657 1.814 1.814 0 0 1 .244.938 1.823 1.823 0 0 1-.376 1.118 3.581 3.581 0 0 0 .369.063 5.683 5.683 0 0 0 .671.029h.142V236h-.137a3.465 3.465 0 0 1-1.023-.127 2 2 0 0 1-.676-.352 3.564 3.564 0 0 1-1.055.352 8.047 8.047 0 0 1-1.513.127Zm1.733-3.047q-1.177 0-2.544 2.158h.791a5.824 5.824 0 0 0 2.075-.278.932.932 0 0 0 .684-.884.98.98 0 0 0-.276-.713.973.973 0 0 0-.73-.283Zm5.962-3.159.684.679-.684.688-.679-.688Zm-1.621 0 .684.679-.684.688-.679-.688Zm2.632 3.906a1.449 1.449 0 0 1-.183.715 4.119 4.119 0 0 1-.481.676q.278.015.493.017h.85V236h-.454q-.186 0-.51-.032a7.178 7.178 0 0 1-.713-.11 5.713 5.713 0 0 1-.764-.21 5.008 5.008 0 0 1-.771.212q-.4.076-.732.107t-.539.033h-.674v-.889h1.101q.222 0 .54-.022a3.736 3.736 0 0 1-.471-.679 1.513 1.513 0 0 1-.178-.718 1.462 1.462 0 0 1 .144-.615 2.21 2.21 0 0 1 .391-.579 2.076 2.076 0 0 1 .557-.43 1.35 1.35 0 0 1 .637-.164 1.407 1.407 0 0 1 .657.164 2.084 2.084 0 0 1 .564.43 2.166 2.166 0 0 1 .393.581 1.488 1.488 0 0 1 .143.621Zm-1.758-.933a.7.7 0 0 0-.393.144 1.361 1.361 0 0 0-.354.361.776.776 0 0 0-.146.437.9.9 0 0 0 .139.459 1.97 1.97 0 0 0 .347.43 1.837 1.837 0 0 0 .417.3 1.607 1.607 0 0 0 .645-.505 1.129 1.129 0 0 0 .273-.7.741.741 0 0 0-.151-.422 1.415 1.415 0 0 0-.366-.364.734.734 0 0 0-.411-.139Zm2.793 3.233h-.537v-.889h.527a1.07 1.07 0 0 0 .876-.286 1.229 1.229 0 0 0 .222-.774 5.324 5.324 0 0 0-.054-.679 5.8 5.8 0 0 0-.166-.806l.835-.225a4.57 4.57 0 0 1 .166.83 7.4 7.4 0 0 1 .049.8 3.167 3.167 0 0 1-.159 1.042 1.362 1.362 0 0 1-.574.72 2.218 2.218 0 0 1-1.185.267Zm.845-5.835.708.708-.708.708-.708-.708Zm3.135-.937V236h-.835v-6.772Zm6.25.254.708.708-.708.708-.708-.708Zm-2.334 7.372a2.8 2.8 0 0 1 .437-1.506 3.875 3.875 0 0 1 1.286-1.225 6.707 6.707 0 0 1 2.09-.8q-.161-.059-.31-.127t-.33-.137q-.488-.2-.8-.31a1.54 1.54 0 0 0-.493-.115 1.074 1.074 0 0 0-.574.171 1.761 1.761 0 0 0-.466.415l-.137.176-.752-.371.078-.122a2.65 2.65 0 0 1 .8-.837 1.878 1.878 0 0 1 1.055-.315 2.158 2.158 0 0 1 .7.134 7.943 7.943 0 0 1 .84.354 12.321 12.321 0 0 0 1.311.569 3.558 3.558 0 0 0 .969.208v.84a8.306 8.306 0 0 0-1.064.137 1.265 1.265 0 0 0 .178.754.809.809 0 0 0 .525.3 4.781 4.781 0 0 0 .845.063h.386v.89h-.371a4.4 4.4 0 0 1-1.26-.154 1.3 1.3 0 0 1-.757-.559 2.194 2.194 0 0 1-.251-1.152 5.413 5.413 0 0 0-2.341 1.157 2.114 2.114 0 0 0-.769 1.519 1.426 1.426 0 0 0 .671 1.282 3.566 3.566 0 0 0 1.926.432 6.053 6.053 0 0 0 1.13-.11 4.565 4.565 0 0 0 1.082-.344l.22.815a4.933 4.933 0 0 1-1.169.364 7.153 7.153 0 0 1-1.335.125 5.106 5.106 0 0 1-1.7-.266 2.6 2.6 0 0 1-1.207-.826 2.216 2.216 0 0 1-.443-1.429Zm6.387-1.743h1.343a1.07 1.07 0 0 0 .876-.286 1.229 1.229 0 0 0 .222-.774 5.324 5.324 0 0 0-.054-.679 5.8 5.8 0 0 0-.166-.806l.835-.223a4.57 4.57 0 0 1 .166.83 7.4 7.4 0 0 1 .049.8 3.167 3.167 0 0 1-.159 1.043 1.362 1.362 0 0 1-.574.72 2.218 2.218 0 0 1-1.182.264h-1.353Zm2.294 1.665.684.679-.684.688-.679-.688Zm-1.621 0 .684.679-.684.688-.679-.688Zm3.311 1.851-.288-.776a3.243 3.243 0 0 0 1.26-.518 2.01 2.01 0 0 0 .668-.828 2.655 2.655 0 0 0 .205-1.052 4.336 4.336 0 0 0-.1-.894 8.6 8.6 0 0 0-.259-.947l.811-.273a5.965 5.965 0 0 1 .364 1.987 3.843 3.843 0 0 1-.281 1.474 2.917 2.917 0 0 1-.869 1.165 3.366 3.366 0 0 1-1.511.662Zm3.887-9.4h.835v4.717a1.284 1.284 0 0 0 .251.928 1.073 1.073 0 0 0 .764.239h.117V236h-.117a1.807 1.807 0 0 1-1.392-.5 2.25 2.25 0 0 1-.459-1.565Zm4.17.967.684.679-.684.688-.679-.688Zm-1.621 0 .684.679-.684.688-.679-.688Zm-.772 4.917h1a1.07 1.07 0 0 0 .876-.286 1.229 1.229 0 0 0 .222-.774 5.324 5.324 0 0 0-.054-.679 5.8 5.8 0 0 0-.166-.806l.83-.223a4.57 4.57 0 0 1 .166.83 7.4 7.4 0 0 1 .049.8 3.167 3.167 0 0 1-.157 1.043 1.362 1.362 0 0 1-.574.72 2.218 2.218 0 0 1-1.184.264h-1.008Z" data-name="Path 679"/><path fill="#525252" d="M319.44 202.51a3.668 3.668 0 0 1 .46-1.835 3.342 3.342 0 0 1 1.255-1.275 3.46 3.46 0 0 1 1.765-.46 3.581 3.581 0 0 1 1.99.55 3.152 3.152 0 0 1 1.24 1.56h-1.09a2.189 2.189 0 0 0-.835-.97 2.416 2.416 0 0 0-1.305-.34 2.542 2.542 0 0 0-1.31.34 2.378 2.378 0 0 0-.91.965 3.094 3.094 0 0 0-.33 1.465 3.072 3.072 0 0 0 .33 1.455 2.378 2.378 0 0 0 .91.965 2.542 2.542 0 0 0 1.31.34 2.444 2.444 0 0 0 1.305-.335 2.157 2.157 0 0 0 .835-.965h1.09a3.129 3.129 0 0 1-1.24 1.545 3.606 3.606 0 0 1-1.99.545 3.49 3.49 0 0 1-1.765-.46 3.315 3.315 0 0 1-1.255-1.26 3.64 3.64 0 0 1-.46-1.83Zm13.82-3.48-2.63 6.97h-1.05l-2.63-6.97h.97l2.19 6.01 2.19-6.01Zm6.76 0-2.63 6.97h-1.05l-2.63-6.97h.97l2.19 6.01 2.19-6.01Zm.74 6.24q1.27-1.02 1.99-1.675a8.074 8.074 0 0 0 1.215-1.37 2.468 2.468 0 0 0 .5-1.4 1.544 1.544 0 0 0-.315-1.025 1.255 1.255 0 0 0-1.02-.38 1.333 1.333 0 0 0-1.055.425 1.772 1.772 0 0 0-.4 1.135h-.88a2.4 2.4 0 0 1 .68-1.73 2.294 2.294 0 0 1 1.65-.61 2.288 2.288 0 0 1 1.635.57 2.053 2.053 0 0 1 .6 1.57 2.991 2.991 0 0 1-.5 1.615 7.08 7.08 0 0 1-1.12 1.38q-.63.6-1.61 1.385h3.44v.76h-4.81Z" data-name="Path 686"/><path fill="#525252" d="M306.571 176.515a3.216 3.216 0 0 1-1.687-.386 2.236 2.236 0 0 1-.913-1.029 3.478 3.478 0 0 1-.281-1.408 6.154 6.154 0 0 1 .076-.852 6.262 6.262 0 0 1 .261-1.077l.776.313a7.045 7.045 0 0 0-.208.938 5.175 5.175 0 0 0-.066.708 2.425 2.425 0 0 0 .186.962 1.452 1.452 0 0 0 .632.693 2.445 2.445 0 0 0 1.223.259 3.879 3.879 0 0 0 1.257-.181 2.378 2.378 0 0 0 .806-.43.669.669 0 0 0 .281-.454.5.5 0 0 0-.2-.4 1.037 1.037 0 0 0-.658-.171h-.723a.148.148 0 0 1-.142-.085 1.24 1.24 0 0 1-.083-.215l-.132-.469a.109.109 0 0 1 .024-.078.1.1 0 0 1 .088-.037h2.705V174h-.2a.991.991 0 0 1 .1.278 1.661 1.661 0 0 1 .022.273 1.389 1.389 0 0 1-.188.667 2.034 2.034 0 0 1-.576.637 3.135 3.135 0 0 1-.979.474 4.8 4.8 0 0 1-1.401.186Zm5.176-7.9.684.679-.684.688-.679-.688Zm-1.621 0 .684.679-.684.688-.679-.688Zm-.526 4.496h.684a1.08 1.08 0 0 0 .886-.327 1.393 1.393 0 0 0 .266-.9q0-.234-.012-.444t-.032-.42l.815-.1.078 1.143a1.26 1.26 0 0 0 .276.759.886.886 0 0 0 .715.291h.1V174h-.107a1.671 1.671 0 0 1-.869-.2 1.465 1.465 0 0 1-.525-.552 1.552 1.552 0 0 1-.693.566 2.3 2.3 0 0 1-.9.181h-.682Zm4.129.889h-.537v-.889h.527a1.07 1.07 0 0 0 .876-.286 1.229 1.229 0 0 0 .222-.774 5.324 5.324 0 0 0-.054-.679 5.8 5.8 0 0 0-.166-.806l.835-.225a4.57 4.57 0 0 1 .166.83 7.4 7.4 0 0 1 .049.8 3.167 3.167 0 0 1-.157 1.045 1.362 1.362 0 0 1-.574.72 2.218 2.218 0 0 1-1.187.264Zm.845-5.835.708.708-.708.708-.708-.708Zm4.619 5.835a1.456 1.456 0 0 1-.554-.09 1.415 1.415 0 0 1-.344-.193 3.191 3.191 0 0 1-.335 1.238 3.052 3.052 0 0 1-.876 1.064 3.182 3.182 0 0 1-1.44.6l-.288-.771a3.243 3.243 0 0 0 1.257-.518 2.01 2.01 0 0 0 .671-.828 2.655 2.655 0 0 0 .205-1.052 4.336 4.336 0 0 0-.1-.894 8.6 8.6 0 0 0-.259-.947l.811-.273.264 1.021a1 1 0 0 0 .342.581.977.977 0 0 0 .591.171h.181V174Zm2.085-5.381.684.679-.684.688-.678-.686Zm-1.621 0 .684.679-.684.688-.679-.688Zm-.527 4.492h.684a1.08 1.08 0 0 0 .886-.327 1.393 1.393 0 0 0 .266-.9q0-.234-.012-.444t-.032-.42l.815-.1.078 1.143a1.26 1.26 0 0 0 .276.759.886.886 0 0 0 .715.291h.1V174h-.106a1.671 1.671 0 0 1-.867-.2 1.465 1.465 0 0 1-.525-.552 1.552 1.552 0 0 1-.693.566 2.3 2.3 0 0 1-.9.181h-.684Zm5.161-2.095.815-.1.078 1.143a1.26 1.26 0 0 0 .276.759.886.886 0 0 0 .715.291h.1V174h-.107a1.671 1.671 0 0 1-.868-.2 1.465 1.465 0 0 1-.525-.552 1.552 1.552 0 0 1-.693.566 2.3 2.3 0 0 1-.9.181h-.459v-.884h.459a1.08 1.08 0 0 0 .886-.327 1.393 1.393 0 0 0 .266-.9q0-.234-.012-.444t-.031-.423Zm.093-2.417.708.708-.708.708-.708-.708Zm2.51 5.4h-.82v-.888h.811a1.07 1.07 0 0 0 .876-.286 1.229 1.229 0 0 0 .222-.774 5.324 5.324 0 0 0-.054-.679 5.8 5.8 0 0 0-.166-.806l.835-.225a4.57 4.57 0 0 1 .166.83 7.4 7.4 0 0 1 .049.8 3.167 3.167 0 0 1-.159 1.042 1.362 1.362 0 0 1-.574.72 2.218 2.218 0 0 1-1.186.267Zm.942.776.684.679-.684.688-.679-.688Zm-1.621 0 .684.679-.684.688-.679-.688Zm4.658-7.549V174h-.835v-6.772Zm5.4 1.748.708.708-.708.708-.708-.708ZM338.08 174a1.456 1.456 0 0 1-.554-.09 1.415 1.415 0 0 1-.344-.193 3.191 3.191 0 0 1-.335 1.238 3.052 3.052 0 0 1-.876 1.064 3.182 3.182 0 0 1-1.44.6l-.288-.771a3.243 3.243 0 0 0 1.257-.515 2.01 2.01 0 0 0 .671-.828 2.655 2.655 0 0 0 .205-1.052 4.336 4.336 0 0 0-.1-.894 8.6 8.6 0 0 0-.259-.947l.811-.273.264 1.021a1 1 0 0 0 .342.581.977.977 0 0 0 .591.171h.181V174Zm3.345.112a1.939 1.939 0 0 1-.9-.212 3.7 3.7 0 0 1-.857-.642 3.2 3.2 0 0 1-.61.549 1.5 1.5 0 0 1-.827.193h-.205v-.889h.181a.831.831 0 0 0 .552-.188 1.853 1.853 0 0 0 .4-.486q.176-.3.349-.632a5.055 5.055 0 0 1 .392-.632 1.8 1.8 0 0 1 .52-.486 1.413 1.413 0 0 1 .751-.187 1.7 1.7 0 0 1 .945.261 1.771 1.771 0 0 1 .625.7 2.144 2.144 0 0 1 .222.981 1.752 1.752 0 0 1-.4 1.233 1.467 1.467 0 0 1-1.138.437Zm-.235-2.749a.685.685 0 0 0-.444.164 1.7 1.7 0 0 0-.361.422 4.725 4.725 0 0 0-.288.537 3.141 3.141 0 0 0 .605.5 1.359 1.359 0 0 0 .713.259.641.641 0 0 0 .723-.728 1.32 1.32 0 0 0-.251-.833.831.831 0 0 0-.697-.321Zm1.665 5.264-.288-.776a3.243 3.243 0 0 0 1.257-.518 2.01 2.01 0 0 0 .676-.828 2.655 2.655 0 0 0 .2-1.052 4.336 4.336 0 0 0-.1-.894 8.6 8.6 0 0 0-.259-.947l.811-.273a5.965 5.965 0 0 1 .365 1.987 3.843 3.843 0 0 1-.281 1.474 2.917 2.917 0 0 1-.869 1.165 3.366 3.366 0 0 1-1.512.662Z" data-name="Path 688"/><path fill="#525252" d="M305.858 143h-1.04a5.351 5.351 0 0 1-2.766-.571 1.958 1.958 0 0 1-.925-1.8 2.873 2.873 0 0 1 .076-.659 4.111 4.111 0 0 1 .2-.62l.757.283a3.367 3.367 0 0 0-.129.459 2.259 2.259 0 0 0-.051.464 1.24 1.24 0 0 0 .718 1.2 5.012 5.012 0 0 0 2.124.349h1.045q.308 0 .684-.022a3.531 3.531 0 0 0 .725-.117 1.286 1.286 0 0 0 .574-.315.815.815 0 0 0 .225-.61 5.045 5.045 0 0 0-.059-.649 6.777 6.777 0 0 0-.166-.82l.835-.225a3.572 3.572 0 0 1 .132.583q.049.33.071.615t.022.413a1.94 1.94 0 0 1-.251 1.045 1.667 1.667 0 0 1-.684.615 3.25 3.25 0 0 1-.979.3 7.766 7.766 0 0 1-1.138.082Zm0-4.79.684.679-.684.688-.679-.688Zm-1.621 0 .684.679-.684.688-.679-.688Zm4.563 7.417-.288-.776a3.243 3.243 0 0 0 1.257-.518 2.01 2.01 0 0 0 .671-.828 2.655 2.655 0 0 0 .205-1.052 4.336 4.336 0 0 0-.1-.894 8.6 8.6 0 0 0-.259-.947l.811-.273a5.965 5.965 0 0 1 .361 1.987 3.843 3.843 0 0 1-.28 1.474 2.917 2.917 0 0 1-.869 1.165 3.366 3.366 0 0 1-1.509.662Zm3.887-9.4h.835v4.717a1.284 1.284 0 0 0 .251.928 1.073 1.073 0 0 0 .764.239h.117V143h-.117a1.807 1.807 0 0 1-1.392-.5 2.25 2.25 0 0 1-.459-1.565Zm2.949 2.036q.425.3.884.627a8.46 8.46 0 0 1 .857.7 3.551 3.551 0 0 1 .645.8 1.758 1.758 0 0 1 .247.9 1.448 1.448 0 0 1-.631 1.31 3.779 3.779 0 0 1-1.985.4h-1.182v-.889h1.177a3.9 3.9 0 0 0 1.357-.168.655.655 0 0 0 .41-.671 1.051 1.051 0 0 0-.227-.63 3.567 3.567 0 0 0-.586-.608q-.359-.3-.769-.591t-.771-.574a.745.745 0 0 1-.332-.581.809.809 0 0 1 .122-.413.68.68 0 0 1 .342-.3l3.511-1.426v.864Zm7.715 1.123-.19-.171.518-.669q.645.532 1.135.994a4.72 4.72 0 0 1 .769.9 1.7 1.7 0 0 1 .278.916 1.483 1.483 0 0 1-.508 1.182 1.972 1.972 0 0 1-1.338.439 2.032 2.032 0 0 1-1.348-.417 1.325 1.325 0 0 1-.5-1.062 1.978 1.978 0 0 1 .3-1.057 5.816 5.816 0 0 1 .882-1.054Zm1.68 1.934a.814.814 0 0 0-.164-.461 3.13 3.13 0 0 0-.41-.474q-.247-.237-.5-.457a6.477 6.477 0 0 0-.7.769 1.169 1.169 0 0 0-.254.71.638.638 0 0 0 .239.493 1.157 1.157 0 0 0 .771.21 1.24 1.24 0 0 0 .779-.2.72.72 0 0 0 .236-.59Zm.723 4.307-.288-.776a3.243 3.243 0 0 0 1.257-.518 2.01 2.01 0 0 0 .671-.828 2.655 2.655 0 0 0 .206-1.052 4.336 4.336 0 0 0-.1-.894 8.6 8.6 0 0 0-.259-.947l.811-.273a5.965 5.965 0 0 1 .361 1.987 3.843 3.843 0 0 1-.282 1.474 2.917 2.917 0 0 1-.869 1.165 3.366 3.366 0 0 1-1.511.662Zm3.887-9.4h.835v4.717a1.284 1.284 0 0 0 .251.928 1.073 1.073 0 0 0 .764.239h.117V143h-.117a1.807 1.807 0 0 1-1.391-.5 2.25 2.25 0 0 1-.459-1.565ZM331.63 143h-.205v-.889h.181a.831.831 0 0 0 .552-.188 1.853 1.853 0 0 0 .4-.486q.176-.3.349-.632a5.054 5.054 0 0 1 .388-.632 1.8 1.8 0 0 1 .52-.486 1.413 1.413 0 0 1 .754-.188 1.53 1.53 0 0 1 1.191.466 2.429 2.429 0 0 1 .571 1.16 1.49 1.49 0 0 0 .334.732.73.73 0 0 0 .549.254h.127V143h-.132a1.518 1.518 0 0 1-.609-.129 1.087 1.087 0 0 1-.483-.413 1.592 1.592 0 0 1-.508.476 1.536 1.536 0 0 1-.786.178 1.939 1.939 0 0 1-.9-.212 3.7 3.7 0 0 1-.857-.642 3.2 3.2 0 0 1-.61.549 1.5 1.5 0 0 1-.826.193Zm2.959-2.637a.685.685 0 0 0-.444.164 1.7 1.7 0 0 0-.361.422 4.725 4.725 0 0 0-.288.537 3.836 3.836 0 0 0 .322.3 2.845 2.845 0 0 0 .313.225 1.361 1.361 0 0 0 .684.239.641.641 0 0 0 .723-.728 1.32 1.32 0 0 0-.251-.833.831.831 0 0 0-.698-.326Zm7.011-3.833.659.659-.659.659-.659-.659Zm.835 1.235.659.659-.659.659-.659-.659Zm-1.67 0 .659.659-.659.659-.665-.658ZM340.5 143a1.625 1.625 0 0 1-.867-.193 1.351 1.351 0 0 1-.486-.554 1.529 1.529 0 0 1-.61.554 2.328 2.328 0 0 1-1.037.193h-.342v-.889h.352a1.349 1.349 0 0 0 .938-.286 1.165 1.165 0 0 0 .313-.9q0-.127-.012-.283l-.037-.469.815-.1.078 1a1.42 1.42 0 0 0 .251.728.75.75 0 0 0 .657.317.824.824 0 0 0 .74-.332 1.508 1.508 0 0 0 .222-.854q0-.127-.012-.286t-.037-.466l.815-.1.078 1a1.546 1.546 0 0 0 .222.72.658.658 0 0 0 .6.325.582.582 0 0 0 .542-.334 1.713 1.713 0 0 0 .181-.823 5.2 5.2 0 0 0-.22-1.338l.835-.225a4.724 4.724 0 0 1 .166.757 5.574 5.574 0 0 1 .049.728 3.652 3.652 0 0 1-.144 1.053 1.58 1.58 0 0 1-.483.767 1.385 1.385 0 0 1-.914.29 1.376 1.376 0 0 1-.764-.2 1.39 1.39 0 0 1-.481-.552 1.644 1.644 0 0 1-.645.571 1.761 1.761 0 0 1-.763.181Z" data-name="Path 690"/><g filter="url(#b)"><path fill="#2ecc71" d="M162 316h92a6 6 0 0 1 6 6v16a6 6 0 0 1-6 6h-92a6 6 0 0 1-6-6v-16a6 6 0 0 1 6-6Z" data-name="Path 670"/></g><path fill="#fff" d="m198.432 328.21.684.679-.684.688-.679-.688Zm-1.621 0 .684.679-.684.688-.679-.688Zm3.76 1.807.815-.1.083 1.152a1.269 1.269 0 0 0 .269.752.873.873 0 0 0 .713.288h.107V333h-.107a1.772 1.772 0 0 1-.906-.208 1.54 1.54 0 0 1-.583-.667 2.245 2.245 0 0 1-1.038.675 5.99 5.99 0 0 1-1.756.2h-.815a5.351 5.351 0 0 1-2.766-.571 1.958 1.958 0 0 1-.925-1.8 2.873 2.873 0 0 1 .076-.659 4.111 4.111 0 0 1 .2-.62l.757.283a3.367 3.367 0 0 0-.129.459 2.259 2.259 0 0 0-.051.464 1.24 1.24 0 0 0 .718 1.2 5.012 5.012 0 0 0 2.124.349h.815a4.508 4.508 0 0 0 1.8-.288.961.961 0 0 0 .638-.917q0-.2-.015-.444t-.024-.439Zm4.844-3.364.708.708-.708.708-.708-.708Zm-3.033 5.458h.82a4.953 4.953 0 0 0 1.438-.2 8.636 8.636 0 0 0 1.333-.53q.662-.327 1.389-.708l-.314-.124q-.129-.051-.276-.12-.146-.066-.386-.159-.518-.215-.857-.337a1.692 1.692 0 0 0-.529-.121 1.063 1.063 0 0 0-.574.173 1.8 1.8 0 0 0-.466.417l-.132.166-.743-.368.073-.117a2.661 2.661 0 0 1 .8-.837 1.867 1.867 0 0 1 1.052-.315 2.179 2.179 0 0 1 .706.134 7.827 7.827 0 0 1 .842.354 11.905 11.905 0 0 0 1.311.566 3.609 3.609 0 0 0 .969.205v.845a2.752 2.752 0 0 0-.75.22q-.437.186-1.213.6-.625.332-1.208.591a7.152 7.152 0 0 1-1.187.408 5.374 5.374 0 0 1-1.292.146h-.806Zm8.462-5.883V333h-.835v-6.772Zm2.334 5.893q1.875 0 1.875-.972a1.49 1.49 0 0 0-.469-.972 6.109 6.109 0 0 0-1.553-1.1l.386-.777a6.045 6.045 0 0 1 1.863 1.353 2.258 2.258 0 0 1 .608 1.482 1.617 1.617 0 0 1-.632 1.386 3.4 3.4 0 0 1-2 .469 5.463 5.463 0 0 1-1.186-.117v-.884a5.6 5.6 0 0 0 1.108.132Zm6.153.879a1.456 1.456 0 0 1-.554-.09 1.415 1.415 0 0 1-.344-.193 3.191 3.191 0 0 1-.333 1.238 3.052 3.052 0 0 1-.876 1.064 3.182 3.182 0 0 1-1.44.6l-.288-.771a3.243 3.243 0 0 0 1.254-.515 2.01 2.01 0 0 0 .671-.828 2.655 2.655 0 0 0 .205-1.052 4.336 4.336 0 0 0-.1-.894 8.6 8.6 0 0 0-.259-.947l.811-.273.264 1.021a1 1 0 0 0 .342.581.977.977 0 0 0 .591.171h.181V333Zm-.063-.889h1.142a1.07 1.07 0 0 0 .876-.286 1.229 1.229 0 0 0 .222-.774 5.324 5.324 0 0 0-.054-.679 5.8 5.8 0 0 0-.166-.806l.835-.225a4.57 4.57 0 0 1 .166.83 7.4 7.4 0 0 1 .049.8 3.167 3.167 0 0 1-.158 1.045 1.362 1.362 0 0 1-.574.72 2.218 2.218 0 0 1-1.187.264h-1.152Zm2.1 1.5.659.659-.659.659-.659-.659Zm-1.67 0 .659.659-.659.659-.659-.659Zm.835 1.235.659.659-.659.659-.659-.659Z" data-name="Path 672"/><g filter="url(#c)"><path fill="#ff1b4c" d="M52 316h92a6 6 0 0 1 6 6v16a6 6 0 0 1-6 6H52a6 6 0 0 1-6-6v-16a6 6 0 0 1 6-6Z" data-name="Path 669"/></g><path fill="#fff" d="m90.324 325.612.708.708-.708.708-.708-.708Zm1.153 5.488a3.562 3.562 0 0 1-.486.112 3.39 3.39 0 0 1-.53.039q-1.66 0-1.66-1.367a2.751 2.751 0 0 1 .178-.967 1.93 1.93 0 0 1 .542-.8 1.335 1.335 0 0 1 .911-.317 1.4 1.4 0 0 1 .842.251 1.862 1.862 0 0 1 .566.674 3.486 3.486 0 0 1 .317.95 5.774 5.774 0 0 1 .1 1.079 4.507 4.507 0 0 1-.125 1.174 1.312 1.312 0 0 1-.4.679 1.547 1.547 0 0 1-.737.313 6.665 6.665 0 0 1-1.13.08h-1.616a5.339 5.339 0 0 1-2.781-.571 1.967 1.967 0 0 1-.911-1.8 2.873 2.873 0 0 1 .076-.659 4.111 4.111 0 0 1 .2-.62l.757.283a3.367 3.367 0 0 0-.129.459 2.259 2.259 0 0 0-.051.464 1.228 1.228 0 0 0 .73 1.2 5.045 5.045 0 0 0 2.112.349h1.675a5.209 5.209 0 0 0 .916-.063.72.72 0 0 0 .488-.281 1.2 1.2 0 0 0 .146-.661Zm-.952-.688a2.415 2.415 0 0 0 .449-.042q.22-.042.449-.1a4.421 4.421 0 0 0-.144-.715 1.733 1.733 0 0 0-.31-.623.667.667 0 0 0-.547-.254.623.623 0 0 0-.486.2 1.208 1.208 0 0 0-.264.479 1.8 1.8 0 0 0-.081.5.441.441 0 0 0 .242.444 1.688 1.688 0 0 0 .691.106Zm3.794-4.18V333h-.835v-6.772ZM98.122 333a1.456 1.456 0 0 1-.554-.09 1.415 1.415 0 0 1-.344-.193 3.191 3.191 0 0 1-.335 1.238 3.052 3.052 0 0 1-.876 1.064 3.182 3.182 0 0 1-1.44.6l-.288-.771a3.243 3.243 0 0 0 1.257-.518 2.01 2.01 0 0 0 .671-.825 2.655 2.655 0 0 0 .205-1.052 4.336 4.336 0 0 0-.1-.894 8.6 8.6 0 0 0-.259-.947l.811-.273.264 1.021a1 1 0 0 0 .342.581.977.977 0 0 0 .591.171h.182V333Zm4.316 0h-.258a4.89 4.89 0 0 1-1.58-.2 1.452 1.452 0 0 1-.767-.547 1.81 1.81 0 0 1-.633.569 2.1 2.1 0 0 1-.941.178h-.191v-.889h.191a1.055 1.055 0 0 0 .92-.339 1.526 1.526 0 0 0 .237-.891q0-.234-.017-.435t-.027-.43l.815-.1.073 1.143a2.09 2.09 0 0 0 .137.613q.112.286.347.286a8.515 8.515 0 0 1 1.712-2.188 2.61 2.61 0 0 1 1.677-.706 1.991 1.991 0 0 1 .989.242 1.772 1.772 0 0 1 .676.657 1.814 1.814 0 0 1 .244.938 1.823 1.823 0 0 1-.376 1.118 3.58 3.58 0 0 0 .369.063 5.683 5.683 0 0 0 .671.029h.142V333h-.137a3.465 3.465 0 0 1-1.023-.127 2 2 0 0 1-.676-.352 3.564 3.564 0 0 1-1.055.352 8.047 8.047 0 0 1-1.519.127Zm1.734-3.047q-1.172 0-2.544 2.158h.791a5.824 5.824 0 0 0 2.075-.278.932.932 0 0 0 .684-.884.98.98 0 0 0-.278-.713.973.973 0 0 0-.728-.283ZM107.2 333h-.533v-.889h.527a1.07 1.07 0 0 0 .876-.286 1.229 1.229 0 0 0 .222-.774 5.324 5.324 0 0 0-.054-.679 5.8 5.8 0 0 0-.166-.806l.835-.225a4.57 4.57 0 0 1 .166.83 7.4 7.4 0 0 1 .049.8 3.167 3.167 0 0 1-.159 1.042 1.362 1.362 0 0 1-.574.72 2.218 2.218 0 0 1-1.189.267Zm.845-5.835.708.708-.708.708-.708-.708Zm3.135-.937V333h-.835v-6.772Z" data-name="Path 671"/><g fill="#fff" data-name="Path 689"><path d="M256 182.5H50c-1.93 0-3.5-1.57-3.5-3.5v-14c0-1.93 1.57-3.5 3.5-3.5h206c1.93 0 3.5 1.57 3.5 3.5v14c0 1.93-1.57 3.5-3.5 3.5Z"/><path fill="#e5e5e5" d="M50 162c-1.654 0-3 1.346-3 3v14c0 1.654 1.346 3 3 3h206c1.654 0 3-1.346 3-3v-14c0-1.654-1.346-3-3-3H50m0-1h206a4 4 0 0 1 4 4v14a4 4 0 0 1-4 4H50a4 4 0 0 1-4-4v-14a4 4 0 0 1 4-4Z"/></g><g fill="#fff" data-name="Path 687"><path d="M256 213.5H50c-1.93 0-3.5-1.57-3.5-3.5v-14c0-1.93 1.57-3.5 3.5-3.5h206c1.93 0 3.5 1.57 3.5 3.5v14c0 1.93-1.57 3.5-3.5 3.5Z"/><path fill="#e5e5e5" d="M50 193c-1.654 0-3 1.346-3 3v14c0 1.654 1.346 3 3 3h206c1.654 0 3-1.346 3-3v-14c0-1.654-1.346-3-3-3H50m0-1h206a4 4 0 0 1 4 4v14a4 4 0 0 1-4 4H50a4 4 0 0 1-4-4v-14a4 4 0 0 1 4-4Z"/></g><g fill="#fff" data-name="Path 673"><path d="M256 306.5H50c-1.93 0-3.5-1.57-3.5-3.5v-14c0-1.93 1.57-3.5 3.5-3.5h206c1.93 0 3.5 1.57 3.5 3.5v14c0 1.93-1.57 3.5-3.5 3.5Z"/><path fill="#e5e5e5" d="M50 286c-1.654 0-3 1.346-3 3v14c0 1.654 1.346 3 3 3h206c1.654 0 3-1.346 3-3v-14c0-1.654-1.346-3-3-3H50m0-1h206a4 4 0 0 1 4 4v14a4 4 0 0 1-4 4H50a4 4 0 0 1-4-4v-14a4 4 0 0 1 4-4Z"/></g><g fill="#fff" data-name="Path 691"><path d="M256 151.5h-41c-1.93 0-3.5-1.57-3.5-3.5v-14c0-1.93 1.57-3.5 3.5-3.5h41c1.93 0 3.5 1.57 3.5 3.5v14c0 1.93-1.57 3.5-3.5 3.5Z"/><path fill="#e5e5e5" d="M215 131c-1.654 0-3 1.346-3 3v14c0 1.654 1.346 3 3 3h41c1.654 0 3-1.346 3-3v-14c0-1.654-1.346-3-3-3h-41m0-1h41a4 4 0 0 1 4 4v14a4 4 0 0 1-4 4h-41a4 4 0 0 1-4-4v-14a4 4 0 0 1 4-4Z"/></g><g fill="#fff" data-name="Path 692"><path d="M201 151.5h-41c-1.93 0-3.5-1.57-3.5-3.5v-14c0-1.93 1.57-3.5 3.5-3.5h41c1.93 0 3.5 1.57 3.5 3.5v14c0 1.93-1.57 3.5-3.5 3.5Z"/><path fill="#e5e5e5" d="M160 131c-1.654 0-3 1.346-3 3v14c0 1.654 1.346 3 3 3h41c1.654 0 3-1.346 3-3v-14c0-1.654-1.346-3-3-3h-41m0-1h41a4 4 0 0 1 4 4v14a4 4 0 0 1-4 4h-41a4 4 0 0 1-4-4v-14a4 4 0 0 1 4-4Z"/></g><g fill="#fff" data-name="Path 693"><path d="M146 151.5h-41c-1.93 0-3.5-1.57-3.5-3.5v-14c0-1.93 1.57-3.5 3.5-3.5h41c1.93 0 3.5 1.57 3.5 3.5v14c0 1.93-1.57 3.5-3.5 3.5Z"/><path fill="#e5e5e5" d="M105 131c-1.654 0-3 1.346-3 3v14c0 1.654 1.346 3 3 3h41c1.654 0 3-1.346 3-3v-14c0-1.654-1.346-3-3-3h-41m0-1h41a4 4 0 0 1 4 4v14a4 4 0 0 1-4 4h-41a4 4 0 0 1-4-4v-14a4 4 0 0 1 4-4Z"/></g><g fill="#fff" data-name="Path 694"><path d="M91 151.5H50c-1.93 0-3.5-1.57-3.5-3.5v-14c0-1.93 1.57-3.5 3.5-3.5h41c1.93 0 3.5 1.57 3.5 3.5v14c0 1.93-1.57 3.5-3.5 3.5Z"/><path fill="#e5e5e5" d="M50 131c-1.654 0-3 1.346-3 3v14c0 1.654 1.346 3 3 3h41c1.654 0 3-1.346 3-3v-14c0-1.654-1.346-3-3-3H50m0-1h41a4 4 0 0 1 4 4v14a4 4 0 0 1-4 4H50a4 4 0 0 1-4-4v-14a4 4 0 0 1 4-4Z"/></g><g fill="#fff" data-name="Path 674"><path d="M256 275.5h-96c-1.93 0-3.5-1.57-3.5-3.5v-14c0-1.93 1.57-3.5 3.5-3.5h96c1.93 0 3.5 1.57 3.5 3.5v14c0 1.93-1.57 3.5-3.5 3.5Z"/><path fill="#e5e5e5" d="M160 255c-1.654 0-3 1.346-3 3v14c0 1.654 1.346 3 3 3h96c1.654 0 3-1.346 3-3v-14c0-1.654-1.346-3-3-3h-96m0-1h96a4 4 0 0 1 4 4v14a4 4 0 0 1-4 4h-96a4 4 0 0 1-4-4v-14a4 4 0 0 1 4-4Z"/></g><g fill="#fff" data-name="Path 680"><path d="M256 244.5h-96c-1.93 0-3.5-1.57-3.5-3.5v-14c0-1.93 1.57-3.5 3.5-3.5h96c1.93 0 3.5 1.57 3.5 3.5v14c0 1.93-1.57 3.5-3.5 3.5Z"/><path fill="#e5e5e5" d="M160 224c-1.654 0-3 1.346-3 3v14c0 1.654 1.346 3 3 3h96c1.654 0 3-1.346 3-3v-14c0-1.654-1.346-3-3-3h-96m0-1h96a4 4 0 0 1 4 4v14a4 4 0 0 1-4 4h-96a4 4 0 0 1-4-4v-14a4 4 0 0 1 4-4Z"/></g><g fill="#fff" data-name="Path 681"><path d="M256 244.5h-22c-1.93 0-3.5-1.57-3.5-3.5v-14c0-1.93 1.57-3.5 3.5-3.5h22c1.93 0 3.5 1.57 3.5 3.5v14c0 1.93-1.57 3.5-3.5 3.5Z"/><path fill="#e5e5e5" d="M234 224c-1.654 0-3 1.346-3 3v14c0 1.654 1.346 3 3 3h22c1.654 0 3-1.346 3-3v-14c0-1.654-1.346-3-3-3h-22m0-1h22a4 4 0 0 1 4 4v14a4 4 0 0 1-4 4h-22a4 4 0 0 1-4-4v-14a4 4 0 0 1 4-4Z"/></g><path fill="#a3a3a3" d="m241.289 233.109-.152-.137.414-.535q.516.426.908.795a3.776 3.776 0 0 1 .615.723 1.356 1.356 0 0 1 .223.732 1.187 1.187 0 0 1-.406.945 1.578 1.578 0 0 1-1.07.352 1.625 1.625 0 0 1-1.079-.334 1.06 1.06 0 0 1-.4-.85 1.582 1.582 0 0 1 .242-.846 4.653 4.653 0 0 1 .705-.845Zm1.344 1.547a.651.651 0 0 0-.133-.369 2.5 2.5 0 0 0-.328-.379q-.2-.189-.4-.365a5.182 5.182 0 0 0-.562.615.935.935 0 0 0-.2.568.51.51 0 0 0 .19.395.925.925 0 0 0 .617.168.992.992 0 0 0 .623-.156.576.576 0 0 0 .193-.477Zm1.644-4.074h.668v3.773a1.027 1.027 0 0 0 .2.742.858.858 0 0 0 .611.191h.096V236h-.094a1.446 1.446 0 0 1-1.113-.4 1.8 1.8 0 0 1-.368-1.248Zm4.149 5.508a1.551 1.551 0 0 1-.721-.17 2.962 2.962 0 0 1-.685-.514 2.558 2.558 0 0 1-.488.439 1.2 1.2 0 0 1-.661.155h-.164v-.711h.145a.665.665 0 0 0 .441-.15 1.482 1.482 0 0 0 .32-.389q.141-.238.279-.506a4.044 4.044 0 0 1 .308-.506 1.441 1.441 0 0 1 .416-.389 1.131 1.131 0 0 1 .6-.15 1.358 1.358 0 0 1 .756.209 1.417 1.417 0 0 1 .5.561 1.715 1.715 0 0 1 .178.785 1.4 1.4 0 0 1-.322.986 1.173 1.173 0 0 1-.902.35Zm-.187-2.2a.548.548 0 0 0-.355.131 1.356 1.356 0 0 0-.289.338 3.78 3.78 0 0 0-.23.43 2.513 2.513 0 0 0 .484.4 1.087 1.087 0 0 0 .57.207.513.513 0 0 0 .581-.58 1.056 1.056 0 0 0-.2-.666.665.665 0 0 0-.562-.259Z" data-name="Path 682"/><g fill="#fff" data-name="Path 683"><path d="M146 244.5H50c-1.93 0-3.5-1.57-3.5-3.5v-14c0-1.93 1.57-3.5 3.5-3.5h96c1.93 0 3.5 1.57 3.5 3.5v14c0 1.93-1.57 3.5-3.5 3.5Z"/><path fill="#e5e5e5" d="M50 224c-1.654 0-3 1.346-3 3v14c0 1.654 1.346 3 3 3h96c1.654 0 3-1.346 3-3v-14c0-1.654-1.346-3-3-3H50m0-1h96a4 4 0 0 1 4 4v14a4 4 0 0 1-4 4H50a4 4 0 0 1-4-4v-14a4 4 0 0 1 4-4Z"/></g><g fill="#fff" data-name="Path 684"><path d="M146 244.5h-22c-1.93 0-3.5-1.57-3.5-3.5v-14c0-1.93 1.57-3.5 3.5-3.5h22c1.93 0 3.5 1.57 3.5 3.5v14c0 1.93-1.57 3.5-3.5 3.5Z"/><path fill="#e5e5e5" d="M124 224c-1.654 0-3 1.346-3 3v14c0 1.654 1.346 3 3 3h22c1.654 0 3-1.346 3-3v-14c0-1.654-1.346-3-3-3h-22m0-1h22a4 4 0 0 1 4 4v14a4 4 0 0 1-4 4h-22a4 4 0 0 1-4-4v-14a4 4 0 0 1 4-4Z"/></g><path fill="#a3a3a3" d="M132.752 235.547a2.617 2.617 0 0 1-.531 1.813 1.991 1.991 0 0 1-1.543.578 2.379 2.379 0 0 1-1.184-.26 1.58 1.58 0 0 1-.672-.725 2.545 2.545 0 0 1-.215-1.078 4.384 4.384 0 0 1 .086-.85 5.9 5.9 0 0 1 .234-.85l.621.25a7.475 7.475 0 0 0-.191.738 3.634 3.634 0 0 0-.078.737 1.4 1.4 0 0 0 .321.983 1.405 1.405 0 0 0 1.076.352 1.364 1.364 0 0 0 1.054-.383 1.785 1.785 0 0 0 .354-1.235v-5.035h.668Zm1.18-4.965h.668v3.773a1.027 1.027 0 0 0 .2.745.858.858 0 0 0 .611.191h.095V236h-.094a1.446 1.446 0 0 1-1.112-.4 1.8 1.8 0 0 1-.367-1.252Zm4.105 5.418a1.3 1.3 0 0 1-.693-.154 1.081 1.081 0 0 1-.389-.446 1.223 1.223 0 0 1-.488.443 1.863 1.863 0 0 1-.832.157h-.274v-.711h.282a1.079 1.079 0 0 0 .75-.229.932.932 0 0 0 .25-.721q0-.1-.01-.227l-.033-.374.652-.082.063.8a1.136 1.136 0 0 0 .2.582.6.6 0 0 0 .525.254.659.659 0 0 0 .592-.266 1.206 1.206 0 0 0 .178-.684q0-.1-.01-.229t-.029-.373l.652-.082.063.8a1.237 1.237 0 0 0 .178.576.527.527 0 0 0 .482.26.465.465 0 0 0 .434-.268 1.37 1.37 0 0 0 .145-.658 4.157 4.157 0 0 0-.176-1.07l.668-.18a3.779 3.779 0 0 1 .133.605 4.459 4.459 0 0 1 .039.582 2.922 2.922 0 0 1-.117.854 1.264 1.264 0 0 1-.387.613 1.108 1.108 0 0 1-.727.228 1.1 1.1 0 0 1-.611-.156 1.112 1.112 0 0 1-.385-.444 1.315 1.315 0 0 1-.516.457 1.409 1.409 0 0 1-.609.143Z" data-name="Path 685"/><g fill="#fff" data-name="Path 675"><path d="M146 275.5H50c-1.93 0-3.5-1.57-3.5-3.5v-14c0-1.93 1.57-3.5 3.5-3.5h96c1.93 0 3.5 1.57 3.5 3.5v14c0 1.93-1.57 3.5-3.5 3.5Z"/><path fill="#e5e5e5" d="M50 255c-1.654 0-3 1.346-3 3v14c0 1.654 1.346 3 3 3h96c1.654 0 3-1.346 3-3v-14c0-1.654-1.346-3-3-3H50m0-1h96a4 4 0 0 1 4 4v14a4 4 0 0 1-4 4H50a4 4 0 0 1-4-4v-14a4 4 0 0 1 4-4Z"/></g><g fill="#fff" data-name="Path 676"><path d="M146 275.5h-22c-1.93 0-3.5-1.57-3.5-3.5v-14c0-1.93 1.57-3.5 3.5-3.5h22c1.93 0 3.5 1.57 3.5 3.5v14c0 1.93-1.57 3.5-3.5 3.5Z"/><path fill="#e5e5e5" d="M124 255c-1.654 0-3 1.346-3 3v14c0 1.654 1.346 3 3 3h22c1.654 0 3-1.346 3-3v-14c0-1.654-1.346-3-3-3h-22m0-1h22a4 4 0 0 1 4 4v14a4 4 0 0 1-4 4h-22a4 4 0 0 1-4-4v-14a4 4 0 0 1 4-4Z"/></g><path fill="#a3a3a3" d="M139.643 260a.358.358 0 0 0-.357.357v2.886a4.635 4.635 0 0 0-8.864.982.358.358 0 0 0 .293.413.536.536 0 0 0 .059 0 .358.358 0 0 0 .352-.3 3.924 3.924 0 0 1 7.526-.774h-2.58a.357.357 0 1 0 0 .714h3.571a.358.358 0 0 0 .357-.349v-3.572a.358.358 0 0 0-.357-.357Zm-.377 5.362a.354.354 0 0 0-.411.293 3.885 3.885 0 0 1-3.875 3.274 3.931 3.931 0 0 1-3.652-2.5h2.6a.357.357 0 0 0 0-.714h-3.571a.358.358 0 0 0-.357.357v3.571a.357.357 0 1 0 .714 0v-2.886a4.635 4.635 0 0 0 8.864-.982.357.357 0 0 0-.312-.413Z"/><path fill="#1684b9" d="M323.901 43.196h-.287a3.153 3.153 0 0 1-.726-.084 6 6 0 0 0-1.375-.16h-7.17a5.994 5.994 0 0 0-1.374.16 3.158 3.158 0 0 1-.725.084h-5.606a3.154 3.154 0 0 1-.726-.084 6 6 0 0 0-.683-.12 5.922 5.922 0 0 0-.692-.04h-3.1a.484.484 0 1 0 0 .968h3.1a5.99 5.99 0 0 0 1.385-.163 3.091 3.091 0 0 1 .716-.082h5.606a3.163 3.163 0 0 1 .725.084 5.986 5.986 0 0 0 1.374.16h7.17a5.991 5.991 0 0 0 1.375-.16 3.17 3.17 0 0 1 .726-.084H346v-.479h-22.1Z" data-name="Path 137"/><path fill="#1684b9" d="M300.571 39h45.426v.479h-45.426Z" data-name="Path 697"/><path fill="#1684b9" d="M316.657 40.877a3.156 3.156 0 0 1 .725.084 6 6 0 0 0 1.374.159h3.221a5.991 5.991 0 0 0 1.375-.16 3.163 3.163 0 0 1 .726-.084h21.917v-.479H324.08a3.17 3.17 0 0 1-.726-.084 5.983 5.983 0 0 0-1.375-.16h-3.221a5.985 5.985 0 0 0-1.374.16 3.167 3.167 0 0 1-.725.084h-16.088v.479h16.086Z" data-name="Path 138"/><path fill="#1684b9" d="M313.527 42.276a3.155 3.155 0 0 1 .725.084 6 6 0 0 0 1.374.16h5.886a5.99 5.99 0 0 0 1.375-.16 3.165 3.165 0 0 1 .726-.084h22.382v-.479h-22.381a3.165 3.165 0 0 1-.726-.084 5.988 5.988 0 0 0-1.375-.16h-5.886a5.986 5.986 0 0 0-1.374.16 3.166 3.166 0 0 1-.725.084h-12.957v.479h12.956Z" data-name="Path 139"/><path fill="#1684b9" d="M321.69 45.992a3.164 3.164 0 0 1-.726-.084 5.991 5.991 0 0 0-1.375-.16h-6.906a5.991 5.991 0 0 0-1.373.159 3.157 3.157 0 0 1-.725.084h-.412a3.16 3.16 0 0 1-.726-.084 6 6 0 0 0-.683-.12 5.924 5.924 0 0 0-.692-.04h-5.9a.484.484 0 0 0 0 .968h5.9a5.988 5.988 0 0 0 1.385-.163 3.091 3.091 0 0 1 .716-.082h.412a3.166 3.166 0 0 1 .725.084 5.983 5.983 0 0 0 1.373.16h6.906a5.983 5.983 0 0 0 1.375-.16 3.172 3.172 0 0 1 .726-.084H346v-.478h-24.31Z" data-name="Path 140"/><path fill="#1684b9" d="M320.495 47.394a3.166 3.166 0 0 1-.726-.084 5.988 5.988 0 0 0-1.375-.16h-5.711a5.993 5.993 0 0 0-1.373.159 1.814 1.814 0 0 1-1.048 0 5.99 5.99 0 0 0-.683-.12 5.917 5.917 0 0 0-.692-.04h-5.91a.484.484 0 1 0 0 .968h5.9a6 6 0 0 0 1.385-.162 3.042 3.042 0 0 1 .514-.075 3.15 3.15 0 0 1 .524.078 5.983 5.983 0 0 0 1.373.16h5.711a5.98 5.98 0 0 0 1.375-.16 3.173 3.173 0 0 1 .726-.084h25.506v-.479h-25.496Z" data-name="Path 141"/><path fill="#1684b9" d="M318.918 48.792h-.287a3.154 3.154 0 0 1-.726-.084 6 6 0 0 0-1.375-.16h-3.542a6 6 0 0 0-1.373.159 1.884 1.884 0 0 1-1.076 0 6.012 6.012 0 0 0-1.375-.16h-5.2a.484.484 0 0 0 0 .968h5.2a5.988 5.988 0 0 0 1.385-.163 3.026 3.026 0 0 1 .528-.076 3.161 3.161 0 0 1 .538.079 5.984 5.984 0 0 0 1.373.16h3.542a5.981 5.981 0 0 0 1.375-.16 3.169 3.169 0 0 1 .726-.084H346v-.479Z" data-name="Path 142"/><path fill="#1684b9" d="M322.303 52.989a3.164 3.164 0 0 1-.726-.084 5.99 5.99 0 0 0-1.375-.16h-4.4a5.994 5.994 0 0 0-1.374.159 2.357 2.357 0 0 1-1.226 0 6.008 6.008 0 0 0-.683-.12 5.925 5.925 0 0 0-.692-.04h-1.879a.484.484 0 1 0 0 .968h1.879a5.989 5.989 0 0 0 1.385-.163 3.062 3.062 0 0 1 .6-.079 3.164 3.164 0 0 1 .614.081 5.985 5.985 0 0 0 1.374.16h4.4a5.989 5.989 0 0 0 1.375-.16 3.166 3.166 0 0 1 .726-.084h23.7v-.479h-23.7Z" data-name="Path 143"/><path fill="#1684b9" d="M323.159 54.388h-.287a3.168 3.168 0 0 1-.726-.084 5.988 5.988 0 0 0-1.375-.16h-3.95a5.994 5.994 0 0 0-1.374.159 3.161 3.161 0 0 1-.722.084h-.047a3.163 3.163 0 0 1-.726-.084 6 6 0 0 0-.683-.12 5.925 5.925 0 0 0-.692-.04h-2.956a.484.484 0 1 0 0 .968h2.956a6 6 0 0 0 1.385-.163 3.093 3.093 0 0 1 .716-.082h.047a3.16 3.16 0 0 1 .722.084 5.984 5.984 0 0 0 1.374.16h3.95a5.984 5.984 0 0 0 1.375-.16 3.169 3.169 0 0 1 .726-.084h23.129v-.479h-22.842Z" data-name="Path 144"/><path fill="#1684b9" d="M320.316 51.59h-.287a3.153 3.153 0 0 1-.726-.084 6 6 0 0 0-.683-.12 5.916 5.916 0 0 0-.692-.041h-9.9a.484.484 0 0 0 0 .968h9.9a5.989 5.989 0 0 0 1.385-.163 3.092 3.092 0 0 1 .716-.082h25.97v-.479h-25.683Z" data-name="Path 145"/><path fill="#1684b9" d="M316.245 50.191h-.287a3.153 3.153 0 0 1-.726-.084 6 6 0 0 0-.683-.12 5.922 5.922 0 0 0-.692-.04h-8.443a.484.484 0 1 0 0 .968h8.443a5.991 5.991 0 0 0 1.385-.163 3.091 3.091 0 0 1 .716-.082H346v-.479Z" data-name="Path 146"/><path fill="#1684b9" d="M323.902 55.787h-.287a3.152 3.152 0 0 1-.726-.084 6 6 0 0 0-1.375-.16h-3.2a5.994 5.994 0 0 0-1.373.159 3.164 3.164 0 0 1-.725.084h-.835a3.159 3.159 0 0 1-.726-.084 6.019 6.019 0 0 0-1.375-.16h-3.334a.484.484 0 1 0 0 .968h3.334a5.989 5.989 0 0 0 1.385-.163 3.1 3.1 0 0 1 .716-.082h.835a3.162 3.162 0 0 1 .725.084 5.981 5.981 0 0 0 1.374.16h3.2a5.984 5.984 0 0 0 1.375-.16 3.169 3.169 0 0 1 .726-.084h22.386v-.479Z" data-name="Path 147"/><path fill="#1684b9" d="M323.311 57.186a3.154 3.154 0 0 1-.726-.084 6 6 0 0 0-1.375-.16h-.1a5.991 5.991 0 0 0-1.373.16 3.157 3.157 0 0 1-.725.084h-3.951a3.153 3.153 0 0 1-.726-.084 5.992 5.992 0 0 0-.683-.12 5.919 5.919 0 0 0-.692-.04h-1.989a.484.484 0 0 0 0 .968h1.98a5.99 5.99 0 0 0 1.385-.163 3.091 3.091 0 0 1 .716-.082h3.951a3.165 3.165 0 0 1 .725.084 5.984 5.984 0 0 0 1.373.16h.1a5.983 5.983 0 0 0 1.375-.16 3.174 3.174 0 0 1 .726-.084h22.689v-.479h-22.68Z" data-name="Path 148"/><path fill="#1684b9" d="M322.984 44.596h-.287a3.164 3.164 0 0 1-.726-.084 5.989 5.989 0 0 0-1.375-.16h-7.446a5.992 5.992 0 0 0-1.374.16 3.159 3.159 0 0 1-.725.084h-2.312a3.154 3.154 0 0 1-.726-.084 6.007 6.007 0 0 0-.683-.12 5.9 5.9 0 0 0-.693-.04h-4.73a.484.484 0 0 0 0 .968h4.731a5.99 5.99 0 0 0 1.385-.163 3.089 3.089 0 0 1 .716-.082h2.311a3.164 3.164 0 0 1 .725.084 5.985 5.985 0 0 0 1.374.16h7.446a5.99 5.99 0 0 0 1.375-.16 3.163 3.163 0 0 1 .726-.084h23.3v-.479h-23.012Z" data-name="Path 149"/><path fill="#1684b9" d="M315.211 58.571h-1.366a1.328 1.328 0 0 1-.542-.115 1.33 1.33 0 0 0-.542-.115h-.06a.456.456 0 1 0 0 .911h.06a1.327 1.327 0 0 0 .542-.115 1.325 1.325 0 0 1 .207-.072h32.435v-.479h-30.734Z" data-name="Path 150"/><path fill="#1684b9" d="m345.944 42.374.025-.019v.026l-.025-.007" data-name="Path 151"/><path fill="#1684b9" d="M344.079 62.014c-.345.272-.694.54-1.019.837a1.23 1.23 0 0 0-.364.56c.063.006.091-.037.125-.064.223-.172.441-.35.667-.519q.826-.618 1.589-1.311a3.79 3.79 0 0 0 .892-1.151v-.077a24.833 24.833 0 0 1-1.89 1.725" data-name="Path 152"/><path fill="#1684b9" d="M323.846 68.281c-.059-.043-.107-.046-.147.022-.056.1-.108.193-.168.285a.152.152 0 0 0 .037.238.58.58 0 0 1 .163.174h.077c.043-.1.124-.178.163-.282a.347.347 0 0 0-.125-.437" data-name="Path 153"/><path fill="#1684b9" d="M301.082 62.179a1.738 1.738 0 0 0 .495.058 1.979 1.979 0 0 0 1.749-.949 4.182 4.182 0 0 0 .6-1.883c.084-.772.034-1.553.146-2.324 0-.029.012-.067-.025-.076s-.049.028-.061.054c-.092.2-.178.4-.275.591a1.493 1.493 0 0 0-.147.654c-.01.55-.027 1.1-.047 1.651a1.2 1.2 0 0 1-.872 1.217 2.328 2.328 0 0 1-1.349.042.477.477 0 0 1-.4-.564c0-.045.023-.11-.033-.122s-.071.06-.084.1a4.206 4.206 0 0 0-.142.947.554.554 0 0 0 .45.6" data-name="Path 154"/><path fill="#1684b9" d="M328.327 65.168a.764.764 0 0 0 .264-.633c-.049.07-.1.129-.134.194a.123.123 0 0 1-.161.066c-.146-.06-.235.017-.32.114-.048.055-.09.114-.139.168a.407.407 0 0 1-.694-.137.821.821 0 0 1-.038-.341c.023-.327.084-.65.138-.986-.076.017-.084.069-.1.107a2.823 2.823 0 0 0-.3 1.256 1.332 1.332 0 0 1-.174.644 2.649 2.649 0 0 0-.25.517c-.089.276-.049.373.209.5.241.12.266.205.122.434a.872.872 0 0 1-.12.149 1.236 1.236 0 0 1-.875.364.655.655 0 0 1-.726-.905 3.5 3.5 0 0 1 .187-.516q.137-.323.266-.65c.013-.032.045-.083 0-.1s-.068.037-.085.07a7.271 7.271 0 0 0-.536 1.255 2.117 2.117 0 0 0-.1.731.8.8 0 0 0 .935.812 1.056 1.056 0 0 0 .607-.277 2.4 2.4 0 0 0 .736-1.345c.064-.3.07-.584-.273-.738a.071.071 0 0 1-.041-.1.768.768 0 0 1 .167-.281.431.431 0 0 0 .816.029 2.444 2.444 0 0 1 .167-.242.332.332 0 0 1 .332-.148.2.2 0 0 0 .125-.015" data-name="Path 155"/><path fill="#1684b9" d="m320.246 64.814-.049-.015a.574.574 0 0 0-.232-.02.473.473 0 0 0-.4.457c.029 0 .042-.013.054-.032a.211.211 0 0 1 .012-.018c.135-.179.211-.2.428-.13.057.019.112.04.167.064.13.057.133.063.033.158a5.624 5.624 0 0 1-.533.46 1.646 1.646 0 0 1-.674.293c-.048.009-.093.021-.1-.056s-.045-.069-.1-.028a2.281 2.281 0 0 1-.755.393 5.615 5.615 0 0 1-2 .188 3.238 3.238 0 0 1-.633-.084.4.4 0 0 1-.324-.364c0-.041-.006-.082-.047-.109a.175.175 0 0 0-.059.13 2.877 2.877 0 0 0-.05.521.482.482 0 0 0 .5.557 5.8 5.8 0 0 0 1.921-.1 2.294 2.294 0 0 0 1.241-.618c.158-.172.287-.229.49-.123.162.084.281.017.407-.1a13.885 13.885 0 0 1 1.183-1.057.47.47 0 0 0 .162-.348.716.716 0 0 1-.645-.015" data-name="Path 156"/><path fill="#1684b9" d="M341.519 66.376a.843.843 0 0 1 .1-.13.4.4 0 0 1 .377-.147.244.244 0 0 0 .243-.1 1.453 1.453 0 0 0 .344-.785c.058-.552.051-1.108.09-1.661 0-.034.012-.076-.031-.1-.009.011-.021.019-.025.029a2.87 2.87 0 0 0-.261 1.263 2.81 2.81 0 0 1 .005.346 1.826 1.826 0 0 1-.051.482c-.028.1-.081.159-.194.123a.313.313 0 0 0-.267.05.617.617 0 0 0-.2.2.965.965 0 0 1-.47.359 3.282 3.282 0 0 1-.537.164 7.553 7.553 0 0 1-1.963.1.981.981 0 0 1-.346-.088.345.345 0 0 1-.221-.275c-.009-.056 0-.121-.053-.165a.056.056 0 0 0-.04.047 2.27 2.27 0 0 0-.066.685.458.458 0 0 0 .463.47 5.457 5.457 0 0 0 2.081-.139 1.5 1.5 0 0 0 1.013-.718" data-name="Path 157"/><path fill="#1684b9" d="M333.184 62.956c-.041.021-.054.063-.076.1a1.73 1.73 0 0 0-.26.936 3.2 3.2 0 0 1-.016.575.269.269 0 0 1-.292.23c-.13-.009-.184-.079-.2-.248a2.83 2.83 0 0 1 .065-.8c.039-.216.082-.432.123-.648l-.046-.013a3.139 3.139 0 0 0-.344.828 6.5 6.5 0 0 0-.1 1.121c-.007.243-.1.345-.336.324a1.579 1.579 0 0 0-1.335.576 5.8 5.8 0 0 0-.559.748 5.118 5.118 0 0 1-.636.816 7.794 7.794 0 0 1-.687.553c-.047.037-.141.08-.107.138s.115-.006.17-.03a3.241 3.241 0 0 0 1.275-1.06c.161-.21.306-.432.475-.635a1.079 1.079 0 0 1 .973-.436.508.508 0 0 0 .465-.189c.124-.146.253-.289.382-.431.033-.037.06-.075.124-.023a.244.244 0 0 0 .365-.014.763.763 0 0 0 .167-.209 2.971 2.971 0 0 0 .366-1.149c.034-.331 0-.667.072-1 0-.021.017-.053-.023-.062" data-name="Path 158"/><path fill="#1684b9" d="M308.484 61.017a.892.892 0 0 0 .312-.625.262.262 0 0 0-.024-.219 1.328 1.328 0 0 0-.131.281c-.045.086-.094.176-.214.126s-.174 0-.208.108c-.015.048-.041.093-.061.141a.164.164 0 0 1-.2.11.307.307 0 0 0-.291.093c-.057.052-.113.1-.173.152a.637.637 0 0 1-.652.1.5.5 0 0 1-.3-.492 2.979 2.979 0 0 1-.007-.307c.022-.491.095-.976.153-1.463.035-.292.077-.584.09-.878 0-.026.015-.067-.028-.072-.027 0-.039.029-.048.053a5.689 5.689 0 0 0-.276.768 13.836 13.836 0 0 0-.28 2.206 1.634 1.634 0 0 0 .122.751.5.5 0 0 0 .536.311.6.6 0 0 0 .375-.2c.1-.111.194-.227.287-.343a.4.4 0 0 1 .4-.164.188.188 0 0 0 .189-.053 2.4 2.4 0 0 1 .433-.376" data-name="Path 159"/><path fill="#1684b9" d="M312.019 65.886c.01-.037.032-.082-.011-.124-.012.011-.028.019-.035.032a1.069 1.069 0 0 1-.614.471 4.61 4.61 0 0 1-1.541.271 4.039 4.039 0 0 1-1.156-.1c-.22-.057-.4-.146-.394-.422 0-.031.005-.089-.048-.09s-.052.052-.06.087a4.91 4.91 0 0 0-.1.6.449.449 0 0 0 .26.471.9.9 0 0 0 .278.092 4.982 4.982 0 0 0 1.516-.018 3.854 3.854 0 0 0 1.264-.386 1.334 1.334 0 0 0 .645-.894" data-name="Path 160"/><path fill="#1684b9" d="M305.453 55.916a22.056 22.056 0 0 0 2.295-1.959 3.493 3.493 0 0 0 .832-1.154.361.361 0 0 0 .049-.193c-.041-.01-.055.023-.074.044a24.952 24.952 0 0 1-2.863 2.591 13.983 13.983 0 0 0-1.243 1.045 1.286 1.286 0 0 0-.361.676c.058-.041.117-.079.173-.122l1.192-.926" data-name="Path 161"/><path fill="#1684b9" d="M337.53 65.177c-.107-.04-.106.045-.135.1s-.054.149-.138.119-.132.014-.168.081a.189.189 0 0 1-.229.117.238.238 0 0 0-.24.087c-.052.056-.1.114-.15.175a.412.412 0 0 1-.453.163.417.417 0 0 1-.3-.373 2.779 2.779 0 0 1 .018-.7c.013-.193.04-.385.061-.577l-.031-.008a.18.18 0 0 0-.028.038 2.771 2.771 0 0 0-.291 1.077 2.115 2.115 0 0 1-.011.256c-.019.212-.017.426-.049.638a.34.34 0 0 1-.435.31.454.454 0 0 0-.289-.021 1.189 1.189 0 0 0-.654.6c-.013.023-.031.056-.006.084s.055 0 .078-.013a.781.781 0 0 1 .57-.071.5.5 0 0 0 .391-.073 1 1 0 0 0 .369-.415l.11-.217c.023-.044.044-.046.087-.012a.4.4 0 0 0 .654-.09c.074-.1.137-.206.213-.3a.277.277 0 0 1 .231-.142.372.372 0 0 0 .3-.136c.044-.039.084-.1.136-.112a.891.891 0 0 0 .375-.281.818.818 0 0 0 .206-.566.7.7 0 0 0-.114.2c-.02.032-.041.088-.078.074" data-name="Path 162"/><path fill="#1684b9" d="M345.302 64.577c-.037-.012-.059.032-.072.061a.254.254 0 0 1-.238.155.341.341 0 0 0-.234.142c-.078.1-.156.193-.225.3a.258.258 0 0 1-.255.13 1.136 1.136 0 0 0-.681.181 2.227 2.227 0 0 0-.511.422 5.266 5.266 0 0 0-.516.7 4.162 4.162 0 0 1-1.24 1.309.578.578 0 0 0-.224.216.19.19 0 0 0 .171-.024 3.264 3.264 0 0 0 1.305-1.081c.156-.2.3-.418.459-.615a1.091 1.091 0 0 1 .955-.448.338.338 0 0 0 .328-.159c.1-.15.2-.3.289-.453a.5.5 0 0 1 .4-.277.164.164 0 0 0 .127-.075 1.2 1.2 0 0 0 .177-.381c.009-.034.028-.084-.021-.1" data-name="Path 163"/><path fill="#1684b9" d="M306.056 59.273c-.056-.025-.089.065-.112.115a.8.8 0 0 1-.447.415c-.055.023-.106.054-.159.082a1.016 1.016 0 0 0-.464.46 5.188 5.188 0 0 0-.232.5 1.3 1.3 0 0 1-.55.65c-.24.162-.492.307-.718.489-.04.032-.111.059-.085.126s.092.048.161.049a4.25 4.25 0 0 0 .515-.087.862.862 0 0 0 .651-.555c.063-.154.129-.306.187-.461a.914.914 0 0 1 .561-.606.939.939 0 0 0 .577-.638c.044-.12.082-.242.119-.364.018-.059.054-.146 0-.172" data-name="Path 164"/><path fill="#1684b9" d="M305.717 63.183a2.355 2.355 0 0 0 .159-.246c.165-.291.1-.5-.206-.716a.113.113 0 0 0-.189.042c-.08.14-.164.277-.256.43a1.129 1.129 0 0 0-.3-.316c-.081-.058-.138-.047-.184.043s-.11.193-.157.293c-.217.463-.258.324.155.68.09.078.158.059.225-.026a1.668 1.668 0 0 0 .2-.34c.024-.052.05-.063.093-.02l.2.2c.119.117.16.116.262-.02" data-name="Path 165"/><path fill="#1684b9" d="M335.854 64.286c.761-.6 1.547-1.166 2.26-1.824a4.4 4.4 0 0 0 .661-.729c.053-.076.107-.153.152-.234a.819.819 0 0 0 .1-.26s0 0 0-.006l.006-.002c-.045 0-.061.038-.086.063a22.593 22.593 0 0 1-2.281 2.017 5.542 5.542 0 0 0-.618.536 1.226 1.226 0 0 0-.275.484 1 1 0 0 0 .09-.053" data-name="Path 166"/><path fill="#1684b9" d="M308.317 56.831c-.077.136-.162.268-.248.41a1.105 1.105 0 0 0-.3-.306.1.1 0 0 0-.177.037q-.159.27-.293.552a.133.133 0 0 0 .044.187c.084.065.167.133.247.2s.151.055.216-.025a1.124 1.124 0 0 0 .18-.293c.046-.114.091-.092.155-.022s.106.111.161.164c.1.1.145.1.24-.013a1.253 1.253 0 0 0 .177-.265.467.467 0 0 0-.2-.673c-.084-.05-.146-.052-.2.043" data-name="Path 167"/><path fill="#1684b9" d="M329.447 61.855a4.081 4.081 0 0 0 .979-1.153l.013-.024a.243.243 0 0 0 .052-.184h.012-.007l-.005.005h-.005c-.025.022-.051.043-.075.067a22 22 0 0 1-2.026 1.82 8.917 8.917 0 0 0-.87.734.84.84 0 0 0-.256.482c.028-.019.054-.034.077-.053.706-.557 1.437-1.084 2.106-1.688" data-name="Path 168"/><path fill="#1684b9" d="M335.458 60.638a2.279 2.279 0 0 0 .393-.578c.012-.022.038-.051 0-.079-.04 0-.059.031-.082.054-.932.878-1.908 1.7-2.9 2.516a.928.928 0 0 0-.291.5c.025-.016.051-.029.074-.046a28.086 28.086 0 0 0 2.8-2.37" data-name="Path 169"/><path fill="#1684b9" d="M329.049 66.884a2.07 2.07 0 0 0 .377-1.108.4.4 0 0 0-.091-.286.215.215 0 0 0-.373.009 2.449 2.449 0 0 0-.266.521c-.086.207.133.344.289.312.039-.008.075-.044.127-.011a.818.818 0 0 1-.31.423c-.16.113-.323.222-.483.334a.353.353 0 0 0-.149.168 4.408 4.408 0 0 0 .777-.268.293.293 0 0 0 .1-.1" data-name="Path 170"/><path fill="#1684b9" d="M322.425 65.369c-.063-.042-.1-.039-.137.039a8.75 8.75 0 0 1-.207.438.144.144 0 0 0 .05.2 1.31 1.31 0 0 1 .254.251c.107.144.106.2-.015.335a3.153 3.153 0 0 1-.5.451.317.317 0 0 0-.138.141.283.283 0 0 0 .153-.006 1.214 1.214 0 0 0 .926-1.147.748.748 0 0 0-.383-.7" data-name="Path 171"/><path fill="#1684b9" d="M324.614 65.203a.774.774 0 0 1-.439.387.723.723 0 0 0-.365.361 3.188 3.188 0 0 0-.14.3 1 1 0 0 1-.435.518c-.169.108-.332.224-.5.339-.027.019-.066.04-.053.079s.06.042.1.04a2.751 2.751 0 0 0 .39-.064.6.6 0 0 0 .458-.386c.046-.11.1-.219.136-.331a.7.7 0 0 1 .419-.453c.378-.148.415-.5.514-.836-.065 0-.079.025-.087.046" data-name="Path 172"/><path fill="#1684b9" d="M345.297 62.726a.093.093 0 0 0-.1.054l-.205.308a1.387 1.387 0 0 0-.211-.2c-.082-.064-.146-.072-.2.035a3.813 3.813 0 0 1-.193.331c-.064.1-.045.159.048.231.27.208.3.209.47-.09.057-.1.093-.1.171-.024.219.208.26.2.423-.062a.822.822 0 0 0 .054-.1.365.365 0 0 0-.252-.478" data-name="Path 173"/><path fill="#1684b9" d="M305.413 65.824c-.05-.022-.113-.062-.155-.016-.066.07-.138.17-.117.257a.123.123 0 0 1-.051.144.9.9 0 0 0-.259.374c-.05.154-.027.218.116.289.088.044.094.094.05.172a.539.539 0 0 1-.471.282.3.3 0 0 1-.347-.32.96.96 0 0 1 .095-.381.84.84 0 0 0 .1-.332 2.366 2.366 0 0 0-.3.8.506.506 0 0 0 .207.527.532.532 0 0 0 .569-.159 1.182 1.182 0 0 0 .292-.6c.028-.135.029-.255-.129-.316-.069-.027-.072-.071-.025-.129a.957.957 0 0 1 .3-.23.431.431 0 0 0 .188-.168.124.124 0 0 0-.066-.2" data-name="Path 174"/><path fill="#1684b9" d="M338.142 64.139c.071-.126.071-.126.179-.022.187.182.209.18.355-.042a.84.84 0 0 0 .045-.077.344.344 0 0 0-.158-.505c-.065-.035-.11-.03-.149.035-.059.1-.12.195-.188.3a.894.894 0 0 0-.2-.207c-.076-.059-.132-.063-.181.032s-.114.219-.18.324a.152.152 0 0 0 .044.235c.249.2.274.2.43-.076" data-name="Path 175"/><path fill="#1684b9" d="M327.646 67.39c-.067-.042-.117-.04-.16.032-.057.094-.117.187-.186.3-.072-.078-.132-.149-.2-.214s-.12-.053-.164.028c-.059.109-.116.218-.181.323s-.048.175.054.253c.233.177.262.181.4-.079.059-.111.1-.114.184-.03.187.182.2.177.35-.035l.028-.042a.347.347 0 0 0-.128-.532" data-name="Path 176"/><path fill="#1684b9" d="M316.328 65.344c.23.177.263.179.4-.081.058-.11.094-.119.182-.031.186.186.207.18.357-.04l.021-.032a.346.346 0 0 0-.12-.533c-.071-.046-.124-.044-.169.033s-.111.181-.171.279c-.071-.069-.13-.13-.192-.188s-.138-.074-.19.028-.109.212-.173.312-.043.178.056.254" data-name="Path 177"/><path fill="#1684b9" d="M339.283 65.545c.141.121.175.115.28-.034.046-.065.08-.179.134-.188.076-.013.129.094.193.147.04.033.084.078.133.031a.72.72 0 0 0 .236-.371.287.287 0 0 0-.069-.226c-.158-.207-.232-.2-.365.015-.1.173-.1.173-.242.037a1.287 1.287 0 0 0-.066-.061c-.068-.059-.126-.063-.174.026s-.094.162-.137.245c-.142.277-.12.208.076.378" data-name="Path 178"/><path fill="#1684b9" d="M330.627 63.383c.232.181.255.182.4-.075.077-.132.077-.132.188-.026.183.174.195.172.34-.036l.021-.032a.339.339 0 0 0-.1-.538c-.076-.056-.135-.061-.187.03s-.111.181-.172.279l-.192-.2c-.063-.065-.133-.066-.183.027s-.113.21-.175.311a.166.166 0 0 0 .051.254" data-name="Path 179"/><path fill="#1684b9" d="M309.492 65.595c.145.123.176.115.287-.039.046-.064.06-.18.134-.186s.121.1.183.148c.039.033.084.082.133.037a.675.675 0 0 0 .242-.4.463.463 0 0 0-.251-.356.084.084 0 0 0-.106.047c-.05.079-.1.158-.147.239-.03.053-.053.052-.092.007a1.592 1.592 0 0 0-.153-.153c-.063-.056-.12-.055-.164.027s-.1.161-.138.244c-.139.268-.124.213.073.381" data-name="Path 180"/><path fill="#1684b9" d="M324.061 67.482a.079.079 0 0 0-.115.04l-.184.305a1.21 1.21 0 0 0-.177-.192c-.08-.07-.144-.083-.195.031-.029.066-.07.127-.1.192-.138.3-.176.226.114.47.069.058.123.051.169-.019.06-.09.115-.184.19-.306.065.077.122.146.182.212s.1.051.15-.008a1.076 1.076 0 0 0 .161-.259.363.363 0 0 0-.2-.466" data-name="Path 181"/><path fill="#1684b9" d="M321.482 64.36a2.177 2.177 0 0 0-.259 1.105 3.7 3.7 0 0 1-.073 1.067c-.007.029-.03.073.014.088s.058-.028.077-.055a1.537 1.537 0 0 0 .208-.477 4.085 4.085 0 0 0 .088-.951c.015-.288.008-.577.051-.875-.081.014-.088.062-.106.1" data-name="Path 182"/><path fill="#1684b9" d="M333.608 64.695c-.03-.006-.044.021-.055.044a2.147 2.147 0 0 0-.269.845 5.91 5.91 0 0 1-.09 1.38c0 .042-.019.073.016.083s.053-.023.069-.046a1.547 1.547 0 0 0 .26-.686c.074-.52.028-1.047.09-1.568 0-.023 0-.047-.022-.052" data-name="Path 183"/><path fill="#1684b9" d="M308.141 56.901a1.341 1.341 0 0 0 .267-.568.567.567 0 0 0-.32-.478.1.1 0 0 0-.147.055 4.886 4.886 0 0 0-.276.59.1.1 0 0 0 .022.128q.165.142.332.281a.076.076 0 0 0 .122-.008" data-name="Path 184"/><path fill="#1684b9" d="M313.002 65.523c-.034-.008-.053.023-.065.051-.057.128-.12.254-.167.386a1.756 1.756 0 0 1-.845 1 1.478 1.478 0 0 0-.218.155c-.025.02-.055.049-.038.087s.058.026.091.022a4.03 4.03 0 0 0 .459-.108.663.663 0 0 0 .448-.384 5.325 5.325 0 0 0 .269-.7c.043-.138.074-.279.1-.393 0-.062 0-.1-.037-.111" data-name="Path 185"/><path fill="#1684b9" d="M305.283 63.279a.085.085 0 0 0-.12.034 3.929 3.929 0 0 0-.31.543.118.118 0 0 0 .032.149c.092.089.183.179.273.269.043.043.087.058.131.007a1.012 1.012 0 0 0 .279-.537.581.581 0 0 0-.285-.466" data-name="Path 186"/><path fill="#1684b9" d="M306.689 66.308c-.167.012-.229.129-.315.23-.151-.13-.18-.129-.318 0l-.027.027a.207.207 0 0 1-.226.046.165.165 0 0 1-.108-.172c0-.1.005-.2.01-.294 0-.047.008-.093.015-.14a2.484 2.484 0 0 0 .048-.416c-.032.018-.036.054-.05.083a2.691 2.691 0 0 0-.149.813.9.9 0 0 0 0 .255.2.2 0 0 0 .138.183.215.215 0 0 0 .237-.086c.032-.04.06-.083.093-.122s.079-.1.15-.063.07.091.063.154a.455.455 0 0 0-.005.207c.052-.129.088-.228.132-.324s.081-.187.17-.194a.49.49 0 0 0 .242-.128.248.248 0 0 0 .1-.272.3.3 0 0 1-.2.21" data-name="Path 187"/><path fill="#1684b9" d="m344.685 62.641.242.188c.04.031.084.05.123 0a.924.924 0 0 0 .214-.424.423.423 0 0 0-.242-.352.1.1 0 0 0-.148.044l-.214.419a.085.085 0 0 0 .025.122" data-name="Path 188"/><path fill="#1684b9" d="M338.116 62.865a4.406 4.406 0 0 0-.2.414.086.086 0 0 0 .028.112l.227.186c.037.03.076.043.111 0a.991.991 0 0 0 .2-.434.419.419 0 0 0-.214-.317.1.1 0 0 0-.158.04" data-name="Path 189"/><path fill="#1684b9" d="M328.437 63.139a2.653 2.653 0 0 0-.174.353c-.021.055-.055.117 0 .166a.8.8 0 0 0 .3.2c.011 0 .032-.012.042-.025a1.023 1.023 0 0 0 .213-.433.549.549 0 0 0-.21-.291c-.067-.059-.126-.057-.175.03" data-name="Path 190"/><path fill="#1684b9" d="M335.969 68.155a.086.086 0 0 0-.1.053 2.259 2.259 0 0 0-.2.412c-.017.049-.023.095.021.128.084.065.172.124.259.185a.053.053 0 0 0 .079-.013 1.043 1.043 0 0 0 .213-.408.537.537 0 0 0-.267-.357" data-name="Path 191"/><path fill="#1684b9" d="M320.001 63.675a.746.746 0 0 0 .3.182c.009 0 .024-.01.031-.019a1.026 1.026 0 0 0 .212-.414.518.518 0 0 0-.278-.353c-.047-.007-.071.021-.091.054a2.367 2.367 0 0 0-.2.4c-.02.052-.031.112.025.151" data-name="Path 192"/><path fill="#1684b9" d="M301.092 67.298a1.262 1.262 0 0 1 0-1.52c.02-.024.069-.047.038-.082s-.068.009-.093.03a1.012 1.012 0 0 0-.353.831.99.99 0 0 0 .349.789c.026.022.06.07.1.032s-.019-.057-.038-.08" data-name="Path 193"/><path fill="#1684b9" d="M307.127 65.725c-.023-.019-.05-.065-.084-.033s.013.065.033.089a1.254 1.254 0 0 1 0 1.519c-.019.023-.07.043-.034.08s.061-.009.086-.028a1 1 0 0 0 .36-.807 1.012 1.012 0 0 0-.358-.819" data-name="Path 194"/><path fill="#1684b9" d="M301.965 60.109a.213.213 0 0 0 .135.029.367.367 0 0 0 .284-.122l.006-.008a.227.227 0 0 0 .024-.04.207.207 0 0 0 .018-.107c-.008-.078-.087-.148-.037-.231s.146-.054.221-.079a.1.1 0 0 0 .074-.106c0-.06-.047-.074-.1-.077a.287.287 0 0 0-.3.347c.036.164.006.208-.158.23-.042.006-.085 0-.128.007s-.085-.008-.1.04a.111.111 0 0 0 .058.118" data-name="Path 195"/><path fill="#1684b9" d="M303.868 65.447c-.039.075-.082.148-.114.225-.018.045.124.175.167.153a.249.249 0 0 0 .128-.22c0-.091-.075-.135-.135-.177a.032.032 0 0 0-.045.019" data-name="Path 196"/><path fill="#1684b9" d="M303.09 65.836a.131.131 0 0 0-.172.041c-.074.082-.141.171-.211.257-.026.031-.043.08-.1.071-.156-.026-.168.079-.169.187a1.581 1.581 0 0 1-.051.43.682.682 0 0 1-.749.483.276.276 0 0 1-.256-.331 1.049 1.049 0 0 1 .1-.328.452.452 0 0 0 .071-.251 1.846 1.846 0 0 0-.276.65.773.773 0 0 0 0 .317.369.369 0 0 0 .44.292.838.838 0 0 0 .564-.405 1.89 1.89 0 0 0 .261-.7c.01-.046.019-.08.085-.087a.556.556 0 0 0 .5-.46c.011-.058.026-.124-.038-.163m-.114.265a.306.306 0 0 1-.23.084.561.561 0 0 1 .155-.188.1.1 0 0 1 .129.013c.04.05-.024.07-.053.091" data-name="Path 197"/><path fill="#1684b9" d="M304.036 66.251c-.235-.045-.26-.035-.388.171a1.217 1.217 0 0 0-.072.12c-.051.108-.114.077-.179.019a.2.2 0 0 1-.064-.161c0-.089.006-.179.016-.267.02-.174.045-.347.067-.52a.1.1 0 0 0-.055.06 2.887 2.887 0 0 0-.157.912.283.283 0 0 0 .14.317.344.344 0 0 0 .384-.046 3.41 3.41 0 0 0 .448-.593c-.073-.006-.107-.005-.14-.012m-.112.2a.406.406 0 0 1-.313.162.718.718 0 0 1 .136-.223.129.129 0 0 1 .139-.04c.066.016.093.042.038.1" data-name="Path 198"/><path fill="#1684b9" d="M314.142 65.476c-.031 0-.066.011-.1-.023l.274-.256c.559-.527 1.129-1.044 1.653-1.606a1.378 1.378 0 0 0 .268-.517c.01-.028.025-.064 0-.083s-.05.016-.07.037c-.755.833-1.583 1.592-2.387 2.376-.034.033-.062.079-.125.085.024-.4.113-.787.119-1.181h-.031a.414.414 0 0 0-.025.043 6.169 6.169 0 0 0-.391 2.2.887.887 0 0 0 .095.484.368.368 0 0 0 .434.187.613.613 0 0 0 .366-.284 1.989 1.989 0 0 0 .331-1.022.382.382 0 0 0-.4-.439m.011 1.057a.415.415 0 0 1-.2.042.316.316 0 0 1-.331-.146.193.193 0 0 1 .049-.263.443.443 0 0 1 .491-.052.222.222 0 0 1-.012.42" data-name="Path 199"/></g></svg>