<svg aria-hidden="true" xmlns="http://www.w3.org/2000/svg" viewBox="0 0 39.998 36"><path fill="#4c9b97" d="m31.998 27.999-32 8v-28l32-8Z"/><path fill="#d4ecdd" d="m35.998 31.999-36 4v-28l36-4Z"/><path fill="#4c9b97" d="M39.998 35.998h-40v-28h40ZM9.969 18.444a10.02 10.02 0 0 0 .787 3.905 10.058 10.058 0 0 0 3.637 4.411 9.98 9.98 0 0 0 5.641 1.714 9.909 9.909 0 0 0 3.871-.787 10.044 10.044 0 0 0 4.41-3.637 9.924 9.924 0 0 0 1.715-5.606Z"/><path fill="#fff" d="M9.969 18.445a10.02 10.02 0 0 0 .787 3.905 10.058 10.058 0 0 0 3.637 4.411 9.98 9.98 0 0 0 5.641 1.714 9.909 9.909 0 0 0 3.871-.787 10.044 10.044 0 0 0 4.41-3.637 9.924 9.924 0 0 0 1.715-5.606Z"/></svg>