<svg xmlns="http://www.w3.org/2000/svg" xmlns:xlink="http://www.w3.org/1999/xlink" viewBox="0 0 426 312.586"><defs><linearGradient id="a" x1="386.437" x2="388.268" y1="29.399" y2="58.397" gradientUnits="objectBoundingBox"><stop offset="0" stop-color="#fedd62"/><stop offset="1" stop-color="#ffc22f"/></linearGradient><linearGradient xlink:href="#a" id="c" x1="387.353" x2="389.183" y1="21.682" y2="50.68"/><linearGradient xlink:href="#a" id="d" x1="388.297" x2="390.127" y1="13.78" y2="42.778"/><filter id="b" width="426" height="282" x="0" y="0" filterUnits="userSpaceOnUse"><feOffset/><feGaussianBlur result="blur" stdDeviation="10"/><feFlood flood-color="#262626" flood-opacity=".078"/><feComposite in2="blur" operator="in"/><feComposite in="SourceGraphic"/></filter></defs><g data-name="Group 140"><path fill="#e5e5e5" d="M20 161h163a10 10 0 0 1 10 10v91a10 10 0 0 1-10 10H20a10 10 0 0 1-10-10v-91a10 10 0 0 1 10-10Z" data-name="Path 927"/><path fill="#234580" d="M235 10a1 1 0 1 1-1 1 1 1 0 0 1 1-1Z" data-name="Path 699"/><path fill="#234580" d="M245 10a1 1 0 1 1-1 1 1 1 0 0 1 1-1Z" data-name="Path 700"/><path fill="#234580" d="M255 10a1 1 0 1 1-1 1 1 1 0 0 1 1-1Z" data-name="Path 701"/><path fill="#234580" d="M265 10a1 1 0 1 1-1 1 1 1 0 0 1 1-1Z" data-name="Path 702"/><path fill="#234580" d="M275 10a1 1 0 1 1-1 1 1 1 0 0 1 1-1Z" data-name="Path 703"/><path fill="#234580" d="M285 10a1 1 0 1 1-1 1 1 1 0 0 1 1-1Z" data-name="Path 704"/><path fill="#234580" d="M295 10a1 1 0 1 1-1 1 1 1 0 0 1 1-1Z" data-name="Path 705"/><path fill="#234580" d="M305 10a1 1 0 1 1-1 1 1 1 0 0 1 1-1Z" data-name="Path 706"/><path fill="#234580" d="M315 10a1 1 0 1 1-1 1 1 1 0 0 1 1-1Z" data-name="Path 707"/><path fill="#234580" d="M325 10a1 1 0 1 1-1 1 1 1 0 0 1 1-1Z" data-name="Path 708"/><path fill="#234580" d="M335 10a1 1 0 1 1-1 1 1 1 0 0 1 1-1Z" data-name="Path 709"/><path fill="#234580" d="M345 10a1 1 0 1 1-1 1 1 1 0 0 1 1-1Z" data-name="Path 710"/><path fill="#234580" d="M355 10a1 1 0 1 1-1 1 1 1 0 0 1 1-1Z" data-name="Path 711"/><path fill="#234580" d="M365 10a1 1 0 1 1-1 1 1 1 0 0 1 1-1Z" data-name="Path 712"/><path fill="#234580" d="M375 10a1 1 0 1 1-1 1 1 1 0 0 1 1-1Z" data-name="Path 713"/><path fill="#234580" d="M385 10a1 1 0 1 1-1 1 1 1 0 0 1 1-1Z" data-name="Path 714"/><path fill="#234580" d="M395 10a1 1 0 1 1-1 1 1 1 0 0 1 1-1Z" data-name="Path 715"/><path fill="#234580" d="M405 10a1 1 0 1 1-1 1 1 1 0 0 1 1-1Z" data-name="Path 716"/><path fill="#234580" d="M415 10a1 1 0 1 1-1 1 1 1 0 0 1 1-1Z" data-name="Path 717"/><path fill="#234580" d="M235 20a1 1 0 1 1-1 1 1 1 0 0 1 1-1Z" data-name="Path 718"/><path fill="#234580" d="M245 20a1 1 0 1 1-1 1 1 1 0 0 1 1-1Z" data-name="Path 719"/><path fill="#234580" d="M255 20a1 1 0 1 1-1 1 1 1 0 0 1 1-1Z" data-name="Path 720"/><path fill="#234580" d="M265 20a1 1 0 1 1-1 1 1 1 0 0 1 1-1Z" data-name="Path 721"/><path fill="#234580" d="M275 20a1 1 0 1 1-1 1 1 1 0 0 1 1-1Z" data-name="Path 722"/><path fill="#234580" d="M285 20a1 1 0 1 1-1 1 1 1 0 0 1 1-1Z" data-name="Path 723"/><path fill="#234580" d="M295 20a1 1 0 1 1-1 1 1 1 0 0 1 1-1Z" data-name="Path 724"/><path fill="#234580" d="M305 20a1 1 0 1 1-1 1 1 1 0 0 1 1-1Z" data-name="Path 725"/><path fill="#234580" d="M315 20a1 1 0 1 1-1 1 1 1 0 0 1 1-1Z" data-name="Path 726"/><path fill="#234580" d="M325 20a1 1 0 1 1-1 1 1 1 0 0 1 1-1Z" data-name="Path 727"/><path fill="#234580" d="M335 20a1 1 0 1 1-1 1 1 1 0 0 1 1-1Z" data-name="Path 728"/><path fill="#234580" d="M345 20a1 1 0 1 1-1 1 1 1 0 0 1 1-1Z" data-name="Path 729"/><path fill="#234580" d="M355 20a1 1 0 1 1-1 1 1 1 0 0 1 1-1Z" data-name="Path 730"/><path fill="#234580" d="M365 20a1 1 0 1 1-1 1 1 1 0 0 1 1-1Z" data-name="Path 731"/><path fill="#234580" d="M375 20a1 1 0 1 1-1 1 1 1 0 0 1 1-1Z" data-name="Path 732"/><path fill="#234580" d="M385 20a1 1 0 1 1-1 1 1 1 0 0 1 1-1Z" data-name="Path 733"/><path fill="#234580" d="M395 20a1 1 0 1 1-1 1 1 1 0 0 1 1-1Z" data-name="Path 734"/><path fill="#234580" d="M405 20a1 1 0 1 1-1 1 1 1 0 0 1 1-1Z" data-name="Path 735"/><path fill="#234580" d="M415 20a1 1 0 1 1-1 1 1 1 0 0 1 1-1Z" data-name="Path 736"/><path fill="#234580" d="M405 30a1 1 0 1 1-1 1 1 1 0 0 1 1-1Z" data-name="Path 754"/><path fill="#234580" d="M415 30a1 1 0 1 1-1 1 1 1 0 0 1 1-1Z" data-name="Path 755"/><path fill="#234580" d="M405 40a1 1 0 1 1-1 1 1 1 0 0 1 1-1Z" data-name="Path 773"/><path fill="#234580" d="M415 40a1 1 0 1 1-1 1 1 1 0 0 1 1-1Z" data-name="Path 774"/><path fill="#234580" d="M405 50a1 1 0 1 1-1 1 1 1 0 0 1 1-1Z" data-name="Path 792"/><path fill="#234580" d="M415 50a1 1 0 1 1-1 1 1 1 0 0 1 1-1Z" data-name="Path 793"/><path fill="#234580" d="M405 60a1 1 0 1 1-1 1 1 1 0 0 1 1-1Z" data-name="Path 811"/><path fill="#234580" d="M415 60a1 1 0 1 1-1 1 1 1 0 0 1 1-1Z" data-name="Path 812"/><path fill="#234580" d="M405 70a1 1 0 1 1-1 1 1 1 0 0 1 1-1Z" data-name="Path 830"/><path fill="#234580" d="M415 70a1 1 0 1 1-1 1 1 1 0 0 1 1-1Z" data-name="Path 831"/><path fill="#234580" d="M405 80a1 1 0 1 1-1 1 1 1 0 0 1 1-1Z" data-name="Path 849"/><path fill="#234580" d="M415 80a1 1 0 1 1-1 1 1 1 0 0 1 1-1Z" data-name="Path 850"/><path fill="#234580" d="M405 90a1 1 0 1 1-1 1 1 1 0 0 1 1-1Z" data-name="Path 868"/><path fill="#234580" d="M415 90a1 1 0 1 1-1 1 1 1 0 0 1 1-1Z" data-name="Path 869"/><path fill="#234580" d="M405 100a1 1 0 1 1-1 1 1 1 0 0 1 1-1Z" data-name="Path 887"/><path fill="#234580" d="M415 100a1 1 0 1 1-1 1 1 1 0 0 1 1-1Z" data-name="Path 888"/><path fill="#234580" d="M405 110a1 1 0 1 1-1 1 1 1 0 0 1 1-1Z" data-name="Path 906"/><path fill="#234580" d="M415 110a1 1 0 1 1-1 1 1 1 0 0 1 1-1Z" data-name="Path 907"/><path fill="#234580" d="M405 120a1 1 0 1 1-1 1 1 1 0 0 1 1-1Z" data-name="Path 925"/><path fill="#234580" d="M415 120a1 1 0 1 1-1 1 1 1 0 0 1 1-1Z" data-name="Path 926"/><g filter="url(#b)"><path fill="#f5f5f5" d="M40 30h346a10 10 0 0 1 10 10v202a10 10 0 0 1-10 10H40a10 10 0 0 1-10-10V40a10 10 0 0 1 10-10Z" data-name="Path 698"/></g><path fill="#fff" d="M368.744 71H57.256A7.5 7.5 0 0 0 50 78.723V203.28a7.5 7.5 0 0 0 7.256 7.723h311.488A7.5 7.5 0 0 0 376 203.28V78.723A7.5 7.5 0 0 0 368.744 71Z" data-name="Path 21"/><path fill="#f4f6f9" d="M317.871 128.25a18.5 18.5 0 1 0-18.5-18.5 18.5 18.5 0 0 0 18.5 18.5Z" data-name="Path 22"/><path fill="#5b75a0" d="M317.691 111.33a5.71 5.71 0 1 0-5.71-5.71 5.71 5.71 0 0 0 5.71 5.71Z" data-name="Path 23"/><path fill="#5b75a0" fill-rule="evenodd" d="M332.772 120.715a18.5 18.5 0 0 1-29.858-.076c15-16.753 29.857.07 29.857.07Z" data-name="Path 24"/><path fill="#f5f5f5" d="M353.741 136.75h-71a4.5 4.5 0 0 0 0 9h71a4.5 4.5 0 0 0 0-9Z" data-name="Path 25"/><path fill="#f5f5f5" d="M353.741 149.75h-71a4.5 4.5 0 1 0 0 9h71a4.5 4.5 0 0 0 0-9Z" data-name="Path 26"/><path fill="#5b75a0" d="M132.801 181.6a36.36 36.36 0 1 0-36.25-36.36 36.305 36.305 0 0 0 36.25 36.36Z" data-name="Path 27"/><path fill="none" stroke="#fff" stroke-miterlimit="10" stroke-width="3" d="M155.341 127.08h-4.38a3.13 3.13 0 0 0-3 2.22l-7.08 23.11 1.78 3.94a1.291 1.291 0 0 1-1.18 1.82h-22.66" data-name="Path 28"/><path fill="none" stroke="#fff" stroke-miterlimit="10" stroke-width="3" d="M146.141 134.01h-31.25l3.99 17.4h22.83" data-name="Path 29"/><path fill="none" stroke="#fff" stroke-miterlimit="10" stroke-width="3" d="m124.361 134.28 3.05 16.85" data-name="Path 30"/><path fill="none" stroke="#fff" stroke-miterlimit="10" stroke-width="3" d="m136.781 134.01-2.72 17.4" data-name="Path 31"/><path fill="none" stroke="#fff" stroke-miterlimit="10" stroke-width="3" d="M140.711 164.94a2.94 2.94 0 1 0-2.94-2.94 2.94 2.94 0 0 0 2.94 2.94Z" data-name="Path 32"/><path fill="none" stroke="#fff" stroke-miterlimit="10" stroke-width="3" d="M123.861 164.94a2.94 2.94 0 1 0-2.94-2.94 2.94 2.94 0 0 0 2.94 2.94Z" data-name="Path 33"/><path fill="#5bb4b0" d="M271.051 192.26h-163.01a10.61 10.61 0 0 0-10.61 10.61v96.94a10.61 10.61 0 0 0 10.61 10.61h163.01a10.61 10.61 0 0 0 10.61-10.61v-96.94a10.61 10.61 0 0 0-10.61-10.61Z" data-name="Path 81"/><path fill="#fff" d="M134.341 204.01h-18.62a4.1 4.1 0 0 0-4.1 4.1v7.54a4.1 4.1 0 0 0 4.1 4.1h18.62a4.1 4.1 0 0 0 4.1-4.1v-7.54a4.1 4.1 0 0 0-4.1-4.1Z" data-name="Path 82"/><path fill="#fff" d="M264.091 243.47h-148.37a4.1 4.1 0 0 0-4.1 4.1v7.54a4.1 4.1 0 0 0 4.1 4.1h148.37a4.1 4.1 0 0 0 4.1-4.1v-7.54a4.1 4.1 0 0 0-4.1-4.1Z" data-name="Path 83"/><path fill="#fff" d="M265.561 268.3h-39.29a2.63 2.63 0 0 0-2.63 2.63v6.27a2.629 2.629 0 0 0 2.63 2.63h39.29a2.629 2.629 0 0 0 2.63-2.63v-6.27a2.63 2.63 0 0 0-2.63-2.63Z" data-name="Path 84"/><path fill="#fff" d="M265.561 282.26h-39.29a2.63 2.63 0 0 0-2.63 2.63v6.27a2.629 2.629 0 0 0 2.63 2.63h39.29a2.629 2.629 0 0 0 2.63-2.63v-6.27a2.63 2.63 0 0 0-2.63-2.63Z" data-name="Path 85"/><path fill="#fff" d="M152.701 282.26h-38.45a2.63 2.63 0 0 0-2.63 2.63v6.27a2.629 2.629 0 0 0 2.63 2.63h38.45a2.63 2.63 0 0 0 2.63-2.63v-6.27a2.631 2.631 0 0 0-2.63-2.63Z" data-name="Path 86"/><path fill="#4c9b97" d="M196.301 158.45h-24.78v17.79h-12.13l25.77 36.08 25.61-35.91h-14.63s-.5-18.63.16-17.96Z" data-name="Path 87"/><path fill="#4c9b97" d="M188.761 146.89h-10.84c0-26.16-21-47.45-46.8-47.45s-46.79 21.29-46.79 47.45h-10.81c0-32.23 25.86-58.45 57.64-58.45s57.6 26.22 57.6 58.45Z" data-name="Path 88"/><path fill="#418985" d="M347.951 212.15s-5.66 12.31-20.46 8.65a37.081 37.081 0 0 1-23.79-15.7 14.726 14.726 0 0 1-1.85-13.06 19.346 19.346 0 0 1 2.62-5Z" data-name="Path 89"/><path fill="#4c9b97" d="M347.941 212.144c4.3-7.442-1.952-19.094-13.957-26.025s-25.22-6.517-29.517.925 1.952 19.1 13.957 26.026 25.22 6.517 29.517-.926Z" data-name="Path 90"/><path fill="#418985" d="M333.891 213.98a31 31 0 0 1-24.82-14.55c-2.24-4.05-2.54-7.92-.82-10.89 3.49-6 14.37-6.32 24.25-.61s15.09 15.26 11.6 21.31c-1.71 3-5.21 4.65-9.85 4.74Zm-24.78-25c-1.53 2.65-1.23 6.17.83 9.91a29.949 29.949 0 0 0 24.3 14c4.27-.08 7.46-1.59 9-4.24 3.22-5.57-1.82-14.52-11.23-20s-19.67-5.32-22.89.25Z" data-name="Path 91"/><path fill="#418985" d="M351.591 293.21s.42 14.39-14.6 17.92a35.79 35.79 0 0 1-28.56-3.67 15.682 15.682 0 0 1-7.56-11.55 21.424 21.424 0 0 1 .13-6Z" data-name="Path 92"/><path fill="#4c9b97" d="M351.557 293.3c.634-9.112-10.174-17.287-24.14-18.259s-25.8 5.628-26.437 14.74 10.174 17.288 24.141 18.26 25.8-5.628 26.436-14.741Z" data-name="Path 93"/><path fill="url(#a)" d="M360.76 277.37c-.7 0-1.42 0-2.14-.07-11.49-.74-20.49-7.36-20.06-14.74a10.173 10.173 0 0 1 3.72-7c4.07-3.6 10.77-5.48 17.92-5 11.5.74 20.5 7.36 20.07 14.74a10.173 10.173 0 0 1-3.72 7c-3.67 3.23-9.46 5.07-15.79 5.07Zm-21.2-14.75c-.4 6.83 8.18 13 19.13 13.69 6.89.45 13.32-1.34 17.2-4.77a9.245 9.245 0 0 0 3.38-6.34c.4-6.83-8.18-13-19.13-13.69-6.89-.45-13.32 1.34-17.2 4.77a9.156 9.156 0 0 0-3.38 6.34Z" data-name="Path 94" transform="translate(-33.479 26.98)"/><path fill="#418985" d="M351.591 286.23s.42 14.39-14.6 17.92a35.79 35.79 0 0 1-28.56-3.67 15.692 15.692 0 0 1-7.56-11.5 21.424 21.424 0 0 1 .13-6Z" data-name="Path 95"/><path fill="#4c9b97" d="M351.554 286.326c.634-9.113-10.174-17.288-24.141-18.26s-25.8 5.628-26.436 14.741 10.174 17.288 24.14 18.26 25.8-5.628 26.437-14.741Z" data-name="Path 96"/><path fill="url(#c)" d="M360.77 270.39c-.71 0-1.43 0-2.15-.07-11.49-.74-20.49-7.36-20.06-14.74a10.173 10.173 0 0 1 3.72-7c4.07-3.61 10.78-5.48 17.92-5 11.5.74 20.5 7.36 20.07 14.74a10.183 10.183 0 0 1-3.72 7c-3.67 3.23-9.46 5.07-15.78 5.07Zm-21.21-14.75c-.4 6.83 8.18 13 19.13 13.68 6.89.45 13.32-1.33 17.2-4.76a9.26 9.26 0 0 0 3.38-6.34c.4-6.83-8.18-13-19.13-13.69-6.9-.45-13.32 1.34-17.2 4.77a9.156 9.156 0 0 0-3.38 6.34Z" data-name="Path 97" transform="translate(-33.479 26.98)"/><path fill="#418985" d="M351.591 279.08s.42 14.39-14.6 17.92a35.754 35.754 0 0 1-28.56-3.66 15.706 15.706 0 0 1-7.56-11.55 21.462 21.462 0 0 1 .13-6Z" data-name="Path 98"/><path fill="#4c9b97" d="M351.551 279.18c.634-9.113-10.174-17.288-24.14-18.26s-25.8 5.628-26.437 14.741 10.174 17.288 24.141 18.259 25.806-5.628 26.436-14.74Z" data-name="Path 99"/><path fill="url(#d)" d="M360.77 263.24c-.71 0-1.43 0-2.15-.07-11.49-.74-20.49-7.36-20.06-14.74a10.183 10.183 0 0 1 3.72-7c4.07-3.6 10.78-5.48 17.92-5 11.5.74 20.5 7.36 20.07 14.74a10.173 10.173 0 0 1-3.72 7c-3.67 3.23-9.46 5.07-15.78 5.07Zm-21.21-14.75c-.4 6.83 8.18 13 19.13 13.69 6.89.45 13.31-1.34 17.2-4.77a9.245 9.245 0 0 0 3.38-6.34c.4-6.83-8.18-13-19.13-13.68-6.9-.46-13.32 1.33-17.2 4.76a9.182 9.182 0 0 0-3.38 6.34Z" data-name="Path 100" transform="translate(-33.479 26.98)"/><path fill="#418985" d="M351.591 271.76s.42 14.39-14.6 17.92a35.74 35.74 0 0 1-28.56-3.7 15.683 15.683 0 0 1-7.56-11.54 21.462 21.462 0 0 1 .13-6Z" data-name="Path 101"/><path fill="#4c9b97" d="M351.559 271.852c.634-9.113-10.174-17.288-24.141-18.26s-25.8 5.628-26.437 14.741 10.175 17.287 24.141 18.259 25.799-5.628 26.437-14.74Z" data-name="Path 102"/><path fill="#418985" d="M327.291 282.9c-.71 0-1.43 0-2.15-.07-11.49-.74-20.49-7.36-20.06-14.74a10.183 10.183 0 0 1 3.72-7c4.07-3.6 10.78-5.48 17.92-5 11.5.74 20.5 7.36 20.07 14.74a10.173 10.173 0 0 1-3.72 7c-3.67 3.23-9.46 5.07-15.78 5.07Zm-21.21-14.75c-.4 6.83 8.18 13 19.13 13.69 6.89.45 13.32-1.34 17.2-4.77a9.245 9.245 0 0 0 3.38-6.34c.4-6.83-8.18-13-19.13-13.68-6.89-.45-13.32 1.33-17.2 4.76a9.182 9.182 0 0 0-3.38 6.34Z" data-name="Path 103"/><path fill="#418985" d="M347.521 237.36s5.57 12.36-6.91 21.12a37.1 37.1 0 0 1-27.46 7.62 14.759 14.759 0 0 1-11.07-7.18 19.382 19.382 0 0 1-2-5.26Z" data-name="Path 104"/><path fill="#4c9b97" d="M328.789 260.225c13.112-4.5 21.48-14.736 18.691-22.864s-15.68-11.07-28.792-6.571-21.48 14.736-18.69 22.864 15.679 11.071 28.791 6.571Z" data-name="Path 105"/><path fill="#418985" d="M317.161 258.81a23.437 23.437 0 0 1-4.82-.49c-4.53-1-7.64-3.3-8.75-6.54s-.09-7 2.89-10.54a30.93 30.93 0 0 1 27.51-9.43c4.53 1 7.64 3.29 8.76 6.53s.08 7-2.9 10.54a28.6 28.6 0 0 1-12.57 8.15 31.354 31.354 0 0 1-10.12 1.78Zm12-26.49a30.683 30.683 0 0 0-9.79 1.71 27.687 27.687 0 0 0-12.13 7.86c-2.75 3.27-3.71 6.67-2.72 9.57s3.85 5 8 5.88a29.922 29.922 0 0 0 26.53-9.1c2.75-3.27 3.72-6.67 2.72-9.57s-3.84-5-8-5.89a22.077 22.077 0 0 0-4.6-.46Z" data-name="Path 106"/><path fill="#fff" d="M56 48a5 5 0 1 1-5 5 5 5 0 0 1 5-5Z" data-name="Path 928"/><path fill="#fff" d="M72 48a5 5 0 1 1-5 5 5 5 0 0 1 5-5Z" data-name="Path 929"/><path fill="#fff" d="M88 48a5 5 0 1 1-5 5 5 5 0 0 1 5-5Z" data-name="Path 930"/></g></svg>