<svg xmlns="http://www.w3.org/2000/svg" xmlns:xlink="http://www.w3.org/1999/xlink" viewBox="0 0 574.18 410.45"><defs><linearGradient id="a" x1="386.437" x2="388.268" y1="29.399" y2="58.397" gradientUnits="objectBoundingBox"><stop offset="0" stop-color="#fedd62"/><stop offset="1" stop-color="#ffc22f"/></linearGradient><linearGradient xlink:href="#a" id="c" x1="387.353" x2="389.183" y1="21.682" y2="50.68"/><linearGradient xlink:href="#a" id="d" x1="388.297" x2="390.127" y1="13.78" y2="42.778"/><filter id="b" width="562.32" height="410.45" x="11.86" y="0" filterUnits="userSpaceOnUse"><feOffset dx="46" dy="30"/><feGaussianBlur result="blur" stdDeviation="30"/><feFlood flood-color="#141b32" flood-opacity=".078"/><feComposite in2="blur" operator="in"/><feComposite in="SourceGraphic"/></filter></defs><path fill="#e5e5e5" d="M397.18 84.61H43a14.07 14.07 0 0 0-14.07 14.07v202.31A14.07 14.07 0 0 0 43 315.06h354.18a14.07 14.07 0 0 0 14.07-14.07V98.68a14.07 14.07 0 0 0-14.07-14.07Z" data-name="Path 19" opacity=".8"/><g filter="url(#b)"><path fill="#f5f5f5" d="M424.11 60H69.93a14.07 14.07 0 0 0-14.07 14.07v202.31a14.07 14.07 0 0 0 14.07 14.07h354.18a14.07 14.07 0 0 0 14.07-14.07V74.07A14.07 14.07 0 0 0 424.11 60Z" data-name="Path 20"/></g><path fill="#fff" d="M407.82 108.57H85a7.52 7.52 0 0 0-7.52 7.52v121.28a7.52 7.52 0 0 0 7.52 7.52h322.82a7.52 7.52 0 0 0 7.52-7.52V116.09a7.52 7.52 0 0 0-7.52-7.52Z" data-name="Path 21"/><path fill="#f4f6f9" d="M351.35 160.82a18.5 18.5 0 1 0-18.5-18.5 18.5 18.5 0 0 0 18.5 18.5Z" data-name="Path 22"/><path fill="#5b75a0" d="M351.17 143.9a5.71 5.71 0 1 0-5.71-5.71 5.71 5.71 0 0 0 5.71 5.71Z" data-name="Path 23"/><path fill="#5b75a0" fill-rule="evenodd" d="M366.251 153.285a18.5 18.5 0 0 1-29.858-.076c15-16.753 29.857.07 29.857.07Z" data-name="Path 24"/><path fill="#f5f5f5" d="M387.22 169.32h-71a4.5 4.5 0 0 0 0 9h71a4.5 4.5 0 0 0 0-9Z" data-name="Path 25"/><path fill="#f5f5f5" d="M387.22 182.32h-71a4.5 4.5 0 1 0 0 9h71a4.5 4.5 0 0 0 0-9Z" data-name="Path 26"/><path fill="#5b75a0" d="M166.28 214.17a36.36 36.36 0 1 0-36.25-36.36 36.305 36.305 0 0 0 36.25 36.36Z" data-name="Path 27"/><path fill="none" stroke="#fff" stroke-miterlimit="10" stroke-width="3" d="M188.82 159.65h-4.38a3.13 3.13 0 0 0-3 2.22l-7.08 23.11 1.78 3.94a1.291 1.291 0 0 1-1.18 1.82H152.3" data-name="Path 28"/><path fill="none" stroke="#fff" stroke-miterlimit="10" stroke-width="3" d="M179.62 166.58h-31.25l3.99 17.4h22.83" data-name="Path 29"/><path fill="none" stroke="#fff" stroke-miterlimit="10" stroke-width="3" d="m157.84 166.85 3.05 16.85" data-name="Path 30"/><path fill="none" stroke="#fff" stroke-miterlimit="10" stroke-width="3" d="m170.26 166.58-2.72 17.4" data-name="Path 31"/><path fill="none" stroke="#fff" stroke-miterlimit="10" stroke-width="3" d="M174.19 197.51a2.94 2.94 0 1 0-2.94-2.94 2.94 2.94 0 0 0 2.94 2.94Z" data-name="Path 32"/><path fill="none" stroke="#fff" stroke-miterlimit="10" stroke-width="3" d="M157.34 197.51a2.94 2.94 0 1 0-2.94-2.94 2.94 2.94 0 0 0 2.94 2.94Z" data-name="Path 33"/><path fill="#fff" d="M119.71 92.59a4.99 4.99 0 1 0-4.99-4.99 4.99 4.99 0 0 0 4.99 4.99Z" data-name="Path 34"/><path fill="#fff" d="M101.5 92.59a4.99 4.99 0 1 0-4.99-4.99 4.99 4.99 0 0 0 4.99 4.99Z" data-name="Path 35"/><path fill="#fff" d="M83.63 92.59a4.99 4.99 0 1 0-4.99-4.99 4.99 4.99 0 0 0 4.99 4.99Z" data-name="Path 36"/><g fill="#234580" data-name="Group 62"><path d="M17.58 129.21a1.54 1.54 0 1 0-1.54-1.54 1.54 1.54 0 0 0 1.54 1.54Z" data-name="Path 37"/><path d="M1.54 129.21A1.54 1.54 0 1 0 0 127.67a1.54 1.54 0 0 0 1.54 1.54Z" data-name="Path 38"/><path d="M17.58 142.18a1.54 1.54 0 1 0-1.54-1.54 1.54 1.54 0 0 0 1.54 1.54Z" data-name="Path 39"/><path d="M1.54 142.18A1.54 1.54 0 1 0 0 140.64a1.54 1.54 0 0 0 1.54 1.54Z" data-name="Path 40"/><path d="M17.58 158.14a1.54 1.54 0 1 0-1.54-1.54 1.54 1.54 0 0 0 1.54 1.54Z" data-name="Path 41"/><path d="M1.54 158.14A1.54 1.54 0 1 0 0 156.6a1.54 1.54 0 0 0 1.54 1.54Z" data-name="Path 42"/><path d="M17.58 173.11a1.54 1.54 0 1 0-1.54-1.54 1.54 1.54 0 0 0 1.54 1.54Z" data-name="Path 43"/><path d="M1.54 173.11A1.54 1.54 0 1 0 0 171.57a1.54 1.54 0 0 0 1.54 1.54Z" data-name="Path 44"/><path d="M17.58 189.15a1.54 1.54 0 1 0-1.54-1.54 1.54 1.54 0 0 0 1.54 1.54Z" data-name="Path 45"/><path d="M1.54 189.15A1.54 1.54 0 1 0 0 187.61a1.54 1.54 0 0 0 1.54 1.54Z" data-name="Path 46"/><path d="M17.58 204.11a1.54 1.54 0 1 0-1.54-1.54 1.54 1.54 0 0 0 1.54 1.54Z" data-name="Path 47"/><path d="M1.54 204.11A1.54 1.54 0 1 0 0 202.57a1.54 1.54 0 0 0 1.54 1.54Z" data-name="Path 48"/><path d="M17.58 219.25a1.54 1.54 0 1 0-1.54-1.54 1.54 1.54 0 0 0 1.54 1.54Z" data-name="Path 49"/><path d="M1.54 219.25A1.54 1.54 0 1 0 0 217.71a1.54 1.54 0 0 0 1.54 1.54Z" data-name="Path 50"/><path d="M17.58 235.21a1.54 1.54 0 1 0-1.54-1.54 1.54 1.54 0 0 0 1.54 1.54Z" data-name="Path 51"/><path d="M1.54 235.21A1.54 1.54 0 1 0 0 233.67a1.54 1.54 0 0 0 1.54 1.54Z" data-name="Path 52"/><path d="M17.58 250.25a1.54 1.54 0 1 0-1.54-1.54 1.54 1.54 0 0 0 1.54 1.54Z" data-name="Path 53"/><path d="M1.54 250.25A1.54 1.54 0 1 0 0 248.71a1.54 1.54 0 0 0 1.54 1.54Z" data-name="Path 54"/><path d="M17.58 266.22a1.54 1.54 0 1 0-1.54-1.54 1.54 1.54 0 0 0 1.54 1.54Z" data-name="Path 55"/><path d="M1.54 266.22A1.54 1.54 0 1 0 0 264.68a1.54 1.54 0 0 0 1.54 1.54Z" data-name="Path 56"/><path d="M17.58 281.18a1.54 1.54 0 1 0-1.54-1.54 1.54 1.54 0 0 0 1.54 1.54Z" data-name="Path 57"/><path d="M1.54 281.18A1.54 1.54 0 1 0 0 279.64a1.54 1.54 0 0 0 1.54 1.54Z" data-name="Path 58"/><path d="M17.58 296.23a1.54 1.54 0 1 0-1.54-1.54 1.54 1.54 0 0 0 1.54 1.54Z" data-name="Path 59"/><path d="M1.54 296.23A1.54 1.54 0 1 0 0 294.69a1.54 1.54 0 0 0 1.54 1.54Z" data-name="Path 60"/><path d="M17.58 312.27a1.54 1.54 0 1 0-1.54-1.54 1.54 1.54 0 0 0 1.54 1.54Z" data-name="Path 61"/><path d="M1.54 312.27A1.54 1.54 0 1 0 0 310.73a1.54 1.54 0 0 0 1.54 1.54Z" data-name="Path 62"/><path d="M17.58 327.24a1.54 1.54 0 1 0-1.54-1.54 1.54 1.54 0 0 0 1.54 1.54Z" data-name="Path 63"/><path d="M1.54 327.24A1.54 1.54 0 1 0 0 325.7a1.54 1.54 0 0 0 1.54 1.54Z" data-name="Path 64"/><path d="M17.58 343.28a1.54 1.54 0 1 0-1.54-1.54 1.54 1.54 0 0 0 1.54 1.54Z" data-name="Path 65"/><path d="M1.54 343.28A1.54 1.54 0 1 0 0 341.74a1.54 1.54 0 0 0 1.54 1.54Z" data-name="Path 66"/><path d="M48.68 327.24a1.54 1.54 0 1 0-1.54-1.54 1.54 1.54 0 0 0 1.54 1.54Z" data-name="Path 67"/><path d="M32.63 327.24a1.54 1.54 0 1 0-1.54-1.54 1.54 1.54 0 0 0 1.54 1.54Z" data-name="Path 68"/><path d="M48.68 343.28a1.54 1.54 0 1 0-1.54-1.54 1.54 1.54 0 0 0 1.54 1.54Z" data-name="Path 69"/><path d="M32.63 343.28a1.54 1.54 0 1 0-1.54-1.54 1.54 1.54 0 0 0 1.54 1.54Z" data-name="Path 70"/><path d="M79.69 327.24a1.54 1.54 0 1 0-1.54-1.54 1.54 1.54 0 0 0 1.54 1.54Z" data-name="Path 71"/><path d="M63.64 327.24a1.54 1.54 0 1 0-1.54-1.54 1.54 1.54 0 0 0 1.54 1.54Z" data-name="Path 72"/><path d="M79.69 343.28a1.54 1.54 0 1 0-1.54-1.54 1.54 1.54 0 0 0 1.54 1.54Z" data-name="Path 73"/><path d="M63.64 343.28a1.54 1.54 0 1 0-1.54-1.54 1.54 1.54 0 0 0 1.54 1.54Z" data-name="Path 74"/><path d="M109.69 327.24a1.54 1.54 0 1 0-1.54-1.54 1.539 1.539 0 0 0 1.54 1.54Z" data-name="Path 75"/><path d="M94.65 327.24a1.54 1.54 0 1 0-1.54-1.54 1.54 1.54 0 0 0 1.54 1.54Z" data-name="Path 76"/><path d="M109.69 343.28a1.54 1.54 0 1 0-1.54-1.54 1.539 1.539 0 0 0 1.54 1.54Z" data-name="Path 77"/><path d="M125.53 327.24a1.54 1.54 0 1 0-1.54-1.54 1.539 1.539 0 0 0 1.54 1.54Z" data-name="Path 78"/><path d="M125.53 343.28a1.54 1.54 0 1 0-1.54-1.54 1.539 1.539 0 0 0 1.54 1.54Z" data-name="Path 79"/><path d="M94.65 343.28a1.54 1.54 0 1 0-1.54-1.54 1.54 1.54 0 0 0 1.54 1.54Z" data-name="Path 80"/></g><path fill="#5bb4b0" d="M304.53 224.83H141.52a10.61 10.61 0 0 0-10.61 10.61v96.94a10.61 10.61 0 0 0 10.61 10.61h163.01a10.61 10.61 0 0 0 10.61-10.61v-96.94a10.61 10.61 0 0 0-10.61-10.61Z" data-name="Path 81"/><path fill="#fff" d="M167.82 236.58H149.2a4.1 4.1 0 0 0-4.1 4.1v7.54a4.1 4.1 0 0 0 4.1 4.1h18.62a4.1 4.1 0 0 0 4.1-4.1v-7.54a4.1 4.1 0 0 0-4.1-4.1Z" data-name="Path 82"/><path fill="#fff" d="M297.57 276.04H149.2a4.1 4.1 0 0 0-4.1 4.1v7.54a4.1 4.1 0 0 0 4.1 4.1h148.37a4.1 4.1 0 0 0 4.1-4.1v-7.54a4.1 4.1 0 0 0-4.1-4.1Z" data-name="Path 83"/><path fill="#fff" d="M299.04 300.87h-39.29a2.63 2.63 0 0 0-2.63 2.63v6.27a2.629 2.629 0 0 0 2.63 2.63h39.29a2.629 2.629 0 0 0 2.63-2.63v-6.27a2.63 2.63 0 0 0-2.63-2.63Z" data-name="Path 84"/><path fill="#fff" d="M299.04 314.83h-39.29a2.63 2.63 0 0 0-2.63 2.63v6.27a2.629 2.629 0 0 0 2.63 2.63h39.29a2.629 2.629 0 0 0 2.63-2.63v-6.27a2.63 2.63 0 0 0-2.63-2.63Z" data-name="Path 85"/><path fill="#fff" d="M186.18 314.83h-38.45a2.63 2.63 0 0 0-2.63 2.63v6.27a2.629 2.629 0 0 0 2.63 2.63h38.45a2.63 2.63 0 0 0 2.63-2.63v-6.27a2.631 2.631 0 0 0-2.63-2.63Z" data-name="Path 86"/><path fill="#4c9b97" d="M229.78 191.02H205v17.79h-12.13l25.77 36.08 25.61-35.91h-14.63s-.5-18.63.16-17.96Z" data-name="Path 87"/><path fill="#4c9b97" d="M222.24 179.46H211.4c0-26.16-21-47.45-46.8-47.45s-46.79 21.29-46.79 47.45H107c0-32.23 25.86-58.45 57.64-58.45s57.6 26.22 57.6 58.45Z" data-name="Path 88"/><path fill="#418985" d="M381.43 244.72s-5.66 12.31-20.46 8.65a37.081 37.081 0 0 1-23.79-15.7 14.726 14.726 0 0 1-1.85-13.06 19.346 19.346 0 0 1 2.62-5Z" data-name="Path 89"/><path fill="#4c9b97" d="M381.42 244.714c4.3-7.442-1.952-19.094-13.957-26.025s-25.22-6.517-29.517.925 1.952 19.1 13.957 26.026 25.22 6.517 29.517-.926Z" data-name="Path 90"/><path fill="#418985" d="M367.37 246.55A31 31 0 0 1 342.55 232c-2.24-4.05-2.54-7.92-.82-10.89 3.49-6 14.37-6.32 24.25-.61s15.09 15.26 11.6 21.31c-1.71 3-5.21 4.65-9.85 4.74Zm-24.78-25c-1.53 2.65-1.23 6.17.83 9.91a29.949 29.949 0 0 0 24.3 14c4.27-.08 7.46-1.59 9-4.24 3.22-5.57-1.82-14.52-11.23-20s-19.67-5.32-22.89.25Z" data-name="Path 91"/><path fill="#418985" d="M385.07 325.78s.42 14.39-14.6 17.92a35.79 35.79 0 0 1-28.56-3.67 15.682 15.682 0 0 1-7.56-11.55 21.424 21.424 0 0 1 .13-6Z" data-name="Path 92"/><path fill="#4c9b97" d="M385.036 325.87c.634-9.112-10.174-17.287-24.14-18.259s-25.8 5.628-26.437 14.74 10.174 17.288 24.141 18.26 25.8-5.628 26.436-14.741Z" data-name="Path 93"/><path fill="url(#a)" d="M360.76 277.37c-.7 0-1.42 0-2.14-.07-11.49-.74-20.49-7.36-20.06-14.74a10.173 10.173 0 0 1 3.72-7c4.07-3.6 10.77-5.48 17.92-5 11.5.74 20.5 7.36 20.07 14.74a10.173 10.173 0 0 1-3.72 7c-3.67 3.23-9.46 5.07-15.79 5.07Zm-21.2-14.75c-.4 6.83 8.18 13 19.13 13.69 6.89.45 13.32-1.34 17.2-4.77a9.245 9.245 0 0 0 3.38-6.34c.4-6.83-8.18-13-19.13-13.69-6.89-.45-13.32 1.34-17.2 4.77a9.156 9.156 0 0 0-3.38 6.34Z" data-name="Path 94" transform="translate(0 59.55)"/><path fill="#418985" d="M385.07 318.8s.42 14.39-14.6 17.92a35.79 35.79 0 0 1-28.56-3.67 15.692 15.692 0 0 1-7.56-11.5 21.424 21.424 0 0 1 .13-6Z" data-name="Path 95"/><path fill="#4c9b97" d="M385.033 318.896c.634-9.113-10.174-17.288-24.141-18.26s-25.8 5.628-26.436 14.741 10.174 17.288 24.14 18.26 25.8-5.628 26.437-14.741Z" data-name="Path 96"/><path fill="url(#c)" d="M360.77 270.39c-.71 0-1.43 0-2.15-.07-11.49-.74-20.49-7.36-20.06-14.74a10.173 10.173 0 0 1 3.72-7c4.07-3.61 10.78-5.48 17.92-5 11.5.74 20.5 7.36 20.07 14.74a10.183 10.183 0 0 1-3.72 7c-3.67 3.23-9.46 5.07-15.78 5.07Zm-21.21-14.75c-.4 6.83 8.18 13 19.13 13.68 6.89.45 13.32-1.33 17.2-4.76a9.26 9.26 0 0 0 3.38-6.34c.4-6.83-8.18-13-19.13-13.69-6.9-.45-13.32 1.34-17.2 4.77a9.156 9.156 0 0 0-3.38 6.34Z" data-name="Path 97" transform="translate(0 59.55)"/><path fill="#418985" d="M385.07 311.65s.42 14.39-14.6 17.92a35.754 35.754 0 0 1-28.56-3.66 15.706 15.706 0 0 1-7.56-11.55 21.462 21.462 0 0 1 .13-6Z" data-name="Path 98"/><path fill="#4c9b97" d="M385.03 311.75c.634-9.113-10.174-17.288-24.14-18.26s-25.8 5.628-26.437 14.741 10.174 17.288 24.141 18.259 25.806-5.628 26.436-14.74Z" data-name="Path 99"/><path fill="url(#d)" d="M360.77 263.24c-.71 0-1.43 0-2.15-.07-11.49-.74-20.49-7.36-20.06-14.74a10.183 10.183 0 0 1 3.72-7c4.07-3.6 10.78-5.48 17.92-5 11.5.74 20.5 7.36 20.07 14.74a10.173 10.173 0 0 1-3.72 7c-3.67 3.23-9.46 5.07-15.78 5.07Zm-21.21-14.75c-.4 6.83 8.18 13 19.13 13.69 6.89.45 13.31-1.34 17.2-4.77a9.245 9.245 0 0 0 3.38-6.34c.4-6.83-8.18-13-19.13-13.68-6.9-.46-13.32 1.33-17.2 4.76a9.182 9.182 0 0 0-3.38 6.34Z" data-name="Path 100" transform="translate(0 59.55)"/><path fill="#418985" d="M385.07 304.33s.42 14.39-14.6 17.92a35.74 35.74 0 0 1-28.56-3.7 15.683 15.683 0 0 1-7.56-11.54 21.462 21.462 0 0 1 .13-6Z" data-name="Path 101"/><path fill="#4c9b97" d="M385.038 304.422c.634-9.113-10.174-17.288-24.141-18.26s-25.8 5.628-26.437 14.741 10.175 17.287 24.141 18.259 25.799-5.628 26.437-14.74Z" data-name="Path 102"/><path fill="#418985" d="M360.77 315.47c-.71 0-1.43 0-2.15-.07-11.49-.74-20.49-7.36-20.06-14.74a10.183 10.183 0 0 1 3.72-7c4.07-3.6 10.78-5.48 17.92-5 11.5.74 20.5 7.36 20.07 14.74a10.173 10.173 0 0 1-3.72 7c-3.67 3.23-9.46 5.07-15.78 5.07Zm-21.21-14.75c-.4 6.83 8.18 13 19.13 13.69 6.89.45 13.32-1.34 17.2-4.77a9.245 9.245 0 0 0 3.38-6.34c.4-6.83-8.18-13-19.13-13.68-6.89-.45-13.32 1.33-17.2 4.76a9.182 9.182 0 0 0-3.38 6.34Z" data-name="Path 103"/><path fill="#418985" d="M381 269.93s5.57 12.36-6.91 21.12a37.1 37.1 0 0 1-27.46 7.62 14.759 14.759 0 0 1-11.07-7.18 19.382 19.382 0 0 1-2-5.26Z" data-name="Path 104"/><path fill="#4c9b97" d="M362.268 292.795c13.112-4.5 21.48-14.736 18.691-22.864s-15.68-11.07-28.792-6.571-21.48 14.736-18.69 22.864 15.679 11.071 28.791 6.571Z" data-name="Path 105"/><path fill="#418985" d="M350.64 291.38a23.437 23.437 0 0 1-4.82-.49c-4.53-1-7.64-3.3-8.75-6.54s-.09-7 2.89-10.54a30.93 30.93 0 0 1 27.51-9.43c4.53 1 7.64 3.29 8.76 6.53s.08 7-2.9 10.54a28.6 28.6 0 0 1-12.57 8.15 31.354 31.354 0 0 1-10.12 1.78Zm12-26.49a30.683 30.683 0 0 0-9.79 1.71 27.687 27.687 0 0 0-12.13 7.86c-2.75 3.27-3.71 6.67-2.72 9.57s3.85 5 8 5.88a29.922 29.922 0 0 0 26.53-9.1c2.75-3.27 3.72-6.67 2.72-9.57s-3.84-5-8-5.89a22.077 22.077 0 0 0-4.6-.46Z" data-name="Path 106"/></svg>