<svg xmlns="http://www.w3.org/2000/svg" viewBox="0 0 105.738 36"><path fill="#4c9b97" d="M49.438 18.237h3.12v10.76h-3.12Zm1.56-1.5a1.979 1.979 0 0 1-1.4-.5 1.622 1.622 0 0 1-.54-1.24 1.622 1.622 0 0 1 .54-1.24 1.979 1.979 0 0 1 1.4-.5 2.029 2.029 0 0 1 1.4.48 1.539 1.539 0 0 1 .54 1.2 1.7 1.7 0 0 1-.54 1.29 1.956 1.956 0 0 1-1.4.51Zm15.42-2.58v14.84h-2.98v-1.24a4.114 4.114 0 0 1-3.36 1.4 5.587 5.587 0 0 1-2.75-.68 4.869 4.869 0 0 1-1.93-1.94 5.914 5.914 0 0 1-.7-2.92 5.914 5.914 0 0 1 .7-2.92 4.869 4.869 0 0 1 1.93-1.94 5.587 5.587 0 0 1 2.75-.68 4.093 4.093 0 0 1 3.22 1.3v-5.22Zm-5.8 12.44a2.607 2.607 0 0 0 1.96-.81 3 3 0 0 0 .78-2.17 3 3 0 0 0-.78-2.17 2.607 2.607 0 0 0-1.96-.81 2.631 2.631 0 0 0-1.98.81 3 3 0 0 0-.78 2.17 3 3 0 0 0 .78 2.17 2.631 2.631 0 0 0 1.98.81Zm15.04-8.52a5.483 5.483 0 0 1 2.73.69 4.955 4.955 0 0 1 1.93 1.94 5.857 5.857 0 0 1 .7 2.91 5.857 5.857 0 0 1-.7 2.91 4.955 4.955 0 0 1-1.93 1.94 5.483 5.483 0 0 1-2.73.69 4.156 4.156 0 0 1-3.24-1.3v5.02h-3.12v-14.64h2.98v1.24a4.138 4.138 0 0 1 3.38-1.4Zm-.54 8.52a2.6 2.6 0 0 0 1.97-.81 3.019 3.019 0 0 0 .77-2.17 3.019 3.019 0 0 0-.77-2.17 2.6 2.6 0 0 0-1.97-.81 2.6 2.6 0 0 0-1.97.81 3.019 3.019 0 0 0-.77 2.17 3.019 3.019 0 0 0 .77 2.17 2.6 2.6 0 0 0 1.97.81Zm12.14-8.52a5.6 5.6 0 0 1 3.84 1.19 4.554 4.554 0 0 1 1.34 3.59v6.14h-2.92v-1.34a3.477 3.477 0 0 1-3.28 1.5 5.091 5.091 0 0 1-2.15-.42 3.206 3.206 0 0 1-1.39-1.16 3.019 3.019 0 0 1-.48-1.68 2.8 2.8 0 0 1 1.13-2.36 5.758 5.758 0 0 1 3.49-.86h2.48a1.988 1.988 0 0 0-.62-1.57 2.731 2.731 0 0 0-1.86-.55 5.431 5.431 0 0 0-1.69.27 4.471 4.471 0 0 0-1.41.73l-1.12-2.18a6.758 6.758 0 0 1 2.11-.96 9.452 9.452 0 0 1 2.53-.34Zm-.24 8.98a2.717 2.717 0 0 0 1.42-.37 2.025 2.025 0 0 0 .88-1.09v-1.1h-2.14q-1.92 0-1.92 1.26a1.122 1.122 0 0 0 .47.95 2.117 2.117 0 0 0 1.29.35Zm18.72-8.82-4.86 11.42a5.62 5.62 0 0 1-1.83 2.62 4.483 4.483 0 0 1-2.63.76 5.462 5.462 0 0 1-1.66-.26 3.665 3.665 0 0 1-1.34-.72l1.14-2.22a2.679 2.679 0 0 0 .83.5 2.587 2.587 0 0 0 .93.18 1.65 1.65 0 0 0 1.04-.31 2.632 2.632 0 0 0 .72-1.03l.04-.1-4.66-10.84h3.22l3.02 7.3 3.04-7.3Zm-73.74 9.762-32 8v-28l32-8Z"/><path fill="#d4ecdd" d="m35.998 31.999-36 4v-28l36-4Z"/><path fill="#4c9b97" d="M39.998 35.998h-40v-28h40ZM9.969 18.444a10.02 10.02 0 0 0 .787 3.905 10.058 10.058 0 0 0 3.637 4.411 9.98 9.98 0 0 0 5.641 1.714 9.909 9.909 0 0 0 3.871-.787 10.044 10.044 0 0 0 4.41-3.637 9.924 9.924 0 0 0 1.715-5.606Z"/><path fill="#fff" d="M9.969 18.445a10.02 10.02 0 0 0 .787 3.905 10.058 10.058 0 0 0 3.637 4.411 9.98 9.98 0 0 0 5.641 1.714 9.909 9.909 0 0 0 3.871-.787 10.044 10.044 0 0 0 4.41-3.637 9.924 9.924 0 0 0 1.715-5.606Z"/></svg>