<svg xmlns="http://www.w3.org/2000/svg" viewBox="0 0 545.939 400.33"><defs><filter id="a" width="545.939" height="400.33" x="0" y="0" filterUnits="userSpaceOnUse"><feOffset dx="30" dy="30"/><feGaussianBlur result="blur" stdDeviation="30"/><feFlood flood-color="#141b32" flood-opacity=".078"/><feComposite in2="blur" operator="in"/><feComposite in="SourceGraphic"/></filter><filter id="b" width="228.198" height="171.679" x="312.512" y="141.997" filterUnits="userSpaceOnUse"><feOffset dx="16" dy="16"/><feGaussianBlur result="blur-2" stdDeviation="16"/><feFlood flood-color="#141b32" flood-opacity=".078"/><feComposite in2="blur-2" operator="in"/><feComposite in="SourceGraphic"/></filter><filter id="f" width="86.318" height="86.318" x="97.312" y="93.561" filterUnits="userSpaceOnUse"><feOffset dy="2"/><feGaussianBlur result="blur-3" stdDeviation="8"/><feFlood flood-color="#7a79ad" flood-opacity=".239"/><feComposite in2="blur-3" operator="in"/><feComposite in="SourceGraphic"/></filter><filter id="g" width="86.318" height="86.318" x="309.022" y="93.561" filterUnits="userSpaceOnUse"><feOffset dy="2"/><feGaussianBlur result="blur-4" stdDeviation="8"/><feFlood flood-color="#7a79ad" flood-opacity=".239"/><feComposite in2="blur-4" operator="in"/><feComposite in="SourceGraphic"/></filter><filter id="h" width="86.318" height="86.318" x="253.462" y="227.681" filterUnits="userSpaceOnUse"><feOffset dy="2"/><feGaussianBlur result="blur-5" stdDeviation="8"/><feFlood flood-color="#7a79ad" flood-opacity=".239"/><feComposite in2="blur-5" operator="in"/><feComposite in="SourceGraphic"/></filter><filter id="i" width="86.318" height="86.318" x="232.382" y="23.631" filterUnits="userSpaceOnUse"><feOffset dy="2"/><feGaussianBlur result="blur-6" stdDeviation="8"/><feFlood flood-color="#7a79ad" flood-opacity=".239"/><feComposite in2="blur-6" operator="in"/><feComposite in="SourceGraphic"/></filter><clipPath id="c"><path fill="none" d="M0 0h77.99v45.459H0Z" data-name="Path 6"/></clipPath><clipPath id="d"><path fill="none" d="M0 0h78.945v45.8H0Z" data-name="Path 10"/></clipPath><clipPath id="e"><path fill="none" d="M0 0h46.413v88.621H0Z" data-name="Path 14"/></clipPath></defs><g transform="translate(7.312 45.631)"><g fill="#234580" transform="translate(0 75.679)"><circle cx="1.437" cy="1.437" r="1.437" transform="translate(0 12.453)"/><circle cx="1.437" cy="1.437" r="1.437" data-name="dot" transform="translate(15.327 12.453)"/><circle cx="1.437" cy="1.437" r="1.437" data-name="dot" transform="translate(0 27.781)"/><circle cx="1.437" cy="1.437" r="1.437" data-name="dot"/><circle cx="1.437" cy="1.437" r="1.437" data-name="dot" transform="translate(15.327 27.781)"/><circle cx="1.437" cy="1.437" r="1.437" data-name="dot" transform="translate(15.327)"/><circle cx="1.437" cy="1.437" r="1.437" data-name="dot" transform="translate(0 42.15)"/><circle cx="1.437" cy="1.437" r="1.437" data-name="dot" transform="translate(15.327 42.15)"/><circle cx="1.437" cy="1.437" r="1.437" data-name="dot" transform="translate(0 57.477)"/><circle cx="1.437" cy="1.437" r="1.437" data-name="dot" transform="translate(15.327 57.477)"/><circle cx="1.437" cy="1.437" r="1.437" data-name="dot" transform="translate(0 71.847)"/><circle cx="1.437" cy="1.437" r="1.437" data-name="dot" transform="translate(15.327 71.847)"/><circle cx="1.437" cy="1.437" r="1.437" data-name="dot" transform="translate(0 86.216)"/><circle cx="1.437" cy="1.437" r="1.437" data-name="dot" transform="translate(15.327 86.216)"/><circle cx="1.437" cy="1.437" r="1.437" data-name="dot" transform="translate(0 101.543)"/><circle cx="1.437" cy="1.437" r="1.437" data-name="dot" transform="translate(15.327 101.543)"/><circle cx="1.437" cy="1.437" r="1.437" data-name="dot" transform="translate(0 115.913)"/><circle cx="1.437" cy="1.437" r="1.437" data-name="dot" transform="translate(15.327 115.913)"/><circle cx="1.437" cy="1.437" r="1.437" data-name="dot" transform="translate(0 131.24)"/><circle cx="1.437" cy="1.437" r="1.437" data-name="dot" transform="translate(15.327 131.24)"/><circle cx="1.437" cy="1.437" r="1.437" data-name="dot" transform="translate(0 145.609)"/><circle cx="1.437" cy="1.437" r="1.437" data-name="dot" transform="translate(15.327 145.609)"/><circle cx="1.437" cy="1.437" r="1.437" data-name="dot" transform="translate(0 159.979)"/><circle cx="1.437" cy="1.437" r="1.437" data-name="dot" transform="translate(15.327 159.979)"/><circle cx="1.437" cy="1.437" r="1.437" data-name="dot" transform="translate(0 175.306)"/><circle cx="1.437" cy="1.437" r="1.437" data-name="dot" transform="translate(15.327 175.306)"/><circle cx="1.437" cy="1.437" r="1.437" data-name="dot" transform="translate(0 189.675)"/><circle cx="1.437" cy="1.437" r="1.437" data-name="dot" transform="translate(15.327 189.675)"/><circle cx="1.437" cy="1.437" r="1.437" data-name="dot" transform="translate(29.697 189.675)"/><circle cx="1.437" cy="1.437" r="1.437" data-name="dot" transform="translate(45.024 189.675)"/><circle cx="1.437" cy="1.437" r="1.437" data-name="dot" transform="translate(59.393 189.675)"/><circle cx="1.437" cy="1.437" r="1.437" data-name="dot" transform="translate(74.721 189.675)"/><circle cx="1.437" cy="1.437" r="1.437" data-name="dot" transform="translate(89.09 189.675)"/><circle cx="1.437" cy="1.437" r="1.437" data-name="dot" transform="translate(103.459 189.675)"/><circle cx="1.437" cy="1.437" r="1.437" data-name="dot" transform="translate(192.549 189.675)"/><circle cx="1.437" cy="1.437" r="1.437" data-name="dot" transform="translate(118.787 189.675)"/><circle cx="1.437" cy="1.437" r="1.437" data-name="dot" transform="translate(207.876 189.675)"/><circle cx="1.437" cy="1.437" r="1.437" data-name="dot" transform="translate(283.555 189.675)"/><circle cx="1.437" cy="1.437" r="1.437" data-name="dot" transform="translate(133.156 189.675)"/><circle cx="1.437" cy="1.437" r="1.437" data-name="dot" transform="translate(222.246 189.675)"/><circle cx="1.437" cy="1.437" r="1.437" data-name="dot" transform="translate(298.882 189.675)"/><circle cx="1.437" cy="1.437" r="1.437" data-name="dot" transform="translate(148.483 189.675)"/><circle cx="1.437" cy="1.437" r="1.437" data-name="dot" transform="translate(237.573 189.675)"/><circle cx="1.437" cy="1.437" r="1.437" data-name="dot" transform="translate(313.252 189.675)"/><circle cx="1.437" cy="1.437" r="1.437" data-name="dot" transform="translate(162.852 189.675)"/><circle cx="1.437" cy="1.437" r="1.437" data-name="dot" transform="translate(251.942 189.675)"/><circle cx="1.437" cy="1.437" r="1.437" data-name="dot" transform="translate(328.579 189.675)"/><circle cx="1.437" cy="1.437" r="1.437" data-name="dot" transform="translate(178.18 189.675)"/><circle cx="1.437" cy="1.437" r="1.437" data-name="dot" transform="translate(267.27 189.675)"/><circle cx="1.437" cy="1.437" r="1.437" data-name="dot" transform="translate(0 205.003)"/><circle cx="1.437" cy="1.437" r="1.437" data-name="dot" transform="translate(15.327 205.003)"/><circle cx="1.437" cy="1.437" r="1.437" data-name="dot" transform="translate(29.697 205.003)"/><circle cx="1.437" cy="1.437" r="1.437" data-name="dot" transform="translate(45.024 205.003)"/><circle cx="1.437" cy="1.437" r="1.437" data-name="dot" transform="translate(59.393 205.003)"/><circle cx="1.437" cy="1.437" r="1.437" data-name="dot" transform="translate(74.721 205.003)"/><circle cx="1.437" cy="1.437" r="1.437" data-name="dot" transform="translate(89.09 205.003)"/><circle cx="1.437" cy="1.437" r="1.437" data-name="dot" transform="translate(103.459 205.003)"/><circle cx="1.437" cy="1.437" r="1.437" data-name="dot" transform="translate(192.549 205.003)"/><circle cx="1.437" cy="1.437" r="1.437" data-name="dot" transform="translate(118.787 205.003)"/><circle cx="1.437" cy="1.437" r="1.437" data-name="dot" transform="translate(207.876 205.003)"/><circle cx="1.437" cy="1.437" r="1.437" data-name="dot" transform="translate(283.555 205.003)"/><circle cx="1.437" cy="1.437" r="1.437" data-name="dot" transform="translate(133.156 205.003)"/><circle cx="1.437" cy="1.437" r="1.437" data-name="dot" transform="translate(222.246 205.003)"/><circle cx="1.437" cy="1.437" r="1.437" data-name="dot" transform="translate(298.882 205.003)"/><circle cx="1.437" cy="1.437" r="1.437" data-name="dot" transform="translate(148.483 205.003)"/><circle cx="1.437" cy="1.437" r="1.437" data-name="dot" transform="translate(237.573 205.003)"/><circle cx="1.437" cy="1.437" r="1.437" data-name="dot" transform="translate(313.252 205.003)"/><circle cx="1.437" cy="1.437" r="1.437" data-name="dot" transform="translate(162.852 205.003)"/><circle cx="1.437" cy="1.437" r="1.437" data-name="dot" transform="translate(251.942 205.003)"/><circle cx="1.437" cy="1.437" r="1.437" data-name="dot" transform="translate(328.579 205.003)"/><circle cx="1.437" cy="1.437" r="1.437" data-name="dot" transform="translate(178.18 205.003)"/><circle cx="1.437" cy="1.437" r="1.437" data-name="dot" transform="translate(267.27 205.003)"/></g><rect width="365.939" height="220.33" fill="#e5e5e5" opacity=".8" rx="14" transform="translate(26.823 37.36)"/><g transform="translate(52.688 14.369)"><g filter="url(#a)" transform="translate(-60 -60)"><path fill="#f5f5f5" d="M74 60h337.939a14 14 0 0 1 14 14v192.33a14 14 0 0 1-14 14H74a14 14 0 0 1-14-14V74a14 14 0 0 1 14-14Z" data-name="Path 107"/></g><rect width="323.789" height="130.282" fill="#fff" data-name="Rectangle 62" rx="8" transform="translate(21.075 45.982)"/></g><g transform="translate(337.2 128.366)"><g filter="url(#b)" transform="translate(-344.51 -174)"><rect width="132.198" height="75.679" fill="#f5f5f5" data-name="front-small-card" rx="14" transform="translate(344.51 174)"/></g><path fill="#5d7ebc" d="M0 31.613V14A14 14 0 0 1 14 0h25.276v17.612a14 14 0 0 1-14 14Z" data-name="Path 1"/><circle cx="11.016" cy="11.016" r="11.016" fill="#4c9b97" data-name="Ellipse 1" transform="translate(31.613 15.327)"/><path fill="#fff" d="M121.661 59.393 81.24 20.117 49.473 53.733 31.6 39.755 9.58 59.393Z" data-name="Path 2"/></g><g opacity=".893"><path fill="#21264f" d="M293.382 121.457a52.074 52.074 0 0 0-16.9-29.493l-20.164 29.493H252.9v4.994h41.192v-4.994Zm-30.1-42.083-2.528 3.279a46.362 46.362 0 0 0-14.909-4.1l-1.563 40.234 20.83-33.829.245-5.584Z" data-name="Path 3" opacity=".151"/><g data-name="Group 52" opacity=".151"><path fill="none" d="M215.614 134.637H293.6V180.1h-77.99Z" data-name="Path 4"/><g clip-path="url(#c)" data-name="Group 51" transform="translate(215.614 134.637)"><path fill="#21264f" d="M29.836 0 5.233 31.451l-1.9.678L0 33.547v4.628c7.842 4.91 17.476 7.283 27.44 7.283A50.6 50.6 0 0 0 77.99 0Z" data-name="Path 5"/></g></g><path fill="#4c9b97" d="M265.353 79.21a47.6 47.6 0 0 0-19.495-6.4l-1.58 40.234Z" data-name="Path 7"/><path fill="none" d="M215.614 130.884h78.945v45.8h-78.945Z" data-name="Path 8"/><g clip-path="url(#d)" data-name="Group 53" transform="translate(215.614 130.884)"><path fill="#496eb4" d="M0 37.982A52.1 52.1 0 0 0 27.547 45.8c26.843 0 48.9-20.1 51.4-45.8H29.983Z" data-name="Path 9"/></g><path fill="#6c90d5" d="M294.092 121.66a52.126 52.126 0 0 0-17.614-34.486L252.9 121.66Z" data-name="Path 11"/><g data-name="Group 55" opacity=".151"><path fill="none" d="M187.759 81.739h46.413v88.621h-46.413Z" data-name="Path 12"/><g clip-path="url(#e)" data-name="Group 54" transform="translate(187.759 81.739)"><path fill="#21264f" d="M46.413 48.642v-4.016l-.61.8V0C20.1 2.491 0 24.456 0 51.192a51.634 51.634 0 0 0 15.939 37.429L45.245 50.23Z" data-name="Path 13"/></g></g><path fill="#2b4982" d="M235.657 75.679c-26.34 2.478-46.94 24.321-46.94 50.909a50.635 50.635 0 0 0 16.335 37.223l30.6-38.9Z" data-name="Path 15"/></g><g data-name="Group 61"><g data-name="Group 56"><path fill="none" stroke="#e5e5e5" stroke-dasharray="3 3" d="m149.5 94.5 36 17" data-name="Line 4"/><g filter="url(#f)" transform="translate(-7.31 -45.63)"><circle cx="19.159" cy="19.159" r="19.159" fill="#fff" data-name="Ellipse 2" transform="translate(121.31 115.56)"/></g></g><g data-name="Group 58"><path fill="none" stroke="#e5e5e5" stroke-dasharray="3 3" d="m327.5 92.5-34 11" data-name="Line 2"/><g filter="url(#g)" transform="translate(-7.31 -45.63)"><circle cx="19.159" cy="19.159" r="19.159" fill="#fff" data-name="Ellipse 3" transform="translate(333.02 115.56)"/></g></g><g data-name="Group 59"><path fill="none" stroke="#e5e5e5" stroke-dasharray="3 3" d="m280.5 207.5-13-30" data-name="Line 1"/><g filter="url(#h)" transform="translate(-7.31 -45.63)"><circle cx="19.159" cy="19.159" r="19.159" fill="#fff" data-name="Ellipse 4" transform="translate(277.46 249.68)"/></g></g><g data-name="Group 57"><path fill="none" stroke="#e5e5e5" stroke-dasharray="3 3" d="m264.5 36.5-6 35" data-name="Line 3"/><g filter="url(#i)" transform="translate(-7.31 -45.63)"><circle cx="19.159" cy="19.159" r="19.159" fill="#fff" data-name="Ellipse 5" transform="translate(256.38 45.63)"/></g></g></g><g data-name="Group 60"><rect width="66.099" height="9.58" fill="#f5f5f5" data-name="Rectangle 64" rx="4.79" transform="translate(87.174 148.483)"/><rect width="74.721" height="9.58" fill="#4c9b97" data-name="Rectangle 65" rx="4.79" transform="translate(87.174 134.114)"/><rect width="87.174" height="9.58" fill="#f5f5f5" data-name="Rectangle 66" rx="4.79" transform="translate(87.174 162.852)"/><path fill="#fff" d="M95.8 153.273a.958.958 0 0 1 .958-.958H143.7a.958.958 0 0 1 0 1.916H96.754a.958.958 0 0 1-.958-.958Zm0-14.369a.958.958 0 0 1 .958-.958h56.519a.958.958 0 0 1 0 1.916H96.754a.958.958 0 0 1-.958-.958Zm0 28.738a.958.958 0 0 1 .958-.958h68.015a.958.958 0 0 1 0 1.916H96.754a.958.958 0 0 1-.958-.958Z" data-name="Path 18"/></g></g></svg>