<svg xmlns="http://www.w3.org/2000/svg" viewBox="0 0 426 290.368"><defs><filter id="a" width="426" height="282" x="0" y="2" filterUnits="userSpaceOnUse"><feOffset/><feGaussianBlur result="blur" stdDeviation="10"/><feFlood flood-color="#262626" flood-opacity=".078"/><feComposite in2="blur" operator="in"/><feComposite in="SourceGraphic"/></filter><filter id="b" width="174" height="125.261" x="252" y="124" filterUnits="userSpaceOnUse"><feOffset dx="-20"/><feGaussianBlur result="blur-2" stdDeviation="10"/><feFlood flood-color="#262626" flood-opacity=".078"/><feComposite in2="blur-2" operator="in"/><feComposite in="SourceGraphic"/></filter><filter id="f" width="86.318" height="86.318" x="77.826" y="69.93" filterUnits="userSpaceOnUse"><feOffset dy="2"/><feGaussianBlur result="blur-3" stdDeviation="8"/><feFlood flood-color="#7a79ad" flood-opacity=".239"/><feComposite in2="blur-3" operator="in"/><feComposite in="SourceGraphic"/></filter><filter id="g" width="86.318" height="86.318" x="289.536" y="69.93" filterUnits="userSpaceOnUse"><feOffset dy="2"/><feGaussianBlur result="blur-4" stdDeviation="8"/><feFlood flood-color="#7a79ad" flood-opacity=".239"/><feComposite in2="blur-4" operator="in"/><feComposite in="SourceGraphic"/></filter><filter id="h" width="86.318" height="86.318" x="233.976" y="204.05" filterUnits="userSpaceOnUse"><feOffset dy="2"/><feGaussianBlur result="blur-5" stdDeviation="8"/><feFlood flood-color="#7a79ad" flood-opacity=".239"/><feComposite in2="blur-5" operator="in"/><feComposite in="SourceGraphic"/></filter><filter id="i" width="86.318" height="86.318" x="212.896" y="0" filterUnits="userSpaceOnUse"><feOffset dy="2"/><feGaussianBlur result="blur-6" stdDeviation="8"/><feFlood flood-color="#7a79ad" flood-opacity=".239"/><feComposite in2="blur-6" operator="in"/><feComposite in="SourceGraphic"/></filter><clipPath id="c"><path fill="none" d="M0 0h77.99v45.459H0Z" data-name="Path 6"/></clipPath><clipPath id="d"><path fill="none" d="M0 0h78.945v45.8H0Z" data-name="Path 10"/></clipPath><clipPath id="e"><path fill="none" d="M0 0h46.413v88.621H0Z" data-name="Path 14"/></clipPath></defs><g data-name="Group 139" transform="translate(-287 -207)"><rect width="183" height="111" fill="#e5e5e5" data-name="Rectangle 108" rx="10" transform="translate(297 370)"/><g fill="#234580" data-name="Group 138"><circle cx="1" cy="1" r="1" data-name="Ellipse 7" transform="translate(521 219)"/><circle cx="1" cy="1" r="1" data-name="Ellipse 7" transform="translate(531 219)"/><circle cx="1" cy="1" r="1" data-name="Ellipse 7" transform="translate(541 219)"/><circle cx="1" cy="1" r="1" data-name="Ellipse 7" transform="translate(551 219)"/><circle cx="1" cy="1" r="1" data-name="Ellipse 7" transform="translate(561 219)"/><circle cx="1" cy="1" r="1" data-name="Ellipse 7" transform="translate(571 219)"/><circle cx="1" cy="1" r="1" data-name="Ellipse 7" transform="translate(581 219)"/><circle cx="1" cy="1" r="1" data-name="Ellipse 7" transform="translate(591 219)"/><circle cx="1" cy="1" r="1" data-name="Ellipse 7" transform="translate(601 219)"/><circle cx="1" cy="1" r="1" data-name="Ellipse 7" transform="translate(611 219)"/><circle cx="1" cy="1" r="1" data-name="Ellipse 7" transform="translate(621 219)"/><circle cx="1" cy="1" r="1" data-name="Ellipse 7" transform="translate(631 219)"/><circle cx="1" cy="1" r="1" data-name="Ellipse 7" transform="translate(641 219)"/><circle cx="1" cy="1" r="1" data-name="Ellipse 7" transform="translate(651 219)"/><circle cx="1" cy="1" r="1" data-name="Ellipse 7" transform="translate(661 219)"/><circle cx="1" cy="1" r="1" data-name="Ellipse 7" transform="translate(671 219)"/><circle cx="1" cy="1" r="1" data-name="Ellipse 7" transform="translate(681 219)"/><circle cx="1" cy="1" r="1" data-name="Ellipse 7" transform="translate(691 219)"/><circle cx="1" cy="1" r="1" data-name="Ellipse 7" transform="translate(701 219)"/><circle cx="1" cy="1" r="1" data-name="Ellipse 7" transform="translate(521 229)"/><circle cx="1" cy="1" r="1" data-name="Ellipse 7" transform="translate(531 229)"/><circle cx="1" cy="1" r="1" data-name="Ellipse 7" transform="translate(551 229)"/><circle cx="1" cy="1" r="1" data-name="Ellipse 7" transform="translate(561 229)"/><circle cx="1" cy="1" r="1" data-name="Ellipse 7" transform="translate(571 229)"/><circle cx="1" cy="1" r="1" data-name="Ellipse 7" transform="translate(581 229)"/><circle cx="1" cy="1" r="1" data-name="Ellipse 7" transform="translate(591 229)"/><circle cx="1" cy="1" r="1" data-name="Ellipse 7" transform="translate(601 229)"/><circle cx="1" cy="1" r="1" data-name="Ellipse 7" transform="translate(611 229)"/><circle cx="1" cy="1" r="1" data-name="Ellipse 7" transform="translate(621 229)"/><circle cx="1" cy="1" r="1" data-name="Ellipse 7" transform="translate(631 229)"/><circle cx="1" cy="1" r="1" data-name="Ellipse 7" transform="translate(641 229)"/><circle cx="1" cy="1" r="1" data-name="Ellipse 7" transform="translate(651 229)"/><circle cx="1" cy="1" r="1" data-name="Ellipse 7" transform="translate(661 229)"/><circle cx="1" cy="1" r="1" data-name="Ellipse 7" transform="translate(671 229)"/><circle cx="1" cy="1" r="1" data-name="Ellipse 7" transform="translate(681 229)"/><circle cx="1" cy="1" r="1" data-name="Ellipse 7" transform="translate(691 229)"/><circle cx="1" cy="1" r="1" data-name="Ellipse 7" transform="translate(701 229)"/><circle cx="1" cy="1" r="1" data-name="Ellipse 7" transform="translate(691 239)"/><circle cx="1" cy="1" r="1" data-name="Ellipse 7" transform="translate(701 239)"/><circle cx="1" cy="1" r="1" data-name="Ellipse 7" transform="translate(691 249)"/><circle cx="1" cy="1" r="1" data-name="Ellipse 7" transform="translate(701 249)"/><circle cx="1" cy="1" r="1" data-name="Ellipse 7" transform="translate(691 259)"/><circle cx="1" cy="1" r="1" data-name="Ellipse 7" transform="translate(701 259)"/><circle cx="1" cy="1" r="1" data-name="Ellipse 7" transform="translate(691 269)"/><circle cx="1" cy="1" r="1" data-name="Ellipse 7" transform="translate(701 269)"/><circle cx="1" cy="1" r="1" data-name="Ellipse 7" transform="translate(691 279)"/><circle cx="1" cy="1" r="1" data-name="Ellipse 7" transform="translate(701 279)"/><circle cx="1" cy="1" r="1" data-name="Ellipse 7" transform="translate(691 289)"/><circle cx="1" cy="1" r="1" data-name="Ellipse 7" transform="translate(701 289)"/><circle cx="1" cy="1" r="1" data-name="Ellipse 7" transform="translate(691 299)"/><circle cx="1" cy="1" r="1" data-name="Ellipse 7" transform="translate(701 299)"/><circle cx="1" cy="1" r="1" data-name="Ellipse 7" transform="translate(691 309)"/><circle cx="1" cy="1" r="1" data-name="Ellipse 7" transform="translate(701 309)"/><circle cx="1" cy="1" r="1" data-name="Ellipse 7" transform="translate(691 319)"/><circle cx="1" cy="1" r="1" data-name="Ellipse 7" transform="translate(701 319)"/><circle cx="1" cy="1" r="1" data-name="Ellipse 7" transform="translate(691 329)"/><circle cx="1" cy="1" r="1" data-name="Ellipse 7" transform="translate(701 329)"/></g><g data-name="Group 129"><g filter="url(#a)" transform="translate(287 207)"><path fill="#f5f5f5" d="M40 32h346a10 10 0 0 1 10 10v202a10 10 0 0 1-10 10H40a10 10 0 0 1-10-10V42a10 10 0 0 1 10-10Z" data-name="Path 698"/></g><rect width="326" height="140" fill="#fff" data-name="Rectangle 62" rx="8" transform="translate(337 280)"/><g transform="translate(589 361)"><g filter="url(#b)" transform="translate(-302 -154)"><rect width="114" height="65.261" fill="#f5f5f5" data-name="front-small-card" rx="14" transform="translate(302 154)"/></g><path fill="#5d7ebc" d="M0 27.261V12.073A12.073 12.073 0 0 1 12.073 0h21.8v15.188A12.073 12.073 0 0 1 21.8 27.26Z" data-name="Path 1"/><circle cx="9.5" cy="9.5" r="9.5" fill="#4c9b97" data-name="Ellipse 1" transform="translate(27.261 13.217)"/><path fill="#fff" d="M104.913 51.217 70.056 17.348 42.662 46.337 27.25 34.283 8.261 51.217Z" data-name="Path 2"/></g><g data-name="Group 128"><g opacity=".893"><path fill="#21264f" d="M568.208 350.457a52.074 52.074 0 0 0-16.9-29.493l-20.164 29.493h-3.418v4.994h41.192v-4.994Zm-30.1-42.083-2.528 3.279a46.362 46.362 0 0 0-14.909-4.1l-1.563 40.234 20.83-33.829.245-5.584Z" data-name="Path 3" opacity=".151"/><g data-name="Group 52" opacity=".151"><path fill="none" d="M490.44 363.637h77.986V409.1h-77.99Z" data-name="Path 4"/><g clip-path="url(#c)" data-name="Group 51" transform="translate(490.44 363.637)"><path fill="#21264f" d="M29.836 0 5.233 31.451l-1.9.678L0 33.547v4.628c7.842 4.91 17.476 7.283 27.44 7.283A50.6 50.6 0 0 0 77.99 0Z" data-name="Path 5"/></g></g><path fill="#4c9b97" d="M540.179 308.21a47.6 47.6 0 0 0-19.495-6.4l-1.58 40.234Z" data-name="Path 7"/><path fill="none" d="M490.44 359.884h78.945v45.8H490.44Z" data-name="Path 8"/><g clip-path="url(#d)" data-name="Group 53" transform="translate(490.44 359.884)"><path fill="#496eb4" d="M0 37.982A52.1 52.1 0 0 0 27.547 45.8c26.843 0 48.9-20.1 51.4-45.8H29.983Z" data-name="Path 9"/></g><path fill="#6c90d5" d="M568.918 350.66a52.126 52.126 0 0 0-17.614-34.486l-23.578 34.486Z" data-name="Path 11"/><g data-name="Group 55" opacity=".151"><path fill="none" d="M462.585 310.739h46.413v88.621h-46.413Z" data-name="Path 12"/><g clip-path="url(#e)" data-name="Group 54" transform="translate(462.585 310.739)"><path fill="#21264f" d="M46.413 48.642v-4.016l-.61.8V0C20.1 2.491 0 24.456 0 51.192a51.634 51.634 0 0 0 15.939 37.429L45.245 50.23Z" data-name="Path 13"/></g></g><path fill="#2b4982" d="M510.483 304.679c-26.34 2.478-46.94 24.321-46.94 50.909a50.635 50.635 0 0 0 16.335 37.223l30.6-38.9Z" data-name="Path 15"/></g><g data-name="Group 126"><g data-name="Group 56"><path fill="none" stroke="#e5e5e5" stroke-dasharray="3 3" d="m424.326 323.5 36 17" data-name="Line 4"/><g filter="url(#f)" transform="translate(286.996 207)"><circle cx="19.159" cy="19.159" r="19.159" fill="#fff" data-name="Ellipse 2" transform="translate(101.83 91.93)"/></g></g><g data-name="Group 58"><path fill="none" stroke="#e5e5e5" stroke-dasharray="3 3" d="m602.326 321.5-34 11" data-name="Line 2"/><g filter="url(#g)" transform="translate(286.996 207)"><circle cx="19.159" cy="19.159" r="19.159" fill="#fff" data-name="Ellipse 3" transform="translate(313.54 91.93)"/></g></g><g data-name="Group 59"><path fill="none" stroke="#e5e5e5" stroke-dasharray="3 3" d="m555.326 436.5-13-30" data-name="Line 1"/><g filter="url(#h)" transform="translate(286.996 207)"><circle cx="19.159" cy="19.159" r="19.159" fill="#fff" data-name="Ellipse 4" transform="translate(257.98 226.05)"/></g></g><g data-name="Group 57"><path fill="none" stroke="#e5e5e5" stroke-dasharray="3 3" d="m539.326 265.5-6 35" data-name="Line 3"/><g filter="url(#i)" transform="translate(286.996 207)"><circle cx="19.159" cy="19.159" r="19.159" fill="#fff" data-name="Ellipse 5" transform="translate(236.9 22)"/></g></g></g><g data-name="Group 127" transform="translate(274.826 229)"><rect width="66.099" height="9.58" fill="#f5f5f5" data-name="Rectangle 64" rx="4.79" transform="translate(87.174 148.483)"/><rect width="74.721" height="9.58" fill="#4c9b97" data-name="Rectangle 65" rx="4.79" transform="translate(87.174 134.114)"/><rect width="87.174" height="9.58" fill="#f5f5f5" data-name="Rectangle 66" rx="4.79" transform="translate(87.174 162.852)"/><path fill="#fff" d="M95.8 153.273a.958.958 0 0 1 .958-.958H143.7a.958.958 0 0 1 0 1.916H96.754a.958.958 0 0 1-.958-.958Zm0-14.369a.958.958 0 0 1 .958-.958h56.519a.958.958 0 0 1 0 1.916H96.754a.958.958 0 0 1-.958-.958Zm0 28.738a.958.958 0 0 1 .958-.958h68.015a.958.958 0 0 1 0 1.916H96.754a.958.958 0 0 1-.958-.958Z" data-name="Path 18"/></g></g></g></g></svg>