<svg xmlns="http://www.w3.org/2000/svg" viewBox="0 0 45.43 30"><g fill="#1684b9"><path d="M23.33 4.196h-.287a3.153 3.153 0 0 1-.726-.084 6 6 0 0 0-1.375-.16h-7.17a5.994 5.994 0 0 0-1.374.16 3.158 3.158 0 0 1-.725.084H6.067a3.154 3.154 0 0 1-.726-.084 6 6 0 0 0-.683-.12 5.922 5.922 0 0 0-.692-.04h-3.1a.484.484 0 1 0 0 .968h3.1a5.99 5.99 0 0 0 1.385-.163 3.091 3.091 0 0 1 .716-.082h5.606a3.163 3.163 0 0 1 .725.084 5.986 5.986 0 0 0 1.374.16h7.17a5.991 5.991 0 0 0 1.375-.16 3.17 3.17 0 0 1 .726-.084h22.386v-.479h-22.1Z" data-name="Path 137"/><path d="M0 0h45.426v.479H0Z" data-name="Path 931"/><path d="M16.086 1.877a3.156 3.156 0 0 1 .725.084 6 6 0 0 0 1.374.159h3.221a5.991 5.991 0 0 0 1.375-.16 3.163 3.163 0 0 1 .726-.084h21.917v-.479H23.509a3.17 3.17 0 0 1-.726-.084 5.983 5.983 0 0 0-1.375-.16h-3.221a5.985 5.985 0 0 0-1.374.16 3.167 3.167 0 0 1-.725.084H0v.479h16.086Z" data-name="Path 138"/><path d="M12.956 3.277a3.155 3.155 0 0 1 .725.084 6 6 0 0 0 1.374.16h5.886a5.99 5.99 0 0 0 1.375-.16 3.165 3.165 0 0 1 .726-.084h22.382v-.479H23.043a3.165 3.165 0 0 1-.726-.084 5.988 5.988 0 0 0-1.375-.16h-5.886a5.986 5.986 0 0 0-1.374.16 3.166 3.166 0 0 1-.725.084H0v.479h12.956Z" data-name="Path 139"/><path d="M21.119 6.993a3.164 3.164 0 0 1-.726-.084 5.991 5.991 0 0 0-1.375-.16h-6.906a5.991 5.991 0 0 0-1.373.159 3.157 3.157 0 0 1-.725.084h-.412a3.16 3.16 0 0 1-.726-.084 6 6 0 0 0-.683-.12 5.924 5.924 0 0 0-.692-.04h-5.9a.484.484 0 0 0 0 .968h5.9a5.988 5.988 0 0 0 1.385-.163 3.091 3.091 0 0 1 .716-.082h.412a3.166 3.166 0 0 1 .725.084 5.983 5.983 0 0 0 1.373.16h6.906a5.983 5.983 0 0 0 1.375-.16 3.172 3.172 0 0 1 .726-.084h24.31v-.478h-24.31Z" data-name="Path 140"/><path d="M19.924 8.394a3.166 3.166 0 0 1-.726-.084 5.988 5.988 0 0 0-1.375-.16h-5.711a5.993 5.993 0 0 0-1.373.159 1.814 1.814 0 0 1-1.048 0 5.99 5.99 0 0 0-.683-.12 5.917 5.917 0 0 0-.692-.04h-5.91a.484.484 0 1 0 0 .968h5.9a6 6 0 0 0 1.385-.162 3.042 3.042 0 0 1 .514-.075 3.15 3.15 0 0 1 .524.078 5.983 5.983 0 0 0 1.373.16h5.711a5.98 5.98 0 0 0 1.375-.16 3.173 3.173 0 0 1 .726-.084H45.42v-.479H19.924Z" data-name="Path 141"/><path d="M18.347 9.792h-.287a3.154 3.154 0 0 1-.726-.084 6 6 0 0 0-1.375-.16h-3.542a6 6 0 0 0-1.373.159 1.884 1.884 0 0 1-1.076 0 6.012 6.012 0 0 0-1.375-.16h-5.2a.484.484 0 0 0 0 .968h5.2a5.988 5.988 0 0 0 1.385-.163 3.026 3.026 0 0 1 .528-.076 3.161 3.161 0 0 1 .538.079 5.984 5.984 0 0 0 1.373.16h3.542a5.981 5.981 0 0 0 1.375-.16 3.169 3.169 0 0 1 .726-.084h27.369v-.479Z" data-name="Path 142"/><path d="M21.732 13.989a3.164 3.164 0 0 1-.726-.084 5.99 5.99 0 0 0-1.375-.16h-4.4a5.994 5.994 0 0 0-1.374.159 2.357 2.357 0 0 1-1.226 0 6.008 6.008 0 0 0-.683-.12 5.925 5.925 0 0 0-.692-.04H9.377a.484.484 0 1 0 0 .968h1.879a5.989 5.989 0 0 0 1.385-.163 3.062 3.062 0 0 1 .6-.079 3.164 3.164 0 0 1 .614.081 5.985 5.985 0 0 0 1.374.16h4.4a5.989 5.989 0 0 0 1.375-.16 3.166 3.166 0 0 1 .726-.084h23.7v-.479h-23.7Z" data-name="Path 143"/><path d="M22.588 15.388h-.287a3.168 3.168 0 0 1-.726-.084 5.988 5.988 0 0 0-1.375-.16h-3.95a5.994 5.994 0 0 0-1.374.159 3.161 3.161 0 0 1-.722.084h-.047a3.163 3.163 0 0 1-.726-.084 6 6 0 0 0-.683-.12 5.925 5.925 0 0 0-.692-.04H9.05a.484.484 0 1 0 0 .968h2.956a6 6 0 0 0 1.385-.163 3.093 3.093 0 0 1 .716-.082h.047a3.16 3.16 0 0 1 .722.084 5.984 5.984 0 0 0 1.374.16h3.95a5.984 5.984 0 0 0 1.375-.16 3.169 3.169 0 0 1 .726-.084H45.43v-.479H22.588Z" data-name="Path 144"/><path d="M19.746 12.59h-.287a3.153 3.153 0 0 1-.726-.084 6 6 0 0 0-.683-.12 5.916 5.916 0 0 0-.692-.041h-9.9a.484.484 0 0 0 0 .968h9.9a5.989 5.989 0 0 0 1.385-.163 3.092 3.092 0 0 1 .716-.082h25.97v-.479H19.746Z" data-name="Path 145"/><path d="M15.674 11.191h-.287a3.153 3.153 0 0 1-.726-.084 6 6 0 0 0-.683-.12 5.922 5.922 0 0 0-.692-.04H4.843a.484.484 0 1 0 0 .968h8.443a5.991 5.991 0 0 0 1.385-.163 3.091 3.091 0 0 1 .716-.082h30.042v-.479Z" data-name="Path 146"/><path d="M23.331 16.787h-.287a3.152 3.152 0 0 1-.726-.084 6 6 0 0 0-1.375-.16h-3.2a5.994 5.994 0 0 0-1.373.159 3.164 3.164 0 0 1-.725.084h-.835a3.159 3.159 0 0 1-.726-.084 6.019 6.019 0 0 0-1.375-.16H9.375a.484.484 0 1 0 0 .968h3.334a5.989 5.989 0 0 0 1.385-.163 3.1 3.1 0 0 1 .716-.082h.835a3.162 3.162 0 0 1 .725.084 5.981 5.981 0 0 0 1.374.16h3.2a5.984 5.984 0 0 0 1.375-.16 3.169 3.169 0 0 1 .726-.084h22.386v-.479Z" data-name="Path 147"/><path d="M22.74 18.186a3.154 3.154 0 0 1-.726-.084 6 6 0 0 0-1.375-.16h-.1a5.991 5.991 0 0 0-1.373.16 3.157 3.157 0 0 1-.725.084H14.49a3.153 3.153 0 0 1-.726-.084 5.992 5.992 0 0 0-.683-.12 5.919 5.919 0 0 0-.692-.04H10.4a.484.484 0 0 0 0 .968h1.98a5.99 5.99 0 0 0 1.385-.163 3.091 3.091 0 0 1 .716-.082h3.951a3.165 3.165 0 0 1 .725.084 5.984 5.984 0 0 0 1.373.16h.1a5.983 5.983 0 0 0 1.375-.16 3.174 3.174 0 0 1 .726-.084H45.42v-.479H22.74Z" data-name="Path 148"/><path d="M22.413 5.595h-.287a3.164 3.164 0 0 1-.726-.084 5.989 5.989 0 0 0-1.375-.16h-7.446a5.992 5.992 0 0 0-1.374.16 3.159 3.159 0 0 1-.725.084H8.168a3.154 3.154 0 0 1-.726-.084 6.007 6.007 0 0 0-.683-.12 5.9 5.9 0 0 0-.693-.04h-4.73a.484.484 0 0 0 0 .968h4.731a5.99 5.99 0 0 0 1.385-.163 3.089 3.089 0 0 1 .716-.082h2.311a3.164 3.164 0 0 1 .725.084 5.985 5.985 0 0 0 1.374.16h7.446a5.99 5.99 0 0 0 1.375-.16 3.163 3.163 0 0 1 .726-.084h23.3v-.479H22.413Z" data-name="Path 149"/><path d="M14.64 19.571h-1.366a1.328 1.328 0 0 1-.542-.115 1.33 1.33 0 0 0-.542-.115h-.06a.456.456 0 1 0 0 .911h.06a1.327 1.327 0 0 0 .542-.115 1.325 1.325 0 0 1 .207-.072h32.435v-.479H14.64Z" data-name="Path 150"/><path d="m45.374 3.374.025-.019v.026l-.025-.007" data-name="Path 151"/><path d="M43.508 23.014c-.345.272-.694.54-1.019.837a1.23 1.23 0 0 0-.364.56c.063.006.091-.037.125-.064.223-.172.441-.35.667-.519q.826-.618 1.589-1.311a3.79 3.79 0 0 0 .892-1.151v-.077a24.833 24.833 0 0 1-1.89 1.725" data-name="Path 152"/><path d="M23.275 29.281c-.059-.043-.107-.046-.147.022-.056.1-.108.193-.168.285a.152.152 0 0 0 .037.238.58.58 0 0 1 .163.174h.077c.043-.1.124-.178.163-.282a.347.347 0 0 0-.125-.437" data-name="Path 153"/><path d="M.511 23.178a1.738 1.738 0 0 0 .495.058 1.979 1.979 0 0 0 1.749-.949 4.182 4.182 0 0 0 .6-1.883c.084-.772.034-1.553.146-2.324 0-.029.012-.067-.025-.076s-.049.028-.061.054c-.092.2-.178.4-.275.591a1.493 1.493 0 0 0-.147.654c-.01.55-.027 1.1-.047 1.651a1.2 1.2 0 0 1-.872 1.217 2.328 2.328 0 0 1-1.349.042.477.477 0 0 1-.4-.564c0-.045.023-.11-.033-.122s-.071.06-.084.1a4.206 4.206 0 0 0-.142.947.554.554 0 0 0 .45.6" data-name="Path 154"/><path d="M27.756 26.168a.764.764 0 0 0 .264-.633c-.049.07-.1.129-.134.194a.123.123 0 0 1-.161.066c-.146-.06-.235.017-.32.114-.048.055-.09.114-.139.168a.407.407 0 0 1-.694-.137.821.821 0 0 1-.038-.341c.023-.327.084-.65.138-.986-.076.017-.084.069-.1.107a2.823 2.823 0 0 0-.3 1.256 1.332 1.332 0 0 1-.174.644 2.649 2.649 0 0 0-.25.517c-.089.276-.049.373.209.5.241.12.266.205.122.434a.872.872 0 0 1-.12.149 1.236 1.236 0 0 1-.875.364.655.655 0 0 1-.726-.905 3.5 3.5 0 0 1 .187-.516q.137-.323.266-.65c.013-.032.045-.083 0-.1s-.068.037-.085.07a7.271 7.271 0 0 0-.536 1.255 2.117 2.117 0 0 0-.1.731.8.8 0 0 0 .935.812 1.056 1.056 0 0 0 .607-.277 2.4 2.4 0 0 0 .736-1.345c.064-.3.07-.584-.273-.738a.071.071 0 0 1-.041-.1.768.768 0 0 1 .167-.281.431.431 0 0 0 .816.029 2.444 2.444 0 0 1 .167-.242.332.332 0 0 1 .332-.148.2.2 0 0 0 .125-.015" data-name="Path 155"/><path d="m19.676 25.814-.049-.015a.574.574 0 0 0-.232-.02.473.473 0 0 0-.4.457c.029 0 .042-.013.054-.032a.211.211 0 0 1 .012-.018c.135-.179.211-.2.428-.13.057.019.112.04.167.064.13.057.133.063.033.158a5.624 5.624 0 0 1-.533.46 1.646 1.646 0 0 1-.674.293c-.048.009-.093.021-.1-.056s-.045-.069-.1-.028a2.281 2.281 0 0 1-.755.393 5.615 5.615 0 0 1-2 .188 3.238 3.238 0 0 1-.633-.084.4.4 0 0 1-.324-.364c0-.041-.006-.082-.047-.109a.175.175 0 0 0-.059.13 2.877 2.877 0 0 0-.05.521.482.482 0 0 0 .5.557 5.8 5.8 0 0 0 1.921-.1 2.294 2.294 0 0 0 1.241-.618c.158-.172.287-.229.49-.123.162.084.281.017.407-.1a13.885 13.885 0 0 1 1.183-1.057.47.47 0 0 0 .162-.348.716.716 0 0 1-.645-.015" data-name="Path 156"/><path d="M40.948 27.377a.843.843 0 0 1 .1-.13.4.4 0 0 1 .377-.147.244.244 0 0 0 .243-.1 1.453 1.453 0 0 0 .344-.785c.058-.552.051-1.108.09-1.661 0-.034.012-.076-.031-.1-.009.011-.021.019-.025.029a2.87 2.87 0 0 0-.261 1.263 2.81 2.81 0 0 1 .005.346 1.826 1.826 0 0 1-.051.482c-.028.1-.081.159-.194.123a.313.313 0 0 0-.267.05.617.617 0 0 0-.2.2.965.965 0 0 1-.47.359 3.282 3.282 0 0 1-.537.164 7.553 7.553 0 0 1-1.963.1.981.981 0 0 1-.346-.088.345.345 0 0 1-.221-.275c-.009-.056 0-.121-.053-.165a.056.056 0 0 0-.04.047 2.27 2.27 0 0 0-.066.685.458.458 0 0 0 .463.47 5.457 5.457 0 0 0 2.081-.139 1.5 1.5 0 0 0 1.013-.718" data-name="Path 157"/><path d="M32.613 23.956c-.041.021-.054.063-.076.1a1.73 1.73 0 0 0-.26.936 3.2 3.2 0 0 1-.016.575.269.269 0 0 1-.292.23c-.13-.009-.184-.079-.2-.248a2.83 2.83 0 0 1 .065-.8c.039-.216.082-.432.123-.648l-.046-.013a3.139 3.139 0 0 0-.344.828 6.5 6.5 0 0 0-.1 1.121c-.007.243-.1.345-.336.324a1.579 1.579 0 0 0-1.335.576 5.8 5.8 0 0 0-.559.748 5.118 5.118 0 0 1-.636.816 7.794 7.794 0 0 1-.687.553c-.047.037-.141.08-.107.138s.115-.006.17-.03a3.241 3.241 0 0 0 1.275-1.06c.161-.21.306-.432.475-.635a1.079 1.079 0 0 1 .973-.436.508.508 0 0 0 .465-.189c.124-.146.253-.289.382-.431.033-.037.06-.075.124-.023a.244.244 0 0 0 .365-.014.763.763 0 0 0 .167-.209 2.971 2.971 0 0 0 .366-1.149c.034-.331 0-.667.072-1 0-.021.017-.053-.023-.062" data-name="Path 158"/><path d="M7.913 22.017a.892.892 0 0 0 .312-.625.262.262 0 0 0-.024-.219 1.328 1.328 0 0 0-.131.281c-.045.086-.094.176-.214.126s-.174 0-.208.108c-.015.048-.041.093-.061.141a.164.164 0 0 1-.2.11.307.307 0 0 0-.291.093c-.057.052-.113.1-.173.152a.637.637 0 0 1-.652.1.5.5 0 0 1-.3-.492 2.979 2.979 0 0 1-.007-.307c.022-.491.095-.976.153-1.463.035-.292.077-.584.09-.878 0-.026.015-.067-.028-.072-.027 0-.039.029-.048.053a5.689 5.689 0 0 0-.276.768 13.836 13.836 0 0 0-.28 2.206 1.634 1.634 0 0 0 .122.751.5.5 0 0 0 .536.311.6.6 0 0 0 .375-.2c.1-.111.194-.227.287-.343a.4.4 0 0 1 .4-.164.188.188 0 0 0 .189-.053 2.4 2.4 0 0 1 .433-.376" data-name="Path 159"/><path d="M11.448 26.886c.01-.037.032-.082-.011-.124-.012.011-.028.019-.035.032a1.069 1.069 0 0 1-.614.471 4.61 4.61 0 0 1-1.541.271 4.039 4.039 0 0 1-1.156-.1c-.22-.057-.4-.146-.394-.422 0-.031.005-.089-.048-.09s-.052.052-.06.087a4.91 4.91 0 0 0-.1.6.449.449 0 0 0 .26.471.9.9 0 0 0 .278.092 4.982 4.982 0 0 0 1.516-.018 3.854 3.854 0 0 0 1.264-.386 1.334 1.334 0 0 0 .645-.894" data-name="Path 160"/><path d="M4.882 16.916a22.056 22.056 0 0 0 2.295-1.959 3.493 3.493 0 0 0 .832-1.154.361.361 0 0 0 .049-.193c-.041-.01-.055.023-.074.044a24.952 24.952 0 0 1-2.863 2.591 13.983 13.983 0 0 0-1.243 1.045 1.286 1.286 0 0 0-.361.676c.058-.041.117-.079.173-.122l1.192-.926" data-name="Path 161"/><path d="M36.96 26.177c-.107-.04-.106.045-.135.1s-.054.149-.138.119-.132.014-.168.081a.189.189 0 0 1-.229.117.238.238 0 0 0-.24.087c-.052.056-.1.114-.15.175a.412.412 0 0 1-.453.163.417.417 0 0 1-.3-.373 2.779 2.779 0 0 1 .018-.7c.013-.193.04-.385.061-.577l-.031-.008a.18.18 0 0 0-.028.038 2.771 2.771 0 0 0-.291 1.077 2.115 2.115 0 0 1-.011.256c-.019.212-.017.426-.049.638a.34.34 0 0 1-.435.31.454.454 0 0 0-.289-.021 1.189 1.189 0 0 0-.654.6c-.013.023-.031.056-.006.084s.055 0 .078-.013a.781.781 0 0 1 .57-.071.5.5 0 0 0 .391-.073 1 1 0 0 0 .369-.415l.11-.217c.023-.044.044-.046.087-.012a.4.4 0 0 0 .654-.09c.074-.1.137-.206.213-.3a.277.277 0 0 1 .231-.142.372.372 0 0 0 .3-.136c.044-.039.084-.1.136-.112a.891.891 0 0 0 .375-.281.818.818 0 0 0 .206-.566.7.7 0 0 0-.114.2c-.02.032-.041.088-.078.074" data-name="Path 162"/><path d="M44.731 25.577c-.037-.012-.059.032-.072.061a.254.254 0 0 1-.238.155.341.341 0 0 0-.234.142c-.078.1-.156.193-.225.3a.258.258 0 0 1-.255.13 1.136 1.136 0 0 0-.681.181 2.227 2.227 0 0 0-.511.422 5.266 5.266 0 0 0-.516.7 4.162 4.162 0 0 1-1.24 1.309.578.578 0 0 0-.224.216.19.19 0 0 0 .171-.024 3.264 3.264 0 0 0 1.305-1.081c.156-.2.3-.418.459-.615a1.091 1.091 0 0 1 .955-.448.338.338 0 0 0 .328-.159c.1-.15.2-.3.289-.453a.5.5 0 0 1 .4-.277.164.164 0 0 0 .127-.075 1.2 1.2 0 0 0 .177-.381c.009-.034.028-.084-.021-.1" data-name="Path 163"/><path d="M5.485 20.273c-.056-.025-.089.065-.112.115a.8.8 0 0 1-.447.415c-.055.023-.106.054-.159.082a1.016 1.016 0 0 0-.464.46 5.188 5.188 0 0 0-.232.5 1.3 1.3 0 0 1-.55.65c-.24.162-.492.307-.718.489-.04.032-.111.059-.085.126s.092.048.161.049a4.25 4.25 0 0 0 .515-.087.862.862 0 0 0 .651-.555c.063-.154.129-.306.187-.461a.914.914 0 0 1 .561-.606.939.939 0 0 0 .577-.638c.044-.12.082-.242.119-.364.018-.059.054-.146 0-.172" data-name="Path 164"/><path d="M5.146 24.184a2.355 2.355 0 0 0 .159-.246c.165-.291.1-.5-.206-.716a.113.113 0 0 0-.189.042c-.08.14-.164.277-.256.43a1.129 1.129 0 0 0-.3-.316c-.081-.058-.138-.047-.184.043s-.11.193-.157.293c-.217.463-.258.324.155.68.09.078.158.059.225-.026a1.668 1.668 0 0 0 .2-.34c.024-.052.05-.063.093-.02l.2.2c.119.117.16.116.262-.02" data-name="Path 165"/><path d="M35.284 25.286c.761-.6 1.547-1.166 2.26-1.824a4.4 4.4 0 0 0 .661-.729c.053-.076.107-.153.152-.234a.819.819 0 0 0 .1-.26s0 0 0-.006l.006-.002c-.045 0-.061.038-.086.063a22.593 22.593 0 0 1-2.281 2.017 5.542 5.542 0 0 0-.618.536 1.226 1.226 0 0 0-.275.484 1 1 0 0 0 .09-.053" data-name="Path 166"/><path d="M7.746 17.832c-.077.136-.162.268-.248.41a1.105 1.105 0 0 0-.3-.306.1.1 0 0 0-.177.037q-.159.27-.293.552a.133.133 0 0 0 .044.187c.084.065.167.133.247.2s.151.055.216-.025a1.124 1.124 0 0 0 .18-.293c.046-.114.091-.092.155-.022s.106.111.161.164c.1.1.145.1.24-.013a1.253 1.253 0 0 0 .177-.265.467.467 0 0 0-.2-.673c-.084-.05-.146-.052-.2.043" data-name="Path 167"/><path d="M28.876 22.855a4.081 4.081 0 0 0 .979-1.153l.013-.024a.243.243 0 0 0 .052-.184h.012-.007l-.005.005h-.005c-.025.022-.051.043-.075.067a22 22 0 0 1-2.026 1.82 8.917 8.917 0 0 0-.87.734.84.84 0 0 0-.256.482c.028-.019.054-.034.077-.053.706-.557 1.437-1.084 2.106-1.688" data-name="Path 168"/><path d="M34.887 21.638a2.279 2.279 0 0 0 .393-.578c.012-.022.038-.051 0-.079-.04 0-.059.031-.082.054-.932.878-1.908 1.7-2.9 2.516a.928.928 0 0 0-.291.5c.025-.016.051-.029.074-.046a28.086 28.086 0 0 0 2.8-2.37" data-name="Path 169"/><path d="M28.479 27.884a2.07 2.07 0 0 0 .377-1.108.4.4 0 0 0-.091-.286.215.215 0 0 0-.373.009 2.449 2.449 0 0 0-.266.521c-.086.207.133.344.289.312.039-.008.075-.044.127-.011a.818.818 0 0 1-.31.423c-.16.113-.323.222-.483.334a.353.353 0 0 0-.149.168 4.408 4.408 0 0 0 .777-.268.293.293 0 0 0 .1-.1" data-name="Path 170"/><path d="M21.854 26.369c-.063-.042-.1-.039-.137.039a8.75 8.75 0 0 1-.207.438.144.144 0 0 0 .05.2 1.31 1.31 0 0 1 .254.251c.107.144.106.2-.015.335a3.153 3.153 0 0 1-.5.451.317.317 0 0 0-.138.141.283.283 0 0 0 .153-.006 1.214 1.214 0 0 0 .926-1.147.748.748 0 0 0-.383-.7" data-name="Path 171"/><path d="M24.043 26.204a.774.774 0 0 1-.439.387.723.723 0 0 0-.365.361 3.188 3.188 0 0 0-.14.3 1 1 0 0 1-.435.518c-.169.108-.332.224-.5.339-.027.019-.066.04-.053.079s.06.042.1.04a2.751 2.751 0 0 0 .39-.064.6.6 0 0 0 .458-.386c.046-.11.1-.219.136-.331a.7.7 0 0 1 .419-.453c.378-.148.415-.5.514-.836-.065 0-.079.025-.087.046" data-name="Path 172"/><path d="M44.726 23.726a.093.093 0 0 0-.1.054l-.205.308a1.387 1.387 0 0 0-.211-.2c-.082-.064-.146-.072-.2.035a3.813 3.813 0 0 1-.193.331c-.064.1-.045.159.048.231.27.208.3.209.47-.09.057-.1.093-.1.171-.024.219.208.26.2.423-.062a.822.822 0 0 0 .054-.1.365.365 0 0 0-.252-.478" data-name="Path 173"/><path d="M4.842 26.824c-.05-.022-.113-.062-.155-.016-.066.07-.138.17-.117.257a.123.123 0 0 1-.051.144.9.9 0 0 0-.259.374c-.05.154-.027.218.116.289.088.044.094.094.05.172a.539.539 0 0 1-.471.282.3.3 0 0 1-.347-.32.96.96 0 0 1 .095-.381.84.84 0 0 0 .1-.332 2.366 2.366 0 0 0-.3.8.506.506 0 0 0 .207.527.532.532 0 0 0 .569-.159 1.182 1.182 0 0 0 .292-.6c.028-.135.029-.255-.129-.316-.069-.027-.072-.071-.025-.129a.957.957 0 0 1 .3-.23.431.431 0 0 0 .188-.168.124.124 0 0 0-.066-.2" data-name="Path 174"/><path d="M37.571 25.139c.071-.126.071-.126.179-.022.187.182.209.18.355-.042a.84.84 0 0 0 .045-.077.344.344 0 0 0-.158-.505c-.065-.035-.11-.03-.149.035-.059.1-.12.195-.188.3a.894.894 0 0 0-.2-.207c-.076-.059-.132-.063-.181.032s-.114.219-.18.324a.152.152 0 0 0 .044.235c.249.2.274.2.43-.076" data-name="Path 175"/><path d="M27.075 28.39c-.067-.042-.117-.04-.16.032-.057.094-.117.187-.186.3-.072-.078-.132-.149-.2-.214s-.12-.053-.164.028c-.059.109-.116.218-.181.323s-.048.175.054.253c.233.177.262.181.4-.079.059-.111.1-.114.184-.03.187.182.2.177.35-.035l.028-.042a.347.347 0 0 0-.128-.532" data-name="Path 176"/><path d="M15.757 26.344c.23.177.263.179.4-.081.058-.11.094-.119.182-.031.186.186.207.18.357-.04l.021-.032a.346.346 0 0 0-.12-.533c-.071-.046-.124-.044-.169.033s-.111.181-.171.279c-.071-.069-.13-.13-.192-.188s-.138-.074-.19.028-.109.212-.173.312-.043.178.056.254" data-name="Path 177"/><path d="M38.712 26.545c.141.121.175.115.28-.034.046-.065.08-.179.134-.188.076-.013.129.094.193.147.04.033.084.078.133.031a.72.72 0 0 0 .236-.371.287.287 0 0 0-.069-.226c-.158-.207-.232-.2-.365.015-.1.173-.1.173-.242.037a1.287 1.287 0 0 0-.066-.061c-.068-.059-.126-.063-.174.026s-.094.162-.137.245c-.142.277-.12.208.076.378" data-name="Path 178"/><path d="M30.057 24.383c.232.181.255.182.4-.075.077-.132.077-.132.188-.026.183.174.195.172.34-.036l.021-.032a.339.339 0 0 0-.1-.538c-.076-.056-.135-.061-.187.03s-.111.181-.172.279l-.192-.2c-.063-.065-.133-.066-.183.027s-.113.21-.175.311a.166.166 0 0 0 .051.254" data-name="Path 179"/><path d="M8.921 26.595c.145.123.176.115.287-.039.046-.064.06-.18.134-.186s.121.1.183.148c.039.033.084.082.133.037a.675.675 0 0 0 .242-.4.463.463 0 0 0-.251-.356.084.084 0 0 0-.106.047c-.05.079-.1.158-.147.239-.03.053-.053.052-.092.007a1.592 1.592 0 0 0-.153-.153c-.063-.056-.12-.055-.164.027s-.1.161-.138.244c-.139.268-.124.213.073.381" data-name="Path 180"/><path d="M23.49 28.482a.079.079 0 0 0-.115.04l-.184.305a1.21 1.21 0 0 0-.177-.192c-.08-.07-.144-.083-.195.031-.029.066-.07.127-.1.192-.138.3-.176.226.114.47.069.058.123.051.169-.019.06-.09.115-.184.19-.306.065.077.122.146.182.212s.1.051.15-.008a1.076 1.076 0 0 0 .161-.259.363.363 0 0 0-.2-.466" data-name="Path 181"/><path d="M20.911 25.36a2.177 2.177 0 0 0-.259 1.105 3.7 3.7 0 0 1-.073 1.067c-.007.029-.03.073.014.088s.058-.028.077-.055a1.537 1.537 0 0 0 .208-.477 4.085 4.085 0 0 0 .088-.951c.015-.288.008-.577.051-.875-.081.014-.088.062-.106.1" data-name="Path 182"/><path d="M33.037 25.695c-.03-.006-.044.021-.055.044a2.147 2.147 0 0 0-.269.845 5.91 5.91 0 0 1-.09 1.38c0 .042-.019.073.016.083s.053-.023.069-.046a1.547 1.547 0 0 0 .26-.686c.074-.52.028-1.047.09-1.568 0-.023 0-.047-.022-.052" data-name="Path 183"/><path d="M7.57 17.901a1.341 1.341 0 0 0 .267-.568.567.567 0 0 0-.32-.478.1.1 0 0 0-.147.055 4.886 4.886 0 0 0-.276.59.1.1 0 0 0 .022.128q.165.142.332.281a.076.076 0 0 0 .122-.008" data-name="Path 184"/><path d="M12.431 26.523c-.034-.008-.053.023-.065.051-.057.128-.12.254-.167.386a1.756 1.756 0 0 1-.845 1 1.478 1.478 0 0 0-.218.155c-.025.02-.055.049-.038.087s.058.026.091.022a4.03 4.03 0 0 0 .459-.108.663.663 0 0 0 .448-.384 5.325 5.325 0 0 0 .269-.7c.043-.138.074-.279.1-.393 0-.062 0-.1-.037-.111" data-name="Path 185"/><path d="M4.712 24.279a.085.085 0 0 0-.12.034 3.929 3.929 0 0 0-.31.543.118.118 0 0 0 .032.149c.092.089.183.179.273.269.043.043.087.058.131.007a1.012 1.012 0 0 0 .279-.537.581.581 0 0 0-.285-.466" data-name="Path 186"/><path d="M6.118 27.308c-.167.012-.229.129-.315.23-.151-.13-.18-.129-.318 0l-.027.027a.207.207 0 0 1-.226.046.165.165 0 0 1-.108-.172c0-.1.005-.2.01-.294 0-.047.008-.093.015-.14a2.484 2.484 0 0 0 .048-.416c-.032.018-.036.054-.05.083a2.691 2.691 0 0 0-.149.813.9.9 0 0 0 0 .255.2.2 0 0 0 .138.183.215.215 0 0 0 .237-.086c.032-.04.06-.083.093-.122s.079-.1.15-.063.07.091.063.154a.455.455 0 0 0-.005.207c.052-.129.088-.228.132-.324s.081-.187.17-.194a.49.49 0 0 0 .242-.128.248.248 0 0 0 .1-.272.3.3 0 0 1-.2.21" data-name="Path 187"/><path d="m44.114 23.641.242.188c.04.031.084.05.123 0a.924.924 0 0 0 .214-.424.423.423 0 0 0-.242-.352.1.1 0 0 0-.148.044l-.214.419a.085.085 0 0 0 .025.122" data-name="Path 188"/><path d="M37.545 23.865a4.406 4.406 0 0 0-.2.414.086.086 0 0 0 .028.112l.227.186c.037.03.076.043.111 0a.991.991 0 0 0 .2-.434.419.419 0 0 0-.214-.317.1.1 0 0 0-.158.04" data-name="Path 189"/><path d="M27.866 24.139a2.653 2.653 0 0 0-.174.353c-.021.055-.055.117 0 .166a.8.8 0 0 0 .3.2c.011 0 .032-.012.042-.025a1.023 1.023 0 0 0 .213-.433.549.549 0 0 0-.21-.291c-.067-.059-.126-.057-.175.03" data-name="Path 190"/><path d="M35.398 29.155a.086.086 0 0 0-.1.053 2.259 2.259 0 0 0-.2.412c-.017.049-.023.095.021.128.084.065.172.124.259.185a.053.053 0 0 0 .079-.013 1.043 1.043 0 0 0 .213-.408.537.537 0 0 0-.267-.357" data-name="Path 191"/><path d="M19.431 24.675a.746.746 0 0 0 .3.182c.009 0 .024-.01.031-.019a1.026 1.026 0 0 0 .212-.414.518.518 0 0 0-.278-.353c-.047-.007-.071.021-.091.054a2.367 2.367 0 0 0-.2.4c-.02.052-.031.112.025.151" data-name="Path 192"/><path d="M.521 28.298a1.262 1.262 0 0 1 0-1.52c.02-.024.069-.047.038-.082s-.068.009-.093.03a1.012 1.012 0 0 0-.353.831.99.99 0 0 0 .349.789c.026.022.06.07.1.032s-.019-.057-.038-.08" data-name="Path 193"/><path d="M6.556 26.724c-.023-.019-.05-.065-.084-.033s.013.065.033.089a1.254 1.254 0 0 1 0 1.519c-.019.023-.07.043-.034.08s.061-.009.086-.028a1 1 0 0 0 .36-.807 1.012 1.012 0 0 0-.358-.819" data-name="Path 194"/><path d="M1.394 21.108a.213.213 0 0 0 .135.029.367.367 0 0 0 .284-.122l.006-.008a.227.227 0 0 0 .024-.04.207.207 0 0 0 .018-.107c-.008-.078-.087-.148-.037-.231s.146-.054.221-.079a.1.1 0 0 0 .074-.106c0-.06-.047-.074-.1-.077a.287.287 0 0 0-.3.347c.036.164.006.208-.158.23-.042.006-.085 0-.128.007s-.085-.008-.1.04a.111.111 0 0 0 .058.118" data-name="Path 195"/><path d="M3.297 26.447c-.039.075-.082.148-.114.225-.018.045.124.175.167.153a.249.249 0 0 0 .128-.22c0-.091-.075-.135-.135-.177a.032.032 0 0 0-.045.019" data-name="Path 196"/><path d="M2.519 26.836a.131.131 0 0 0-.172.041c-.074.082-.141.171-.211.257-.026.031-.043.08-.1.071-.156-.026-.168.079-.169.187a1.581 1.581 0 0 1-.051.43.682.682 0 0 1-.749.483.276.276 0 0 1-.256-.331 1.049 1.049 0 0 1 .1-.328.452.452 0 0 0 .071-.251 1.846 1.846 0 0 0-.276.65.773.773 0 0 0 0 .317.369.369 0 0 0 .44.292.838.838 0 0 0 .564-.405 1.89 1.89 0 0 0 .261-.7c.01-.046.019-.08.085-.087a.556.556 0 0 0 .5-.46c.011-.058.026-.124-.038-.163m-.114.265a.306.306 0 0 1-.23.084.561.561 0 0 1 .155-.188.1.1 0 0 1 .129.013c.04.05-.024.07-.053.091" data-name="Path 197"/><path d="M3.466 27.251c-.235-.045-.26-.035-.388.171a1.217 1.217 0 0 0-.072.12c-.051.108-.114.077-.179.019a.2.2 0 0 1-.064-.161c0-.089.006-.179.016-.267.02-.174.045-.347.067-.52a.1.1 0 0 0-.055.06 2.887 2.887 0 0 0-.157.912.283.283 0 0 0 .14.317.344.344 0 0 0 .384-.046 3.41 3.41 0 0 0 .448-.593c-.073-.006-.107-.005-.14-.012m-.112.2a.406.406 0 0 1-.313.162.718.718 0 0 1 .136-.223.129.129 0 0 1 .139-.04c.066.016.093.042.038.1" data-name="Path 198"/><path d="M13.571 26.476c-.031 0-.066.011-.1-.023l.274-.256c.559-.527 1.129-1.044 1.653-1.606a1.378 1.378 0 0 0 .268-.517c.01-.028.025-.064 0-.083s-.05.016-.07.037c-.755.833-1.583 1.592-2.387 2.376-.034.033-.062.079-.125.085.024-.4.113-.787.119-1.181h-.031a.414.414 0 0 0-.025.043 6.169 6.169 0 0 0-.391 2.2.887.887 0 0 0 .095.484.368.368 0 0 0 .434.187.613.613 0 0 0 .366-.284 1.989 1.989 0 0 0 .331-1.022.382.382 0 0 0-.4-.439m.011 1.057a.415.415 0 0 1-.2.042.316.316 0 0 1-.331-.146.193.193 0 0 1 .049-.263.443.443 0 0 1 .491-.052.222.222 0 0 1-.012.42" data-name="Path 199"/></g></svg>